<?xml version="1.0" encoding="utf-8" standalone="no"?>
<!DOCTYPE svg PUBLIC "-//W3C//DTD SVG 1.1//EN"
  "http://www.w3.org/Graphics/SVG/1.1/DTD/svg11.dtd">
<svg xmlns:xlink="http://www.w3.org/1999/xlink" width="404.923125pt" height="310.86825pt" viewBox="0 0 404.923125 310.86825" xmlns="http://www.w3.org/2000/svg" version="1.1">
 <metadata>
  <rdf:RDF xmlns:dc="http://purl.org/dc/elements/1.1/" xmlns:cc="http://creativecommons.org/ns#" xmlns:rdf="http://www.w3.org/1999/02/22-rdf-syntax-ns#">
   <cc:Work>
    <dc:type rdf:resource="http://purl.org/dc/dcmitype/StillImage"/>
    <dc:date>2025-07-17T21:53:39.304888</dc:date>
    <dc:format>image/svg+xml</dc:format>
    <dc:creator>
     <cc:Agent>
      <dc:title>Matplotlib v3.10.3, https://matplotlib.org/</dc:title>
     </cc:Agent>
    </dc:creator>
   </cc:Work>
  </rdf:RDF>
 </metadata>
 <defs>
  <style type="text/css">*{stroke-linejoin: round; stroke-linecap: butt}</style>
 </defs>
 <g id="figure_1">
  <g id="patch_1">
   <path d="M 0 310.86825 
L 404.923125 310.86825 
L 404.923125 0 
L 0 0 
L 0 310.86825 
z
" style="fill: none"/>
  </g>
  <g id="axes_1">
   <g id="patch_2">
    <path d="M 40.603125 273.312 
L 397.723125 273.312 
L 397.723125 7.2 
L 40.603125 7.2 
L 40.603125 273.312 
z
" style="fill: none"/>
   </g>
   <g id="FillBetweenPolyCollection_1">
    <defs>
     <path id="med72b5884c" d="M 201.307125 -49.65225 
L 58.459125 -49.65225 
L 62.64196 -52.095886 
L 76.718807 -54.539523 
L 93.147245 -56.983159 
L 106.163975 -59.426795 
L 114.329385 -61.870432 
L 118.955121 -64.314068 
L 121.68632 -66.757705 
L 123.433698 -69.201341 
L 124.525511 -71.644977 
L 125.148907 -74.088614 
L 125.539378 -76.53225 
L 125.914706 -78.975886 
L 126.371619 -81.419523 
L 126.889194 -83.863159 
L 127.404493 -86.306795 
L 127.865126 -88.750432 
L 128.241352 -91.194068 
L 128.525683 -93.637705 
L 128.727287 -96.081341 
L 128.861272 -98.524977 
L 128.939358 -100.968614 
L 128.967538 -103.41225 
L 128.95218 -105.855886 
L 128.90883 -108.299523 
L 128.862924 -110.743159 
L 128.837412 -113.186795 
L 128.838686 -115.630432 
L 128.857742 -118.074068 
L 128.884149 -120.517705 
L 128.9163 -122.961341 
L 128.960017 -125.404977 
L 129.018739 -127.848614 
L 129.085731 -130.29225 
L 129.147603 -132.735886 
L 129.194049 -135.179523 
L 129.222737 -137.623159 
L 129.237585 -140.066795 
L 129.244902 -142.510432 
L 129.250347 -144.954068 
L 129.255738 -147.397705 
L 129.255395 -149.841341 
L 129.237153 -152.284977 
L 129.190534 -154.728614 
L 129.115297 -157.17225 
L 129.02254 -159.615886 
L 128.928979 -162.059523 
L 128.851284 -164.503159 
L 128.801121 -166.946795 
L 128.776128 -169.390432 
L 128.755522 -171.834068 
L 128.714684 -174.277705 
L 128.65073 -176.721341 
L 128.593484 -179.164977 
L 128.587459 -181.608614 
L 128.660536 -184.05225 
L 128.810513 -186.495886 
L 129.01398 -188.939523 
L 129.235723 -191.383159 
L 129.435519 -193.826795 
L 129.583482 -196.270432 
L 129.674064 -198.714068 
L 129.722299 -201.157705 
L 129.747819 -203.601341 
L 129.763262 -206.044977 
L 129.773081 -208.488614 
L 129.777493 -210.93225 
L 129.775859 -213.375886 
L 129.768413 -215.819523 
L 129.757372 -218.263159 
L 129.747067 -220.706795 
L 129.741923 -223.150432 
L 129.743377 -225.594068 
L 129.749209 -228.037705 
L 129.756142 -230.481341 
L 129.76253 -232.924977 
L 129.768405 -235.368614 
L 129.773152 -237.81225 
L 129.77345 -240.255886 
L 129.764779 -242.699523 
L 129.746634 -245.143159 
L 129.726328 -247.586795 
L 129.715573 -250.030432 
L 129.721367 -252.474068 
L 129.740546 -254.917705 
L 129.763627 -257.361341 
L 129.782447 -259.804977 
L 129.793762 -262.248614 
L 129.79824 -264.69225 
L 129.798489 -267.135886 
L 129.797774 -269.579523 
L 129.798803 -272.023159 
L 129.802646 -274.466795 
L 129.808743 -276.910432 
L 129.815842 -279.354068 
L 129.822737 -281.797705 
L 129.828655 -284.241341 
L 129.833692 -286.684977 
L 129.838951 -289.128614 
L 129.845866 -291.57225 
L 129.920384 -291.57225 
L 129.920384 -291.57225 
L 129.927299 -289.128614 
L 129.932558 -286.684977 
L 129.937595 -284.241341 
L 129.943513 -281.797705 
L 129.950408 -279.354068 
L 129.957507 -276.910432 
L 129.963604 -274.466795 
L 129.967447 -272.023159 
L 129.968476 -269.579523 
L 129.967761 -267.135886 
L 129.96801 -264.69225 
L 129.972488 -262.248614 
L 129.983803 -259.804977 
L 130.002623 -257.361341 
L 130.025704 -254.917705 
L 130.044883 -252.474068 
L 130.050677 -250.030432 
L 130.039922 -247.586795 
L 130.019616 -245.143159 
L 130.001471 -242.699523 
L 129.9928 -240.255886 
L 129.993098 -237.81225 
L 129.997845 -235.368614 
L 130.00372 -232.924977 
L 130.010108 -230.481341 
L 130.017041 -228.037705 
L 130.022873 -225.594068 
L 130.024327 -223.150432 
L 130.019183 -220.706795 
L 130.008878 -218.263159 
L 129.997837 -215.819523 
L 129.990391 -213.375886 
L 129.988757 -210.93225 
L 129.993169 -208.488614 
L 130.002988 -206.044977 
L 130.018431 -203.601341 
L 130.043951 -201.157705 
L 130.092186 -198.714068 
L 130.182768 -196.270432 
L 130.330731 -193.826795 
L 130.530527 -191.383159 
L 130.75227 -188.939523 
L 130.955737 -186.495886 
L 131.105714 -184.05225 
L 131.178791 -181.608614 
L 131.172766 -179.164977 
L 131.11552 -176.721341 
L 131.051566 -174.277705 
L 131.010728 -171.834068 
L 130.990122 -169.390432 
L 130.965129 -166.946795 
L 130.914966 -164.503159 
L 130.837271 -162.059523 
L 130.74371 -159.615886 
L 130.650953 -157.17225 
L 130.575716 -154.728614 
L 130.529097 -152.284977 
L 130.510855 -149.841341 
L 130.510512 -147.397705 
L 130.515903 -144.954068 
L 130.521348 -142.510432 
L 130.528665 -140.066795 
L 130.543513 -137.623159 
L 130.572201 -135.179523 
L 130.618647 -132.735886 
L 130.680519 -130.29225 
L 130.747511 -127.848614 
L 130.806233 -125.404977 
L 130.84995 -122.961341 
L 130.882101 -120.517705 
L 130.908508 -118.074068 
L 130.927564 -115.630432 
L 130.928838 -113.186795 
L 130.903326 -110.743159 
L 130.85742 -108.299523 
L 130.81407 -105.855886 
L 130.798712 -103.41225 
L 130.826892 -100.968614 
L 130.904978 -98.524977 
L 131.038963 -96.081341 
L 131.240567 -93.637705 
L 131.524898 -91.194068 
L 131.901124 -88.750432 
L 132.361757 -86.306795 
L 132.877056 -83.863159 
L 133.394631 -81.419523 
L 133.851544 -78.975886 
L 134.226872 -76.53225 
L 134.617343 -74.088614 
L 135.240739 -71.644977 
L 136.332552 -69.201341 
L 138.07993 -66.757705 
L 140.811129 -64.314068 
L 145.436865 -61.870432 
L 153.602275 -59.426795 
L 166.619005 -56.983159 
L 183.047443 -54.539523 
L 197.12429 -52.095886 
L 201.307125 -49.65225 
z
" style="stroke: #191919; stroke-opacity: 0.75; stroke-width: 1.25"/>
    </defs>
    <g clip-path="url(#pd968f23a9f)">
     <use xlink:href="#med72b5884c" x="0" y="310.86825" style="fill: #377182; fill-opacity: 0.75; stroke: #191919; stroke-opacity: 0.75; stroke-width: 1.25"/>
    </g>
   </g>
   <g id="FillBetweenPolyCollection_2">
    <defs>
     <path id="m243c5bdbe7" d="M 379.602747 -49.65225 
L 237.283503 -49.65225 
L 237.019125 -52.026068 
L 242.512757 -54.399886 
L 251.969266 -56.773705 
L 262.981634 -59.147523 
L 273.445227 -61.521341 
L 282.098928 -63.895159 
L 288.571791 -66.268977 
L 293.103639 -68.642795 
L 296.191866 -71.016614 
L 298.332326 -73.390432 
L 299.897967 -75.76425 
L 301.121116 -78.138068 
L 302.126023 -80.511886 
L 302.97151 -82.885705 
L 303.684042 -85.259523 
L 304.276802 -87.633341 
L 304.758109 -90.007159 
L 305.134537 -92.380977 
L 305.412969 -94.754795 
L 305.603234 -97.128614 
L 305.720505 -99.502432 
L 305.785451 -101.87625 
L 305.821158 -104.250068 
L 305.848162 -106.623886 
L 305.880521 -108.997705 
L 305.925041 -111.371523 
L 305.983189 -113.745341 
L 306.05332 -116.119159 
L 306.131307 -118.492977 
L 306.209928 -120.866795 
L 306.279008 -123.240614 
L 306.327716 -125.614432 
L 306.348257 -127.98825 
L 306.338677 -130.362068 
L 306.302972 -132.735886 
L 306.248723 -135.109705 
L 306.184009 -137.483523 
L 306.115499 -139.857341 
L 306.048483 -142.231159 
L 305.988346 -144.604977 
L 305.942341 -146.978795 
L 305.920489 -149.352614 
L 305.934825 -151.726432 
L 305.99679 -154.10025 
L 306.113337 -156.474068 
L 306.283077 -158.847886 
L 306.494343 -161.221705 
L 306.726791 -163.595523 
L 306.956792 -165.969341 
L 307.164588 -168.343159 
L 307.339759 -170.716977 
L 307.482183 -173.090795 
L 307.598341 -175.464614 
L 307.695555 -177.838432 
L 307.777505 -180.21225 
L 307.843079 -182.586068 
L 307.888413 -184.959886 
L 307.910515 -187.333705 
L 307.910476 -189.707523 
L 307.894745 -192.081341 
L 307.873903 -194.455159 
L 307.859393 -196.828977 
L 307.859527 -199.202795 
L 307.876413 -201.576614 
L 307.905242 -203.950432 
L 307.936517 -206.32425 
L 307.960418 -208.698068 
L 307.971282 -211.071886 
L 307.969922 -213.445705 
L 307.962736 -215.819523 
L 307.958355 -218.193341 
L 307.963824 -220.567159 
L 307.982162 -222.940977 
L 308.012087 -225.314795 
L 308.049505 -227.688614 
L 308.089654 -230.062432 
L 308.128707 -232.43625 
L 308.164157 -234.810068 
L 308.194087 -237.183886 
L 308.216164 -239.557705 
L 308.227284 -241.931523 
L 308.224296 -244.305341 
L 308.20549 -246.679159 
L 308.172062 -249.052977 
L 308.128718 -251.426795 
L 308.082985 -253.800614 
L 308.043329 -256.174432 
L 308.016782 -258.54825 
L 308.007037 -260.922068 
L 308.013787 -263.295886 
L 308.033462 -265.669705 
L 308.060918 -268.043523 
L 308.09133 -270.417341 
L 308.12159 -272.791159 
L 308.150796 -275.164977 
L 308.179816 -277.538795 
L 308.210219 -279.912614 
L 308.243116 -282.286432 
L 308.278351 -284.66025 
L 308.607899 -284.66025 
L 308.607899 -284.66025 
L 308.643134 -282.286432 
L 308.676031 -279.912614 
L 308.706434 -277.538795 
L 308.735454 -275.164977 
L 308.76466 -272.791159 
L 308.79492 -270.417341 
L 308.825332 -268.043523 
L 308.852788 -265.669705 
L 308.872463 -263.295886 
L 308.879213 -260.922068 
L 308.869468 -258.54825 
L 308.842921 -256.174432 
L 308.803265 -253.800614 
L 308.757532 -251.426795 
L 308.714188 -249.052977 
L 308.68076 -246.679159 
L 308.661954 -244.305341 
L 308.658966 -241.931523 
L 308.670086 -239.557705 
L 308.692163 -237.183886 
L 308.722093 -234.810068 
L 308.757543 -232.43625 
L 308.796596 -230.062432 
L 308.836745 -227.688614 
L 308.874163 -225.314795 
L 308.904088 -222.940977 
L 308.922426 -220.567159 
L 308.927895 -218.193341 
L 308.923514 -215.819523 
L 308.916328 -213.445705 
L 308.914968 -211.071886 
L 308.925832 -208.698068 
L 308.949733 -206.32425 
L 308.981008 -203.950432 
L 309.009837 -201.576614 
L 309.026723 -199.202795 
L 309.026857 -196.828977 
L 309.012347 -194.455159 
L 308.991505 -192.081341 
L 308.975774 -189.707523 
L 308.975735 -187.333705 
L 308.997837 -184.959886 
L 309.043171 -182.586068 
L 309.108745 -180.21225 
L 309.190695 -177.838432 
L 309.287909 -175.464614 
L 309.404067 -173.090795 
L 309.546491 -170.716977 
L 309.721662 -168.343159 
L 309.929458 -165.969341 
L 310.159459 -163.595523 
L 310.391907 -161.221705 
L 310.603173 -158.847886 
L 310.772913 -156.474068 
L 310.88946 -154.10025 
L 310.951425 -151.726432 
L 310.965761 -149.352614 
L 310.943909 -146.978795 
L 310.897904 -144.604977 
L 310.837767 -142.231159 
L 310.770751 -139.857341 
L 310.702241 -137.483523 
L 310.637527 -135.109705 
L 310.583278 -132.735886 
L 310.547573 -130.362068 
L 310.537993 -127.98825 
L 310.558534 -125.614432 
L 310.607242 -123.240614 
L 310.676322 -120.866795 
L 310.754943 -118.492977 
L 310.83293 -116.119159 
L 310.903061 -113.745341 
L 310.961209 -111.371523 
L 311.005729 -108.997705 
L 311.038088 -106.623886 
L 311.065092 -104.250068 
L 311.100799 -101.87625 
L 311.165745 -99.502432 
L 311.283016 -97.128614 
L 311.473281 -94.754795 
L 311.751713 -92.380977 
L 312.128141 -90.007159 
L 312.609448 -87.633341 
L 313.202208 -85.259523 
L 313.91474 -82.885705 
L 314.760227 -80.511886 
L 315.765134 -78.138068 
L 316.988283 -75.76425 
L 318.553924 -73.390432 
L 320.694384 -71.016614 
L 323.782611 -68.642795 
L 328.314459 -66.268977 
L 334.787322 -63.895159 
L 343.441023 -61.521341 
L 353.904616 -59.147523 
L 364.916984 -56.773705 
L 374.373493 -54.399886 
L 379.867125 -52.026068 
L 379.602747 -49.65225 
z
" style="stroke: #191919; stroke-opacity: 0.75; stroke-width: 1.25"/>
    </defs>
    <g clip-path="url(#pd968f23a9f)">
     <use xlink:href="#m243c5bdbe7" x="0" y="310.86825" style="fill: #3e0b4a; fill-opacity: 0.75; stroke: #191919; stroke-opacity: 0.75; stroke-width: 1.25"/>
    </g>
   </g>
   <g id="matplotlib.axis_1">
    <g id="xtick_1">
     <g id="text_1">
      <!-- unannotated -->
      <g transform="translate(97.849531 287.910437) scale(0.1 -0.1)">
       <defs>
        <path id="DejaVuSans-75" d="M 544 1381 
L 544 3500 
L 1119 3500 
L 1119 1403 
Q 1119 906 1312 657 
Q 1506 409 1894 409 
Q 2359 409 2629 706 
Q 2900 1003 2900 1516 
L 2900 3500 
L 3475 3500 
L 3475 0 
L 2900 0 
L 2900 538 
Q 2691 219 2414 64 
Q 2138 -91 1772 -91 
Q 1169 -91 856 284 
Q 544 659 544 1381 
z
M 1991 3584 
L 1991 3584 
z
" transform="scale(0.015625)"/>
        <path id="DejaVuSans-6e" d="M 3513 2113 
L 3513 0 
L 2938 0 
L 2938 2094 
Q 2938 2591 2744 2837 
Q 2550 3084 2163 3084 
Q 1697 3084 1428 2787 
Q 1159 2491 1159 1978 
L 1159 0 
L 581 0 
L 581 3500 
L 1159 3500 
L 1159 2956 
Q 1366 3272 1645 3428 
Q 1925 3584 2291 3584 
Q 2894 3584 3203 3211 
Q 3513 2838 3513 2113 
z
" transform="scale(0.015625)"/>
        <path id="DejaVuSans-61" d="M 2194 1759 
Q 1497 1759 1228 1600 
Q 959 1441 959 1056 
Q 959 750 1161 570 
Q 1363 391 1709 391 
Q 2188 391 2477 730 
Q 2766 1069 2766 1631 
L 2766 1759 
L 2194 1759 
z
M 3341 1997 
L 3341 0 
L 2766 0 
L 2766 531 
Q 2569 213 2275 61 
Q 1981 -91 1556 -91 
Q 1019 -91 701 211 
Q 384 513 384 1019 
Q 384 1609 779 1909 
Q 1175 2209 1959 2209 
L 2766 2209 
L 2766 2266 
Q 2766 2663 2505 2880 
Q 2244 3097 1772 3097 
Q 1472 3097 1187 3025 
Q 903 2953 641 2809 
L 641 3341 
Q 956 3463 1253 3523 
Q 1550 3584 1831 3584 
Q 2591 3584 2966 3190 
Q 3341 2797 3341 1997 
z
" transform="scale(0.015625)"/>
        <path id="DejaVuSans-6f" d="M 1959 3097 
Q 1497 3097 1228 2736 
Q 959 2375 959 1747 
Q 959 1119 1226 758 
Q 1494 397 1959 397 
Q 2419 397 2687 759 
Q 2956 1122 2956 1747 
Q 2956 2369 2687 2733 
Q 2419 3097 1959 3097 
z
M 1959 3584 
Q 2709 3584 3137 3096 
Q 3566 2609 3566 1747 
Q 3566 888 3137 398 
Q 2709 -91 1959 -91 
Q 1206 -91 779 398 
Q 353 888 353 1747 
Q 353 2609 779 3096 
Q 1206 3584 1959 3584 
z
" transform="scale(0.015625)"/>
        <path id="DejaVuSans-74" d="M 1172 4494 
L 1172 3500 
L 2356 3500 
L 2356 3053 
L 1172 3053 
L 1172 1153 
Q 1172 725 1289 603 
Q 1406 481 1766 481 
L 2356 481 
L 2356 0 
L 1766 0 
Q 1100 0 847 248 
Q 594 497 594 1153 
L 594 3053 
L 172 3053 
L 172 3500 
L 594 3500 
L 594 4494 
L 1172 4494 
z
" transform="scale(0.015625)"/>
        <path id="DejaVuSans-65" d="M 3597 1894 
L 3597 1613 
L 953 1613 
Q 991 1019 1311 708 
Q 1631 397 2203 397 
Q 2534 397 2845 478 
Q 3156 559 3463 722 
L 3463 178 
Q 3153 47 2828 -22 
Q 2503 -91 2169 -91 
Q 1331 -91 842 396 
Q 353 884 353 1716 
Q 353 2575 817 3079 
Q 1281 3584 2069 3584 
Q 2775 3584 3186 3129 
Q 3597 2675 3597 1894 
z
M 3022 2063 
Q 3016 2534 2758 2815 
Q 2500 3097 2075 3097 
Q 1594 3097 1305 2825 
Q 1016 2553 972 2059 
L 3022 2063 
z
" transform="scale(0.015625)"/>
        <path id="DejaVuSans-64" d="M 2906 2969 
L 2906 4863 
L 3481 4863 
L 3481 0 
L 2906 0 
L 2906 525 
Q 2725 213 2448 61 
Q 2172 -91 1784 -91 
Q 1150 -91 751 415 
Q 353 922 353 1747 
Q 353 2572 751 3078 
Q 1150 3584 1784 3584 
Q 2172 3584 2448 3432 
Q 2725 3281 2906 2969 
z
M 947 1747 
Q 947 1113 1208 752 
Q 1469 391 1925 391 
Q 2381 391 2643 752 
Q 2906 1113 2906 1747 
Q 2906 2381 2643 2742 
Q 2381 3103 1925 3103 
Q 1469 3103 1208 2742 
Q 947 2381 947 1747 
z
" transform="scale(0.015625)"/>
       </defs>
       <use xlink:href="#DejaVuSans-75"/>
       <use xlink:href="#DejaVuSans-6e" transform="translate(63.378906 0)"/>
       <use xlink:href="#DejaVuSans-61" transform="translate(126.757812 0)"/>
       <use xlink:href="#DejaVuSans-6e" transform="translate(188.037109 0)"/>
       <use xlink:href="#DejaVuSans-6e" transform="translate(251.416016 0)"/>
       <use xlink:href="#DejaVuSans-6f" transform="translate(314.794922 0)"/>
       <use xlink:href="#DejaVuSans-74" transform="translate(375.976562 0)"/>
       <use xlink:href="#DejaVuSans-61" transform="translate(415.185547 0)"/>
       <use xlink:href="#DejaVuSans-74" transform="translate(476.464844 0)"/>
       <use xlink:href="#DejaVuSans-65" transform="translate(515.673828 0)"/>
       <use xlink:href="#DejaVuSans-64" transform="translate(577.197266 0)"/>
      </g>
     </g>
    </g>
    <g id="xtick_2">
     <g id="text_2">
      <!-- annotated -->
      <g transform="translate(282.747031 287.910437) scale(0.1 -0.1)">
       <use xlink:href="#DejaVuSans-61"/>
       <use xlink:href="#DejaVuSans-6e" transform="translate(61.279297 0)"/>
       <use xlink:href="#DejaVuSans-6e" transform="translate(124.658203 0)"/>
       <use xlink:href="#DejaVuSans-6f" transform="translate(188.037109 0)"/>
       <use xlink:href="#DejaVuSans-74" transform="translate(249.21875 0)"/>
       <use xlink:href="#DejaVuSans-61" transform="translate(288.427734 0)"/>
       <use xlink:href="#DejaVuSans-74" transform="translate(349.707031 0)"/>
       <use xlink:href="#DejaVuSans-65" transform="translate(388.916016 0)"/>
       <use xlink:href="#DejaVuSans-64" transform="translate(450.439453 0)"/>
      </g>
     </g>
    </g>
    <g id="text_3">
     <!-- label -->
     <g transform="translate(207.070156 301.588562) scale(0.1 -0.1)">
      <defs>
       <path id="DejaVuSans-6c" d="M 603 4863 
L 1178 4863 
L 1178 0 
L 603 0 
L 603 4863 
z
" transform="scale(0.015625)"/>
       <path id="DejaVuSans-62" d="M 3116 1747 
Q 3116 2381 2855 2742 
Q 2594 3103 2138 3103 
Q 1681 3103 1420 2742 
Q 1159 2381 1159 1747 
Q 1159 1113 1420 752 
Q 1681 391 2138 391 
Q 2594 391 2855 752 
Q 3116 1113 3116 1747 
z
M 1159 2969 
Q 1341 3281 1617 3432 
Q 1894 3584 2278 3584 
Q 2916 3584 3314 3078 
Q 3713 2572 3713 1747 
Q 3713 922 3314 415 
Q 2916 -91 2278 -91 
Q 1894 -91 1617 61 
Q 1341 213 1159 525 
L 1159 0 
L 581 0 
L 581 4863 
L 1159 4863 
L 1159 2969 
z
" transform="scale(0.015625)"/>
      </defs>
      <use xlink:href="#DejaVuSans-6c"/>
      <use xlink:href="#DejaVuSans-61" transform="translate(27.783203 0)"/>
      <use xlink:href="#DejaVuSans-62" transform="translate(89.0625 0)"/>
      <use xlink:href="#DejaVuSans-65" transform="translate(152.539062 0)"/>
      <use xlink:href="#DejaVuSans-6c" transform="translate(214.0625 0)"/>
     </g>
    </g>
   </g>
   <g id="matplotlib.axis_2">
    <g id="ytick_1">
     <g id="line2d_1">
      <defs>
       <path id="m0039bc0831" d="M 0 0 
L -3.5 0 
" style="stroke: #000000; stroke-width: 0.8"/>
      </defs>
      <g>
       <use xlink:href="#m0039bc0831" x="40.603125" y="268.128" style="stroke: #000000; stroke-width: 0.8"/>
      </g>
     </g>
     <g id="text_4">
      <!-- 0 -->
      <g transform="translate(27.240625 271.927219) scale(0.1 -0.1)">
       <defs>
        <path id="DejaVuSans-30" d="M 2034 4250 
Q 1547 4250 1301 3770 
Q 1056 3291 1056 2328 
Q 1056 1369 1301 889 
Q 1547 409 2034 409 
Q 2525 409 2770 889 
Q 3016 1369 3016 2328 
Q 3016 3291 2770 3770 
Q 2525 4250 2034 4250 
z
M 2034 4750 
Q 2819 4750 3233 4129 
Q 3647 3509 3647 2328 
Q 3647 1150 3233 529 
Q 2819 -91 2034 -91 
Q 1250 -91 836 529 
Q 422 1150 422 2328 
Q 422 3509 836 4129 
Q 1250 4750 2034 4750 
z
" transform="scale(0.015625)"/>
       </defs>
       <use xlink:href="#DejaVuSans-30"/>
      </g>
     </g>
    </g>
    <g id="ytick_2">
     <g id="line2d_2">
      <g>
       <use xlink:href="#m0039bc0831" x="40.603125" y="233.568" style="stroke: #000000; stroke-width: 0.8"/>
      </g>
     </g>
     <g id="text_5">
      <!-- 5 -->
      <g transform="translate(27.240625 237.367219) scale(0.1 -0.1)">
       <defs>
        <path id="DejaVuSans-35" d="M 691 4666 
L 3169 4666 
L 3169 4134 
L 1269 4134 
L 1269 2991 
Q 1406 3038 1543 3061 
Q 1681 3084 1819 3084 
Q 2600 3084 3056 2656 
Q 3513 2228 3513 1497 
Q 3513 744 3044 326 
Q 2575 -91 1722 -91 
Q 1428 -91 1123 -41 
Q 819 9 494 109 
L 494 744 
Q 775 591 1075 516 
Q 1375 441 1709 441 
Q 2250 441 2565 725 
Q 2881 1009 2881 1497 
Q 2881 1984 2565 2268 
Q 2250 2553 1709 2553 
Q 1456 2553 1204 2497 
Q 953 2441 691 2322 
L 691 4666 
z
" transform="scale(0.015625)"/>
       </defs>
       <use xlink:href="#DejaVuSans-35"/>
      </g>
     </g>
    </g>
    <g id="ytick_3">
     <g id="line2d_3">
      <g>
       <use xlink:href="#m0039bc0831" x="40.603125" y="199.008" style="stroke: #000000; stroke-width: 0.8"/>
      </g>
     </g>
     <g id="text_6">
      <!-- 10 -->
      <g transform="translate(20.878125 202.807219) scale(0.1 -0.1)">
       <defs>
        <path id="DejaVuSans-31" d="M 794 531 
L 1825 531 
L 1825 4091 
L 703 3866 
L 703 4441 
L 1819 4666 
L 2450 4666 
L 2450 531 
L 3481 531 
L 3481 0 
L 794 0 
L 794 531 
z
" transform="scale(0.015625)"/>
       </defs>
       <use xlink:href="#DejaVuSans-31"/>
       <use xlink:href="#DejaVuSans-30" transform="translate(63.623047 0)"/>
      </g>
     </g>
    </g>
    <g id="ytick_4">
     <g id="line2d_4">
      <g>
       <use xlink:href="#m0039bc0831" x="40.603125" y="164.448" style="stroke: #000000; stroke-width: 0.8"/>
      </g>
     </g>
     <g id="text_7">
      <!-- 15 -->
      <g transform="translate(20.878125 168.247219) scale(0.1 -0.1)">
       <use xlink:href="#DejaVuSans-31"/>
       <use xlink:href="#DejaVuSans-35" transform="translate(63.623047 0)"/>
      </g>
     </g>
    </g>
    <g id="ytick_5">
     <g id="line2d_5">
      <g>
       <use xlink:href="#m0039bc0831" x="40.603125" y="129.888" style="stroke: #000000; stroke-width: 0.8"/>
      </g>
     </g>
     <g id="text_8">
      <!-- 20 -->
      <g transform="translate(20.878125 133.687219) scale(0.1 -0.1)">
       <defs>
        <path id="DejaVuSans-32" d="M 1228 531 
L 3431 531 
L 3431 0 
L 469 0 
L 469 531 
Q 828 903 1448 1529 
Q 2069 2156 2228 2338 
Q 2531 2678 2651 2914 
Q 2772 3150 2772 3378 
Q 2772 3750 2511 3984 
Q 2250 4219 1831 4219 
Q 1534 4219 1204 4116 
Q 875 4013 500 3803 
L 500 4441 
Q 881 4594 1212 4672 
Q 1544 4750 1819 4750 
Q 2544 4750 2975 4387 
Q 3406 4025 3406 3419 
Q 3406 3131 3298 2873 
Q 3191 2616 2906 2266 
Q 2828 2175 2409 1742 
Q 1991 1309 1228 531 
z
" transform="scale(0.015625)"/>
       </defs>
       <use xlink:href="#DejaVuSans-32"/>
       <use xlink:href="#DejaVuSans-30" transform="translate(63.623047 0)"/>
      </g>
     </g>
    </g>
    <g id="ytick_6">
     <g id="line2d_6">
      <g>
       <use xlink:href="#m0039bc0831" x="40.603125" y="95.328" style="stroke: #000000; stroke-width: 0.8"/>
      </g>
     </g>
     <g id="text_9">
      <!-- 25 -->
      <g transform="translate(20.878125 99.127219) scale(0.1 -0.1)">
       <use xlink:href="#DejaVuSans-32"/>
       <use xlink:href="#DejaVuSans-35" transform="translate(63.623047 0)"/>
      </g>
     </g>
    </g>
    <g id="ytick_7">
     <g id="line2d_7">
      <g>
       <use xlink:href="#m0039bc0831" x="40.603125" y="60.768" style="stroke: #000000; stroke-width: 0.8"/>
      </g>
     </g>
     <g id="text_10">
      <!-- 30 -->
      <g transform="translate(20.878125 64.567219) scale(0.1 -0.1)">
       <defs>
        <path id="DejaVuSans-33" d="M 2597 2516 
Q 3050 2419 3304 2112 
Q 3559 1806 3559 1356 
Q 3559 666 3084 287 
Q 2609 -91 1734 -91 
Q 1441 -91 1130 -33 
Q 819 25 488 141 
L 488 750 
Q 750 597 1062 519 
Q 1375 441 1716 441 
Q 2309 441 2620 675 
Q 2931 909 2931 1356 
Q 2931 1769 2642 2001 
Q 2353 2234 1838 2234 
L 1294 2234 
L 1294 2753 
L 1863 2753 
Q 2328 2753 2575 2939 
Q 2822 3125 2822 3475 
Q 2822 3834 2567 4026 
Q 2313 4219 1838 4219 
Q 1578 4219 1281 4162 
Q 984 4106 628 3988 
L 628 4550 
Q 988 4650 1302 4700 
Q 1616 4750 1894 4750 
Q 2613 4750 3031 4423 
Q 3450 4097 3450 3541 
Q 3450 3153 3228 2886 
Q 3006 2619 2597 2516 
z
" transform="scale(0.015625)"/>
       </defs>
       <use xlink:href="#DejaVuSans-33"/>
       <use xlink:href="#DejaVuSans-30" transform="translate(63.623047 0)"/>
      </g>
     </g>
    </g>
    <g id="ytick_8">
     <g id="line2d_8">
      <g>
       <use xlink:href="#m0039bc0831" x="40.603125" y="26.208" style="stroke: #000000; stroke-width: 0.8"/>
      </g>
     </g>
     <g id="text_11">
      <!-- 35 -->
      <g transform="translate(20.878125 30.007219) scale(0.1 -0.1)">
       <use xlink:href="#DejaVuSans-33"/>
       <use xlink:href="#DejaVuSans-35" transform="translate(63.623047 0)"/>
      </g>
     </g>
    </g>
    <g id="text_12">
     <!-- Cluster size -->
     <g transform="translate(14.798438 169.285687) rotate(-90) scale(0.1 -0.1)">
      <defs>
       <path id="DejaVuSans-43" d="M 4122 4306 
L 4122 3641 
Q 3803 3938 3442 4084 
Q 3081 4231 2675 4231 
Q 1875 4231 1450 3742 
Q 1025 3253 1025 2328 
Q 1025 1406 1450 917 
Q 1875 428 2675 428 
Q 3081 428 3442 575 
Q 3803 722 4122 1019 
L 4122 359 
Q 3791 134 3420 21 
Q 3050 -91 2638 -91 
Q 1578 -91 968 557 
Q 359 1206 359 2328 
Q 359 3453 968 4101 
Q 1578 4750 2638 4750 
Q 3056 4750 3426 4639 
Q 3797 4528 4122 4306 
z
" transform="scale(0.015625)"/>
       <path id="DejaVuSans-73" d="M 2834 3397 
L 2834 2853 
Q 2591 2978 2328 3040 
Q 2066 3103 1784 3103 
Q 1356 3103 1142 2972 
Q 928 2841 928 2578 
Q 928 2378 1081 2264 
Q 1234 2150 1697 2047 
L 1894 2003 
Q 2506 1872 2764 1633 
Q 3022 1394 3022 966 
Q 3022 478 2636 193 
Q 2250 -91 1575 -91 
Q 1294 -91 989 -36 
Q 684 19 347 128 
L 347 722 
Q 666 556 975 473 
Q 1284 391 1588 391 
Q 1994 391 2212 530 
Q 2431 669 2431 922 
Q 2431 1156 2273 1281 
Q 2116 1406 1581 1522 
L 1381 1569 
Q 847 1681 609 1914 
Q 372 2147 372 2553 
Q 372 3047 722 3315 
Q 1072 3584 1716 3584 
Q 2034 3584 2315 3537 
Q 2597 3491 2834 3397 
z
" transform="scale(0.015625)"/>
       <path id="DejaVuSans-72" d="M 2631 2963 
Q 2534 3019 2420 3045 
Q 2306 3072 2169 3072 
Q 1681 3072 1420 2755 
Q 1159 2438 1159 1844 
L 1159 0 
L 581 0 
L 581 3500 
L 1159 3500 
L 1159 2956 
Q 1341 3275 1631 3429 
Q 1922 3584 2338 3584 
Q 2397 3584 2469 3576 
Q 2541 3569 2628 3553 
L 2631 2963 
z
" transform="scale(0.015625)"/>
       <path id="DejaVuSans-20" transform="scale(0.015625)"/>
       <path id="DejaVuSans-69" d="M 603 3500 
L 1178 3500 
L 1178 0 
L 603 0 
L 603 3500 
z
M 603 4863 
L 1178 4863 
L 1178 4134 
L 603 4134 
L 603 4863 
z
" transform="scale(0.015625)"/>
       <path id="DejaVuSans-7a" d="M 353 3500 
L 3084 3500 
L 3084 2975 
L 922 459 
L 3084 459 
L 3084 0 
L 275 0 
L 275 525 
L 2438 3041 
L 353 3041 
L 353 3500 
z
" transform="scale(0.015625)"/>
      </defs>
      <use xlink:href="#DejaVuSans-43"/>
      <use xlink:href="#DejaVuSans-6c" transform="translate(69.824219 0)"/>
      <use xlink:href="#DejaVuSans-75" transform="translate(97.607422 0)"/>
      <use xlink:href="#DejaVuSans-73" transform="translate(160.986328 0)"/>
      <use xlink:href="#DejaVuSans-74" transform="translate(213.085938 0)"/>
      <use xlink:href="#DejaVuSans-65" transform="translate(252.294922 0)"/>
      <use xlink:href="#DejaVuSans-72" transform="translate(313.818359 0)"/>
      <use xlink:href="#DejaVuSans-20" transform="translate(354.931641 0)"/>
      <use xlink:href="#DejaVuSans-73" transform="translate(386.71875 0)"/>
      <use xlink:href="#DejaVuSans-69" transform="translate(438.818359 0)"/>
      <use xlink:href="#DejaVuSans-7a" transform="translate(466.601562 0)"/>
      <use xlink:href="#DejaVuSans-65" transform="translate(519.091797 0)"/>
     </g>
    </g>
   </g>
   <g id="line2d_9">
    <path d="M 129.883125 261.216 
L 129.883125 247.392 
" clip-path="url(#pd968f23a9f)" style="fill: none; stroke: #b2b2b2; stroke-width: 1.875; stroke-linecap: square"/>
   </g>
   <g id="line2d_10">
    <path d="M 129.883125 261.216 
L 129.883125 254.304 
" clip-path="url(#pd968f23a9f)" style="fill: none; stroke: #b2b2b2; stroke-width: 5.625; stroke-linecap: square"/>
   </g>
   <g id="line2d_11">
    <path d="M 129.883125 261.216 
" clip-path="url(#pd968f23a9f)" style="fill: none; stroke: #191919; stroke-width: 1.5; stroke-linecap: square"/>
    <defs>
     <path id="m4b992ba175" d="M 2.34375 0 
L -2.34375 -0 
" style="stroke: #ffffff; stroke-width: 1.125"/>
    </defs>
    <g clip-path="url(#pd968f23a9f)">
     <use xlink:href="#m4b992ba175" x="129.883125" y="261.216" style="fill: #ffffff; stroke: #ffffff; stroke-width: 1.125"/>
    </g>
   </g>
   <g id="line2d_12">
    <path d="M 308.443125 261.216 
L 308.443125 226.656 
" clip-path="url(#pd968f23a9f)" style="fill: none; stroke: #b2b2b2; stroke-width: 1.875; stroke-linecap: square"/>
   </g>
   <g id="line2d_13">
    <path d="M 308.443125 261.216 
L 308.443125 247.392 
" clip-path="url(#pd968f23a9f)" style="fill: none; stroke: #b2b2b2; stroke-width: 5.625; stroke-linecap: square"/>
   </g>
   <g id="line2d_14">
    <path d="M 308.443125 261.216 
" clip-path="url(#pd968f23a9f)" style="fill: none; stroke: #191919; stroke-width: 1.5; stroke-linecap: square"/>
    <g clip-path="url(#pd968f23a9f)">
     <use xlink:href="#m4b992ba175" x="308.443125" y="261.216" style="fill: #ffffff; stroke: #ffffff; stroke-width: 1.125"/>
    </g>
   </g>
   <g id="patch_3">
    <path d="M 40.603125 273.312 
L 40.603125 7.2 
" style="fill: none; stroke: #000000; stroke-width: 0.8; stroke-linejoin: miter; stroke-linecap: square"/>
   </g>
  </g>
 </g>
 <defs>
  <clipPath id="pd968f23a9f">
   <rect x="40.603125" y="7.2" width="357.12" height="266.112"/>
  </clipPath>
 </defs>
</svg>
