<?xml version="1.0" encoding="utf-8" standalone="no"?>
<!DOCTYPE svg PUBLIC "-//W3C//DTD SVG 1.1//EN"
  "http://www.w3.org/Graphics/SVG/1.1/DTD/svg11.dtd">
<svg xmlns:xlink="http://www.w3.org/1999/xlink" width="411.285625pt" height="310.86825pt" viewBox="0 0 411.285625 310.86825" xmlns="http://www.w3.org/2000/svg" version="1.1">
 <metadata>
  <rdf:RDF xmlns:dc="http://purl.org/dc/elements/1.1/" xmlns:cc="http://creativecommons.org/ns#" xmlns:rdf="http://www.w3.org/1999/02/22-rdf-syntax-ns#">
   <cc:Work>
    <dc:type rdf:resource="http://purl.org/dc/dcmitype/StillImage"/>
    <dc:date>2025-07-17T21:54:14.549882</dc:date>
    <dc:format>image/svg+xml</dc:format>
    <dc:creator>
     <cc:Agent>
      <dc:title>Matplotlib v3.10.3, https://matplotlib.org/</dc:title>
     </cc:Agent>
    </dc:creator>
   </cc:Work>
  </rdf:RDF>
 </metadata>
 <defs>
  <style type="text/css">*{stroke-linejoin: round; stroke-linecap: butt}</style>
 </defs>
 <g id="figure_1">
  <g id="patch_1">
   <path d="M 0 310.86825 
L 411.285625 310.86825 
L 411.285625 0 
L 0 0 
L 0 310.86825 
z
" style="fill: none"/>
  </g>
  <g id="axes_1">
   <g id="patch_2">
    <path d="M 46.965625 273.312 
L 404.085625 273.312 
L 404.085625 7.2 
L 46.965625 7.2 
L 46.965625 273.312 
z
" style="fill: none"/>
   </g>
   <g id="FillBetweenPolyCollection_1">
    <defs>
     <path id="m88a1d46c09" d="M 182.296091 -49.65225 
L 90.195159 -49.65225 
L 77.701088 -52.073079 
L 68.882858 -54.493908 
L 64.821625 -56.914737 
L 65.098763 -59.335566 
L 68.436844 -61.756395 
L 73.49332 -64.177225 
L 79.280319 -66.598054 
L 85.185368 -69.018883 
L 90.845902 -71.439712 
L 96.058662 -73.860541 
L 100.736764 -76.28137 
L 104.866133 -78.702199 
L 108.452858 -81.123028 
L 111.497885 -83.543857 
L 114.023534 -85.964686 
L 116.11855 -88.385515 
L 117.934516 -90.806345 
L 119.612099 -93.227174 
L 121.19951 -95.648003 
L 122.64347 -98.068832 
L 123.858321 -100.489661 
L 124.803911 -102.91049 
L 125.511834 -105.331319 
L 126.062597 -107.752148 
L 126.550955 -110.172977 
L 127.060372 -112.593806 
L 127.643808 -115.014635 
L 128.309616 -117.435465 
L 129.022592 -119.856294 
L 129.724895 -122.277123 
L 130.36369 -124.697952 
L 130.906993 -127.118781 
L 131.343753 -129.53961 
L 131.679699 -131.960439 
L 131.938087 -134.381268 
L 132.159462 -136.802097 
L 132.388808 -139.222926 
L 132.652018 -141.643755 
L 132.940653 -144.064585 
L 133.221385 -146.485414 
L 133.463242 -148.906243 
L 133.657705 -151.327072 
L 133.815793 -153.747901 
L 133.951775 -156.16873 
L 134.074013 -158.589559 
L 134.188934 -161.010388 
L 134.30623 -163.431217 
L 134.434427 -165.852046 
L 134.570824 -168.272875 
L 134.697716 -170.693705 
L 134.790277 -173.114534 
L 134.830586 -175.535363 
L 134.818175 -177.956192 
L 134.770801 -180.377021 
L 134.715494 -182.79785 
L 134.675828 -185.218679 
L 134.663658 -187.639508 
L 134.679927 -190.060337 
L 134.721852 -192.481166 
L 134.788949 -194.901995 
L 134.88234 -197.322825 
L 134.998562 -199.743654 
L 135.124738 -202.164483 
L 135.240975 -204.585312 
L 135.328821 -207.006141 
L 135.379053 -209.42697 
L 135.393868 -211.847799 
L 135.384236 -214.268628 
L 135.365461 -216.689457 
L 135.352363 -219.110286 
L 135.35475 -221.531115 
L 135.375371 -223.951945 
L 135.411989 -226.372774 
L 135.461142 -228.793603 
L 135.519187 -231.214432 
L 135.580531 -233.635261 
L 135.637438 -236.05609 
L 135.683109 -238.476919 
L 135.714271 -240.897748 
L 135.730787 -243.318577 
L 135.735027 -245.739406 
L 135.733194 -248.160235 
L 135.735367 -250.581065 
L 135.750775 -253.001894 
L 135.781194 -255.422723 
L 135.819156 -257.843552 
L 135.853376 -260.264381 
L 135.87674 -262.68521 
L 135.890214 -265.106039 
L 135.900414 -267.526868 
L 135.914087 -269.947697 
L 135.934252 -272.368526 
L 135.95998 -274.789355 
L 135.988541 -277.210185 
L 136.017687 -279.631014 
L 136.046857 -282.051843 
L 136.076978 -284.472672 
L 136.109058 -286.893501 
L 136.142505 -289.31433 
L 136.348745 -289.31433 
L 136.348745 -289.31433 
L 136.382192 -286.893501 
L 136.414272 -284.472672 
L 136.444393 -282.051843 
L 136.473563 -279.631014 
L 136.502709 -277.210185 
L 136.53127 -274.789355 
L 136.556998 -272.368526 
L 136.577163 -269.947697 
L 136.590836 -267.526868 
L 136.601036 -265.106039 
L 136.61451 -262.68521 
L 136.637874 -260.264381 
L 136.672094 -257.843552 
L 136.710056 -255.422723 
L 136.740475 -253.001894 
L 136.755883 -250.581065 
L 136.758056 -248.160235 
L 136.756223 -245.739406 
L 136.760463 -243.318577 
L 136.776979 -240.897748 
L 136.808141 -238.476919 
L 136.853812 -236.05609 
L 136.910719 -233.635261 
L 136.972063 -231.214432 
L 137.030108 -228.793603 
L 137.079261 -226.372774 
L 137.115879 -223.951945 
L 137.1365 -221.531115 
L 137.138887 -219.110286 
L 137.125789 -216.689457 
L 137.107014 -214.268628 
L 137.097382 -211.847799 
L 137.112197 -209.42697 
L 137.162429 -207.006141 
L 137.250275 -204.585312 
L 137.366512 -202.164483 
L 137.492688 -199.743654 
L 137.60891 -197.322825 
L 137.702301 -194.901995 
L 137.769398 -192.481166 
L 137.811323 -190.060337 
L 137.827592 -187.639508 
L 137.815422 -185.218679 
L 137.775756 -182.79785 
L 137.720449 -180.377021 
L 137.673075 -177.956192 
L 137.660664 -175.535363 
L 137.700973 -173.114534 
L 137.793534 -170.693705 
L 137.920426 -168.272875 
L 138.056823 -165.852046 
L 138.18502 -163.431217 
L 138.302316 -161.010388 
L 138.417237 -158.589559 
L 138.539475 -156.16873 
L 138.675457 -153.747901 
L 138.833545 -151.327072 
L 139.028008 -148.906243 
L 139.269865 -146.485414 
L 139.550597 -144.064585 
L 139.839232 -141.643755 
L 140.102442 -139.222926 
L 140.331788 -136.802097 
L 140.553163 -134.381268 
L 140.811551 -131.960439 
L 141.147497 -129.53961 
L 141.584257 -127.118781 
L 142.12756 -124.697952 
L 142.766355 -122.277123 
L 143.468658 -119.856294 
L 144.181634 -117.435465 
L 144.847442 -115.014635 
L 145.430878 -112.593806 
L 145.940295 -110.172977 
L 146.428653 -107.752148 
L 146.979416 -105.331319 
L 147.687339 -102.91049 
L 148.632929 -100.489661 
L 149.84778 -98.068832 
L 151.29174 -95.648003 
L 152.879151 -93.227174 
L 154.556734 -90.806345 
L 156.3727 -88.385515 
L 158.467716 -85.964686 
L 160.993365 -83.543857 
L 164.038392 -81.123028 
L 167.625117 -78.702199 
L 171.754486 -76.28137 
L 176.432588 -73.860541 
L 181.645348 -71.439712 
L 187.305882 -69.018883 
L 193.210931 -66.598054 
L 198.99793 -64.177225 
L 204.054406 -61.756395 
L 207.392487 -59.335566 
L 207.669625 -56.914737 
L 203.608392 -54.493908 
L 194.790162 -52.073079 
L 182.296091 -49.65225 
z
" style="stroke: #191919; stroke-opacity: 0.75; stroke-width: 1.25"/>
    </defs>
    <g clip-path="url(#pdf82b12cb8)">
     <use xlink:href="#m88a1d46c09" x="0" y="310.86825" style="fill: #377182; fill-opacity: 0.75; stroke: #191919; stroke-opacity: 0.75; stroke-width: 1.25"/>
    </g>
   </g>
   <g id="FillBetweenPolyCollection_2">
    <defs>
     <path id="m4888171e0e" d="M 355.399368 -49.65225 
L 274.211882 -49.65225 
L 267.262634 -52.095886 
L 260.68476 -54.539523 
L 254.83706 -56.983159 
L 250.023715 -59.426795 
L 246.459582 -61.870432 
L 244.24911 -64.314068 
L 243.381625 -66.757705 
L 243.74236 -69.201341 
L 245.135844 -71.644977 
L 247.316627 -74.088614 
L 250.021939 -76.53225 
L 253.001593 -78.975886 
L 256.041695 -81.419523 
L 258.980173 -83.863159 
L 261.713402 -86.306795 
L 264.194293 -88.750432 
L 266.423112 -91.194068 
L 268.433174 -93.637705 
L 270.274297 -96.081341 
L 271.997285 -98.524977 
L 273.642501 -100.968614 
L 275.234508 -103.41225 
L 276.783093 -105.855886 
L 278.289078 -108.299523 
L 279.75194 -110.743159 
L 281.175912 -113.186795 
L 282.572173 -115.630432 
L 283.956442 -118.074068 
L 285.343312 -120.517705 
L 286.739902 -122.961341 
L 288.141631 -125.404977 
L 289.531939 -127.848614 
L 290.886126 -130.29225 
L 292.177889 -132.735886 
L 293.386199 -135.179523 
L 294.500158 -137.623159 
L 295.520384 -140.066795 
L 296.456766 -142.510432 
L 297.323606 -144.954068 
L 298.133909 -147.397705 
L 298.89459 -149.841341 
L 299.603928 -152.284977 
L 300.2518 -154.728614 
L 300.822453 -157.17225 
L 301.29901 -159.615886 
L 301.668547 -162.059523 
L 301.926536 -164.503159 
L 302.079637 -166.946795 
L 302.146198 -169.390432 
L 302.15432 -171.834068 
L 302.137941 -174.277705 
L 302.131838 -176.721341 
L 302.166712 -179.164977 
L 302.265461 -181.608614 
L 302.441362 -184.05225 
L 302.698273 -186.495886 
L 303.032421 -188.939523 
L 303.434907 -191.383159 
L 303.894019 -193.826795 
L 304.396717 -196.270432 
L 304.92913 -198.714068 
L 305.476377 -201.157705 
L 306.022313 -203.601341 
L 306.549802 -206.044977 
L 307.041788 -208.488614 
L 307.483058 -210.93225 
L 307.862164 -213.375886 
L 308.172834 -215.819523 
L 308.414342 -218.263159 
L 308.590629 -220.706795 
L 308.708479 -223.150432 
L 308.775401 -225.594068 
L 308.797987 -228.037705 
L 308.781339 -230.481341 
L 308.729762 -232.924977 
L 308.648338 -235.368614 
L 308.544659 -237.81225 
L 308.429824 -240.255886 
L 308.318063 -242.699523 
L 308.224865 -245.143159 
L 308.164089 -247.586795 
L 308.145013 -250.030432 
L 308.170368 -252.474068 
L 308.236113 -254.917705 
L 308.333116 -257.361341 
L 308.450223 -259.804977 
L 308.577771 -262.248614 
L 308.710481 -264.69225 
L 308.848947 -267.135886 
L 308.999466 -269.579523 
L 309.172416 -272.023159 
L 309.379771 -274.466795 
L 309.632391 -276.910432 
L 309.937631 -279.354068 
L 310.297629 -281.797705 
L 310.708453 -284.241341 
L 311.160154 -286.684977 
L 311.6377 -289.128614 
L 312.122692 -291.57225 
L 317.488558 -291.57225 
L 317.488558 -291.57225 
L 317.97355 -289.128614 
L 318.451096 -286.684977 
L 318.902797 -284.241341 
L 319.313621 -281.797705 
L 319.673619 -279.354068 
L 319.978859 -276.910432 
L 320.231479 -274.466795 
L 320.438834 -272.023159 
L 320.611784 -269.579523 
L 320.762303 -267.135886 
L 320.900769 -264.69225 
L 321.033479 -262.248614 
L 321.161027 -259.804977 
L 321.278134 -257.361341 
L 321.375137 -254.917705 
L 321.440882 -252.474068 
L 321.466237 -250.030432 
L 321.447161 -247.586795 
L 321.386385 -245.143159 
L 321.293187 -242.699523 
L 321.181426 -240.255886 
L 321.066591 -237.81225 
L 320.962912 -235.368614 
L 320.881488 -232.924977 
L 320.829911 -230.481341 
L 320.813263 -228.037705 
L 320.835849 -225.594068 
L 320.902771 -223.150432 
L 321.020621 -220.706795 
L 321.196908 -218.263159 
L 321.438416 -215.819523 
L 321.749086 -213.375886 
L 322.128192 -210.93225 
L 322.569462 -208.488614 
L 323.061448 -206.044977 
L 323.588937 -203.601341 
L 324.134873 -201.157705 
L 324.68212 -198.714068 
L 325.214533 -196.270432 
L 325.717231 -193.826795 
L 326.176343 -191.383159 
L 326.578829 -188.939523 
L 326.912977 -186.495886 
L 327.169888 -184.05225 
L 327.345789 -181.608614 
L 327.444538 -179.164977 
L 327.479412 -176.721341 
L 327.473309 -174.277705 
L 327.45693 -171.834068 
L 327.465052 -169.390432 
L 327.531613 -166.946795 
L 327.684714 -164.503159 
L 327.942703 -162.059523 
L 328.31224 -159.615886 
L 328.788797 -157.17225 
L 329.35945 -154.728614 
L 330.007322 -152.284977 
L 330.71666 -149.841341 
L 331.477341 -147.397705 
L 332.287644 -144.954068 
L 333.154484 -142.510432 
L 334.090866 -140.066795 
L 335.111092 -137.623159 
L 336.225051 -135.179523 
L 337.433361 -132.735886 
L 338.725124 -130.29225 
L 340.079311 -127.848614 
L 341.469619 -125.404977 
L 342.871348 -122.961341 
L 344.267938 -120.517705 
L 345.654808 -118.074068 
L 347.039077 -115.630432 
L 348.435338 -113.186795 
L 349.85931 -110.743159 
L 351.322172 -108.299523 
L 352.828157 -105.855886 
L 354.376742 -103.41225 
L 355.968749 -100.968614 
L 357.613965 -98.524977 
L 359.336953 -96.081341 
L 361.178076 -93.637705 
L 363.188138 -91.194068 
L 365.416957 -88.750432 
L 367.897848 -86.306795 
L 370.631077 -83.863159 
L 373.569555 -81.419523 
L 376.609657 -78.975886 
L 379.589311 -76.53225 
L 382.294623 -74.088614 
L 384.475406 -71.644977 
L 385.86889 -69.201341 
L 386.229625 -66.757705 
L 385.36214 -64.314068 
L 383.151668 -61.870432 
L 379.587535 -59.426795 
L 374.77419 -56.983159 
L 368.92649 -54.539523 
L 362.348616 -52.095886 
L 355.399368 -49.65225 
z
" style="stroke: #191919; stroke-opacity: 0.75; stroke-width: 1.25"/>
    </defs>
    <g clip-path="url(#pdf82b12cb8)">
     <use xlink:href="#m4888171e0e" x="0" y="310.86825" style="fill: #3e0b4a; fill-opacity: 0.75; stroke: #191919; stroke-opacity: 0.75; stroke-width: 1.25"/>
    </g>
   </g>
   <g id="matplotlib.axis_1">
    <g id="xtick_1">
     <g id="text_1">
      <!-- unannotated -->
      <g transform="translate(104.212031 287.910437) scale(0.1 -0.1)">
       <defs>
        <path id="DejaVuSans-75" d="M 544 1381 
L 544 3500 
L 1119 3500 
L 1119 1403 
Q 1119 906 1312 657 
Q 1506 409 1894 409 
Q 2359 409 2629 706 
Q 2900 1003 2900 1516 
L 2900 3500 
L 3475 3500 
L 3475 0 
L 2900 0 
L 2900 538 
Q 2691 219 2414 64 
Q 2138 -91 1772 -91 
Q 1169 -91 856 284 
Q 544 659 544 1381 
z
M 1991 3584 
L 1991 3584 
z
" transform="scale(0.015625)"/>
        <path id="DejaVuSans-6e" d="M 3513 2113 
L 3513 0 
L 2938 0 
L 2938 2094 
Q 2938 2591 2744 2837 
Q 2550 3084 2163 3084 
Q 1697 3084 1428 2787 
Q 1159 2491 1159 1978 
L 1159 0 
L 581 0 
L 581 3500 
L 1159 3500 
L 1159 2956 
Q 1366 3272 1645 3428 
Q 1925 3584 2291 3584 
Q 2894 3584 3203 3211 
Q 3513 2838 3513 2113 
z
" transform="scale(0.015625)"/>
        <path id="DejaVuSans-61" d="M 2194 1759 
Q 1497 1759 1228 1600 
Q 959 1441 959 1056 
Q 959 750 1161 570 
Q 1363 391 1709 391 
Q 2188 391 2477 730 
Q 2766 1069 2766 1631 
L 2766 1759 
L 2194 1759 
z
M 3341 1997 
L 3341 0 
L 2766 0 
L 2766 531 
Q 2569 213 2275 61 
Q 1981 -91 1556 -91 
Q 1019 -91 701 211 
Q 384 513 384 1019 
Q 384 1609 779 1909 
Q 1175 2209 1959 2209 
L 2766 2209 
L 2766 2266 
Q 2766 2663 2505 2880 
Q 2244 3097 1772 3097 
Q 1472 3097 1187 3025 
Q 903 2953 641 2809 
L 641 3341 
Q 956 3463 1253 3523 
Q 1550 3584 1831 3584 
Q 2591 3584 2966 3190 
Q 3341 2797 3341 1997 
z
" transform="scale(0.015625)"/>
        <path id="DejaVuSans-6f" d="M 1959 3097 
Q 1497 3097 1228 2736 
Q 959 2375 959 1747 
Q 959 1119 1226 758 
Q 1494 397 1959 397 
Q 2419 397 2687 759 
Q 2956 1122 2956 1747 
Q 2956 2369 2687 2733 
Q 2419 3097 1959 3097 
z
M 1959 3584 
Q 2709 3584 3137 3096 
Q 3566 2609 3566 1747 
Q 3566 888 3137 398 
Q 2709 -91 1959 -91 
Q 1206 -91 779 398 
Q 353 888 353 1747 
Q 353 2609 779 3096 
Q 1206 3584 1959 3584 
z
" transform="scale(0.015625)"/>
        <path id="DejaVuSans-74" d="M 1172 4494 
L 1172 3500 
L 2356 3500 
L 2356 3053 
L 1172 3053 
L 1172 1153 
Q 1172 725 1289 603 
Q 1406 481 1766 481 
L 2356 481 
L 2356 0 
L 1766 0 
Q 1100 0 847 248 
Q 594 497 594 1153 
L 594 3053 
L 172 3053 
L 172 3500 
L 594 3500 
L 594 4494 
L 1172 4494 
z
" transform="scale(0.015625)"/>
        <path id="DejaVuSans-65" d="M 3597 1894 
L 3597 1613 
L 953 1613 
Q 991 1019 1311 708 
Q 1631 397 2203 397 
Q 2534 397 2845 478 
Q 3156 559 3463 722 
L 3463 178 
Q 3153 47 2828 -22 
Q 2503 -91 2169 -91 
Q 1331 -91 842 396 
Q 353 884 353 1716 
Q 353 2575 817 3079 
Q 1281 3584 2069 3584 
Q 2775 3584 3186 3129 
Q 3597 2675 3597 1894 
z
M 3022 2063 
Q 3016 2534 2758 2815 
Q 2500 3097 2075 3097 
Q 1594 3097 1305 2825 
Q 1016 2553 972 2059 
L 3022 2063 
z
" transform="scale(0.015625)"/>
        <path id="DejaVuSans-64" d="M 2906 2969 
L 2906 4863 
L 3481 4863 
L 3481 0 
L 2906 0 
L 2906 525 
Q 2725 213 2448 61 
Q 2172 -91 1784 -91 
Q 1150 -91 751 415 
Q 353 922 353 1747 
Q 353 2572 751 3078 
Q 1150 3584 1784 3584 
Q 2172 3584 2448 3432 
Q 2725 3281 2906 2969 
z
M 947 1747 
Q 947 1113 1208 752 
Q 1469 391 1925 391 
Q 2381 391 2643 752 
Q 2906 1113 2906 1747 
Q 2906 2381 2643 2742 
Q 2381 3103 1925 3103 
Q 1469 3103 1208 2742 
Q 947 2381 947 1747 
z
" transform="scale(0.015625)"/>
       </defs>
       <use xlink:href="#DejaVuSans-75"/>
       <use xlink:href="#DejaVuSans-6e" transform="translate(63.378906 0)"/>
       <use xlink:href="#DejaVuSans-61" transform="translate(126.757812 0)"/>
       <use xlink:href="#DejaVuSans-6e" transform="translate(188.037109 0)"/>
       <use xlink:href="#DejaVuSans-6e" transform="translate(251.416016 0)"/>
       <use xlink:href="#DejaVuSans-6f" transform="translate(314.794922 0)"/>
       <use xlink:href="#DejaVuSans-74" transform="translate(375.976562 0)"/>
       <use xlink:href="#DejaVuSans-61" transform="translate(415.185547 0)"/>
       <use xlink:href="#DejaVuSans-74" transform="translate(476.464844 0)"/>
       <use xlink:href="#DejaVuSans-65" transform="translate(515.673828 0)"/>
       <use xlink:href="#DejaVuSans-64" transform="translate(577.197266 0)"/>
      </g>
     </g>
    </g>
    <g id="xtick_2">
     <g id="text_2">
      <!-- annotated -->
      <g transform="translate(289.109531 287.910437) scale(0.1 -0.1)">
       <use xlink:href="#DejaVuSans-61"/>
       <use xlink:href="#DejaVuSans-6e" transform="translate(61.279297 0)"/>
       <use xlink:href="#DejaVuSans-6e" transform="translate(124.658203 0)"/>
       <use xlink:href="#DejaVuSans-6f" transform="translate(188.037109 0)"/>
       <use xlink:href="#DejaVuSans-74" transform="translate(249.21875 0)"/>
       <use xlink:href="#DejaVuSans-61" transform="translate(288.427734 0)"/>
       <use xlink:href="#DejaVuSans-74" transform="translate(349.707031 0)"/>
       <use xlink:href="#DejaVuSans-65" transform="translate(388.916016 0)"/>
       <use xlink:href="#DejaVuSans-64" transform="translate(450.439453 0)"/>
      </g>
     </g>
    </g>
    <g id="text_3">
     <!-- label -->
     <g transform="translate(213.432656 301.588562) scale(0.1 -0.1)">
      <defs>
       <path id="DejaVuSans-6c" d="M 603 4863 
L 1178 4863 
L 1178 0 
L 603 0 
L 603 4863 
z
" transform="scale(0.015625)"/>
       <path id="DejaVuSans-62" d="M 3116 1747 
Q 3116 2381 2855 2742 
Q 2594 3103 2138 3103 
Q 1681 3103 1420 2742 
Q 1159 2381 1159 1747 
Q 1159 1113 1420 752 
Q 1681 391 2138 391 
Q 2594 391 2855 752 
Q 3116 1113 3116 1747 
z
M 1159 2969 
Q 1341 3281 1617 3432 
Q 1894 3584 2278 3584 
Q 2916 3584 3314 3078 
Q 3713 2572 3713 1747 
Q 3713 922 3314 415 
Q 2916 -91 2278 -91 
Q 1894 -91 1617 61 
Q 1341 213 1159 525 
L 1159 0 
L 581 0 
L 581 4863 
L 1159 4863 
L 1159 2969 
z
" transform="scale(0.015625)"/>
      </defs>
      <use xlink:href="#DejaVuSans-6c"/>
      <use xlink:href="#DejaVuSans-61" transform="translate(27.783203 0)"/>
      <use xlink:href="#DejaVuSans-62" transform="translate(89.0625 0)"/>
      <use xlink:href="#DejaVuSans-65" transform="translate(152.539062 0)"/>
      <use xlink:href="#DejaVuSans-6c" transform="translate(214.0625 0)"/>
     </g>
    </g>
   </g>
   <g id="matplotlib.axis_2">
    <g id="ytick_1">
     <g id="line2d_1">
      <defs>
       <path id="mc13db4c6fc" d="M 0 0 
L -3.5 0 
" style="stroke: #000000; stroke-width: 0.8"/>
      </defs>
      <g>
       <use xlink:href="#mc13db4c6fc" x="46.965625" y="261.216" style="stroke: #000000; stroke-width: 0.8"/>
      </g>
     </g>
     <g id="text_4">
      <!-- 100 -->
      <g transform="translate(20.878125 265.015219) scale(0.1 -0.1)">
       <defs>
        <path id="DejaVuSans-31" d="M 794 531 
L 1825 531 
L 1825 4091 
L 703 3866 
L 703 4441 
L 1819 4666 
L 2450 4666 
L 2450 531 
L 3481 531 
L 3481 0 
L 794 0 
L 794 531 
z
" transform="scale(0.015625)"/>
        <path id="DejaVuSans-30" d="M 2034 4250 
Q 1547 4250 1301 3770 
Q 1056 3291 1056 2328 
Q 1056 1369 1301 889 
Q 1547 409 2034 409 
Q 2525 409 2770 889 
Q 3016 1369 3016 2328 
Q 3016 3291 2770 3770 
Q 2525 4250 2034 4250 
z
M 2034 4750 
Q 2819 4750 3233 4129 
Q 3647 3509 3647 2328 
Q 3647 1150 3233 529 
Q 2819 -91 2034 -91 
Q 1250 -91 836 529 
Q 422 1150 422 2328 
Q 422 3509 836 4129 
Q 1250 4750 2034 4750 
z
" transform="scale(0.015625)"/>
       </defs>
       <use xlink:href="#DejaVuSans-31"/>
       <use xlink:href="#DejaVuSans-30" transform="translate(63.623047 0)"/>
       <use xlink:href="#DejaVuSans-30" transform="translate(127.246094 0)"/>
      </g>
     </g>
    </g>
    <g id="ytick_2">
     <g id="line2d_2">
      <g>
       <use xlink:href="#mc13db4c6fc" x="46.965625" y="228.96" style="stroke: #000000; stroke-width: 0.8"/>
      </g>
     </g>
     <g id="text_5">
      <!-- 200 -->
      <g transform="translate(20.878125 232.759219) scale(0.1 -0.1)">
       <defs>
        <path id="DejaVuSans-32" d="M 1228 531 
L 3431 531 
L 3431 0 
L 469 0 
L 469 531 
Q 828 903 1448 1529 
Q 2069 2156 2228 2338 
Q 2531 2678 2651 2914 
Q 2772 3150 2772 3378 
Q 2772 3750 2511 3984 
Q 2250 4219 1831 4219 
Q 1534 4219 1204 4116 
Q 875 4013 500 3803 
L 500 4441 
Q 881 4594 1212 4672 
Q 1544 4750 1819 4750 
Q 2544 4750 2975 4387 
Q 3406 4025 3406 3419 
Q 3406 3131 3298 2873 
Q 3191 2616 2906 2266 
Q 2828 2175 2409 1742 
Q 1991 1309 1228 531 
z
" transform="scale(0.015625)"/>
       </defs>
       <use xlink:href="#DejaVuSans-32"/>
       <use xlink:href="#DejaVuSans-30" transform="translate(63.623047 0)"/>
       <use xlink:href="#DejaVuSans-30" transform="translate(127.246094 0)"/>
      </g>
     </g>
    </g>
    <g id="ytick_3">
     <g id="line2d_3">
      <g>
       <use xlink:href="#mc13db4c6fc" x="46.965625" y="196.704" style="stroke: #000000; stroke-width: 0.8"/>
      </g>
     </g>
     <g id="text_6">
      <!-- 300 -->
      <g transform="translate(20.878125 200.503219) scale(0.1 -0.1)">
       <defs>
        <path id="DejaVuSans-33" d="M 2597 2516 
Q 3050 2419 3304 2112 
Q 3559 1806 3559 1356 
Q 3559 666 3084 287 
Q 2609 -91 1734 -91 
Q 1441 -91 1130 -33 
Q 819 25 488 141 
L 488 750 
Q 750 597 1062 519 
Q 1375 441 1716 441 
Q 2309 441 2620 675 
Q 2931 909 2931 1356 
Q 2931 1769 2642 2001 
Q 2353 2234 1838 2234 
L 1294 2234 
L 1294 2753 
L 1863 2753 
Q 2328 2753 2575 2939 
Q 2822 3125 2822 3475 
Q 2822 3834 2567 4026 
Q 2313 4219 1838 4219 
Q 1578 4219 1281 4162 
Q 984 4106 628 3988 
L 628 4550 
Q 988 4650 1302 4700 
Q 1616 4750 1894 4750 
Q 2613 4750 3031 4423 
Q 3450 4097 3450 3541 
Q 3450 3153 3228 2886 
Q 3006 2619 2597 2516 
z
" transform="scale(0.015625)"/>
       </defs>
       <use xlink:href="#DejaVuSans-33"/>
       <use xlink:href="#DejaVuSans-30" transform="translate(63.623047 0)"/>
       <use xlink:href="#DejaVuSans-30" transform="translate(127.246094 0)"/>
      </g>
     </g>
    </g>
    <g id="ytick_4">
     <g id="line2d_4">
      <g>
       <use xlink:href="#mc13db4c6fc" x="46.965625" y="164.448" style="stroke: #000000; stroke-width: 0.8"/>
      </g>
     </g>
     <g id="text_7">
      <!-- 400 -->
      <g transform="translate(20.878125 168.247219) scale(0.1 -0.1)">
       <defs>
        <path id="DejaVuSans-34" d="M 2419 4116 
L 825 1625 
L 2419 1625 
L 2419 4116 
z
M 2253 4666 
L 3047 4666 
L 3047 1625 
L 3713 1625 
L 3713 1100 
L 3047 1100 
L 3047 0 
L 2419 0 
L 2419 1100 
L 313 1100 
L 313 1709 
L 2253 4666 
z
" transform="scale(0.015625)"/>
       </defs>
       <use xlink:href="#DejaVuSans-34"/>
       <use xlink:href="#DejaVuSans-30" transform="translate(63.623047 0)"/>
       <use xlink:href="#DejaVuSans-30" transform="translate(127.246094 0)"/>
      </g>
     </g>
    </g>
    <g id="ytick_5">
     <g id="line2d_5">
      <g>
       <use xlink:href="#mc13db4c6fc" x="46.965625" y="132.192" style="stroke: #000000; stroke-width: 0.8"/>
      </g>
     </g>
     <g id="text_8">
      <!-- 500 -->
      <g transform="translate(20.878125 135.991219) scale(0.1 -0.1)">
       <defs>
        <path id="DejaVuSans-35" d="M 691 4666 
L 3169 4666 
L 3169 4134 
L 1269 4134 
L 1269 2991 
Q 1406 3038 1543 3061 
Q 1681 3084 1819 3084 
Q 2600 3084 3056 2656 
Q 3513 2228 3513 1497 
Q 3513 744 3044 326 
Q 2575 -91 1722 -91 
Q 1428 -91 1123 -41 
Q 819 9 494 109 
L 494 744 
Q 775 591 1075 516 
Q 1375 441 1709 441 
Q 2250 441 2565 725 
Q 2881 1009 2881 1497 
Q 2881 1984 2565 2268 
Q 2250 2553 1709 2553 
Q 1456 2553 1204 2497 
Q 953 2441 691 2322 
L 691 4666 
z
" transform="scale(0.015625)"/>
       </defs>
       <use xlink:href="#DejaVuSans-35"/>
       <use xlink:href="#DejaVuSans-30" transform="translate(63.623047 0)"/>
       <use xlink:href="#DejaVuSans-30" transform="translate(127.246094 0)"/>
      </g>
     </g>
    </g>
    <g id="ytick_6">
     <g id="line2d_6">
      <g>
       <use xlink:href="#mc13db4c6fc" x="46.965625" y="99.936" style="stroke: #000000; stroke-width: 0.8"/>
      </g>
     </g>
     <g id="text_9">
      <!-- 600 -->
      <g transform="translate(20.878125 103.735219) scale(0.1 -0.1)">
       <defs>
        <path id="DejaVuSans-36" d="M 2113 2584 
Q 1688 2584 1439 2293 
Q 1191 2003 1191 1497 
Q 1191 994 1439 701 
Q 1688 409 2113 409 
Q 2538 409 2786 701 
Q 3034 994 3034 1497 
Q 3034 2003 2786 2293 
Q 2538 2584 2113 2584 
z
M 3366 4563 
L 3366 3988 
Q 3128 4100 2886 4159 
Q 2644 4219 2406 4219 
Q 1781 4219 1451 3797 
Q 1122 3375 1075 2522 
Q 1259 2794 1537 2939 
Q 1816 3084 2150 3084 
Q 2853 3084 3261 2657 
Q 3669 2231 3669 1497 
Q 3669 778 3244 343 
Q 2819 -91 2113 -91 
Q 1303 -91 875 529 
Q 447 1150 447 2328 
Q 447 3434 972 4092 
Q 1497 4750 2381 4750 
Q 2619 4750 2861 4703 
Q 3103 4656 3366 4563 
z
" transform="scale(0.015625)"/>
       </defs>
       <use xlink:href="#DejaVuSans-36"/>
       <use xlink:href="#DejaVuSans-30" transform="translate(63.623047 0)"/>
       <use xlink:href="#DejaVuSans-30" transform="translate(127.246094 0)"/>
      </g>
     </g>
    </g>
    <g id="ytick_7">
     <g id="line2d_7">
      <g>
       <use xlink:href="#mc13db4c6fc" x="46.965625" y="67.68" style="stroke: #000000; stroke-width: 0.8"/>
      </g>
     </g>
     <g id="text_10">
      <!-- 700 -->
      <g transform="translate(20.878125 71.479219) scale(0.1 -0.1)">
       <defs>
        <path id="DejaVuSans-37" d="M 525 4666 
L 3525 4666 
L 3525 4397 
L 1831 0 
L 1172 0 
L 2766 4134 
L 525 4134 
L 525 4666 
z
" transform="scale(0.015625)"/>
       </defs>
       <use xlink:href="#DejaVuSans-37"/>
       <use xlink:href="#DejaVuSans-30" transform="translate(63.623047 0)"/>
       <use xlink:href="#DejaVuSans-30" transform="translate(127.246094 0)"/>
      </g>
     </g>
    </g>
    <g id="ytick_8">
     <g id="line2d_8">
      <g>
       <use xlink:href="#mc13db4c6fc" x="46.965625" y="35.424" style="stroke: #000000; stroke-width: 0.8"/>
      </g>
     </g>
     <g id="text_11">
      <!-- 800 -->
      <g transform="translate(20.878125 39.223219) scale(0.1 -0.1)">
       <defs>
        <path id="DejaVuSans-38" d="M 2034 2216 
Q 1584 2216 1326 1975 
Q 1069 1734 1069 1313 
Q 1069 891 1326 650 
Q 1584 409 2034 409 
Q 2484 409 2743 651 
Q 3003 894 3003 1313 
Q 3003 1734 2745 1975 
Q 2488 2216 2034 2216 
z
M 1403 2484 
Q 997 2584 770 2862 
Q 544 3141 544 3541 
Q 544 4100 942 4425 
Q 1341 4750 2034 4750 
Q 2731 4750 3128 4425 
Q 3525 4100 3525 3541 
Q 3525 3141 3298 2862 
Q 3072 2584 2669 2484 
Q 3125 2378 3379 2068 
Q 3634 1759 3634 1313 
Q 3634 634 3220 271 
Q 2806 -91 2034 -91 
Q 1263 -91 848 271 
Q 434 634 434 1313 
Q 434 1759 690 2068 
Q 947 2378 1403 2484 
z
M 1172 3481 
Q 1172 3119 1398 2916 
Q 1625 2713 2034 2713 
Q 2441 2713 2670 2916 
Q 2900 3119 2900 3481 
Q 2900 3844 2670 4047 
Q 2441 4250 2034 4250 
Q 1625 4250 1398 4047 
Q 1172 3844 1172 3481 
z
" transform="scale(0.015625)"/>
       </defs>
       <use xlink:href="#DejaVuSans-38"/>
       <use xlink:href="#DejaVuSans-30" transform="translate(63.623047 0)"/>
       <use xlink:href="#DejaVuSans-30" transform="translate(127.246094 0)"/>
      </g>
     </g>
    </g>
    <g id="text_12">
     <!-- Protein size -->
     <g transform="translate(14.798438 169.063812) rotate(-90) scale(0.1 -0.1)">
      <defs>
       <path id="DejaVuSans-50" d="M 1259 4147 
L 1259 2394 
L 2053 2394 
Q 2494 2394 2734 2622 
Q 2975 2850 2975 3272 
Q 2975 3691 2734 3919 
Q 2494 4147 2053 4147 
L 1259 4147 
z
M 628 4666 
L 2053 4666 
Q 2838 4666 3239 4311 
Q 3641 3956 3641 3272 
Q 3641 2581 3239 2228 
Q 2838 1875 2053 1875 
L 1259 1875 
L 1259 0 
L 628 0 
L 628 4666 
z
" transform="scale(0.015625)"/>
       <path id="DejaVuSans-72" d="M 2631 2963 
Q 2534 3019 2420 3045 
Q 2306 3072 2169 3072 
Q 1681 3072 1420 2755 
Q 1159 2438 1159 1844 
L 1159 0 
L 581 0 
L 581 3500 
L 1159 3500 
L 1159 2956 
Q 1341 3275 1631 3429 
Q 1922 3584 2338 3584 
Q 2397 3584 2469 3576 
Q 2541 3569 2628 3553 
L 2631 2963 
z
" transform="scale(0.015625)"/>
       <path id="DejaVuSans-69" d="M 603 3500 
L 1178 3500 
L 1178 0 
L 603 0 
L 603 3500 
z
M 603 4863 
L 1178 4863 
L 1178 4134 
L 603 4134 
L 603 4863 
z
" transform="scale(0.015625)"/>
       <path id="DejaVuSans-20" transform="scale(0.015625)"/>
       <path id="DejaVuSans-73" d="M 2834 3397 
L 2834 2853 
Q 2591 2978 2328 3040 
Q 2066 3103 1784 3103 
Q 1356 3103 1142 2972 
Q 928 2841 928 2578 
Q 928 2378 1081 2264 
Q 1234 2150 1697 2047 
L 1894 2003 
Q 2506 1872 2764 1633 
Q 3022 1394 3022 966 
Q 3022 478 2636 193 
Q 2250 -91 1575 -91 
Q 1294 -91 989 -36 
Q 684 19 347 128 
L 347 722 
Q 666 556 975 473 
Q 1284 391 1588 391 
Q 1994 391 2212 530 
Q 2431 669 2431 922 
Q 2431 1156 2273 1281 
Q 2116 1406 1581 1522 
L 1381 1569 
Q 847 1681 609 1914 
Q 372 2147 372 2553 
Q 372 3047 722 3315 
Q 1072 3584 1716 3584 
Q 2034 3584 2315 3537 
Q 2597 3491 2834 3397 
z
" transform="scale(0.015625)"/>
       <path id="DejaVuSans-7a" d="M 353 3500 
L 3084 3500 
L 3084 2975 
L 922 459 
L 3084 459 
L 3084 0 
L 275 0 
L 275 525 
L 2438 3041 
L 353 3041 
L 353 3500 
z
" transform="scale(0.015625)"/>
      </defs>
      <use xlink:href="#DejaVuSans-50"/>
      <use xlink:href="#DejaVuSans-72" transform="translate(58.552734 0)"/>
      <use xlink:href="#DejaVuSans-6f" transform="translate(97.416016 0)"/>
      <use xlink:href="#DejaVuSans-74" transform="translate(158.597656 0)"/>
      <use xlink:href="#DejaVuSans-65" transform="translate(197.806641 0)"/>
      <use xlink:href="#DejaVuSans-69" transform="translate(259.330078 0)"/>
      <use xlink:href="#DejaVuSans-6e" transform="translate(287.113281 0)"/>
      <use xlink:href="#DejaVuSans-20" transform="translate(350.492188 0)"/>
      <use xlink:href="#DejaVuSans-73" transform="translate(382.279297 0)"/>
      <use xlink:href="#DejaVuSans-69" transform="translate(434.378906 0)"/>
      <use xlink:href="#DejaVuSans-7a" transform="translate(462.162109 0)"/>
      <use xlink:href="#DejaVuSans-65" transform="translate(514.652344 0)"/>
     </g>
    </g>
   </g>
   <g id="line2d_9">
    <path d="M 136.245625 261.216 
L 136.245625 180.89856 
" clip-path="url(#pdf82b12cb8)" style="fill: none; stroke: #b2b2b2; stroke-width: 1.875; stroke-linecap: square"/>
   </g>
   <g id="line2d_10">
    <path d="M 136.245625 254.11968 
L 136.245625 224.76672 
" clip-path="url(#pdf82b12cb8)" style="fill: none; stroke: #b2b2b2; stroke-width: 5.625; stroke-linecap: square"/>
   </g>
   <g id="line2d_11">
    <path d="M 136.245625 244.12032 
" clip-path="url(#pdf82b12cb8)" style="fill: none; stroke: #191919; stroke-width: 1.5; stroke-linecap: square"/>
    <defs>
     <path id="mb5b97ef2a2" d="M 2.34375 0 
L -2.34375 -0 
" style="stroke: #ffffff; stroke-width: 1.125"/>
    </defs>
    <g clip-path="url(#pdf82b12cb8)">
     <use xlink:href="#mb5b97ef2a2" x="136.245625" y="244.12032" style="fill: #ffffff; stroke: #ffffff; stroke-width: 1.125"/>
    </g>
   </g>
   <g id="line2d_12">
    <path d="M 314.805625 261.216 
L 314.805625 74.77632 
" clip-path="url(#pdf82b12cb8)" style="fill: none; stroke: #b2b2b2; stroke-width: 1.875; stroke-linecap: square"/>
   </g>
   <g id="line2d_13">
    <path d="M 314.805625 243.79776 
L 314.805625 176.06016 
" clip-path="url(#pdf82b12cb8)" style="fill: none; stroke: #b2b2b2; stroke-width: 5.625; stroke-linecap: square"/>
   </g>
   <g id="line2d_14">
    <path d="M 314.805625 219.60576 
" clip-path="url(#pdf82b12cb8)" style="fill: none; stroke: #191919; stroke-width: 1.5; stroke-linecap: square"/>
    <g clip-path="url(#pdf82b12cb8)">
     <use xlink:href="#mb5b97ef2a2" x="314.805625" y="219.60576" style="fill: #ffffff; stroke: #ffffff; stroke-width: 1.125"/>
    </g>
   </g>
   <g id="patch_3">
    <path d="M 46.965625 273.312 
L 46.965625 7.2 
" style="fill: none; stroke: #000000; stroke-width: 0.8; stroke-linejoin: miter; stroke-linecap: square"/>
   </g>
  </g>
 </g>
 <defs>
  <clipPath id="pdf82b12cb8">
   <rect x="46.965625" y="7.2" width="357.12" height="266.112"/>
  </clipPath>
 </defs>
</svg>
