<?xml version="1.0" encoding="utf-8" standalone="no"?>
<!DOCTYPE svg PUBLIC "-//W3C//DTD SVG 1.1//EN"
  "http://www.w3.org/Graphics/SVG/1.1/DTD/svg11.dtd">
<svg xmlns:xlink="http://www.w3.org/1999/xlink" width="404.923125pt" height="311.146375pt" viewBox="0 0 404.923125 311.146375" xmlns="http://www.w3.org/2000/svg" version="1.1">
 <metadata>
  <rdf:RDF xmlns:dc="http://purl.org/dc/elements/1.1/" xmlns:cc="http://creativecommons.org/ns#" xmlns:rdf="http://www.w3.org/1999/02/22-rdf-syntax-ns#">
   <cc:Work>
    <dc:type rdf:resource="http://purl.org/dc/dcmitype/StillImage"/>
    <dc:date>2025-07-17T22:08:09.735860</dc:date>
    <dc:format>image/svg+xml</dc:format>
    <dc:creator>
     <cc:Agent>
      <dc:title>Matplotlib v3.10.3, https://matplotlib.org/</dc:title>
     </cc:Agent>
    </dc:creator>
   </cc:Work>
  </rdf:RDF>
 </metadata>
 <defs>
  <style type="text/css">*{stroke-linejoin: round; stroke-linecap: butt}</style>
 </defs>
 <g id="figure_1">
  <g id="patch_1">
   <path d="M 0 311.146375 
L 404.923125 311.146375 
L 404.923125 0 
L 0 0 
L 0 311.146375 
z
" style="fill: none"/>
  </g>
  <g id="axes_1">
   <g id="patch_2">
    <path d="M 40.603125 273.312 
L 397.723125 273.312 
L 397.723125 7.2 
L 40.603125 7.2 
L 40.603125 273.312 
z
" style="fill: none"/>
   </g>
   <g id="FillBetweenPolyCollection_1">
    <defs>
     <path id="m86172a2c69" d="M 201.307125 -49.930375 
L 58.459125 -49.930375 
L 62.555218 -52.304193 
L 76.582862 -54.678011 
L 93.073597 -57.05183 
L 106.289255 -59.425648 
L 114.679365 -61.799466 
L 119.382636 -64.173284 
L 121.987038 -66.547102 
L 123.514454 -68.92092 
L 124.447098 -71.294739 
L 125.033485 -73.668557 
L 125.470235 -76.042375 
L 125.916104 -78.416193 
L 126.435976 -80.790011 
L 126.991814 -83.16383 
L 127.509037 -85.537648 
L 127.940339 -87.911466 
L 128.275692 -90.285284 
L 128.524418 -92.659102 
L 128.699098 -95.03292 
L 128.809362 -97.406739 
L 128.865645 -99.780557 
L 128.885077 -102.154375 
L 128.890289 -104.528193 
L 128.899522 -106.902011 
L 128.917805 -109.27583 
L 128.94017 -111.649648 
L 128.961804 -114.023466 
L 128.983643 -116.397284 
L 129.010844 -118.771102 
L 129.045866 -121.14492 
L 129.082642 -123.518739 
L 129.10986 -125.892557 
L 129.119313 -128.266375 
L 129.110054 -130.640193 
L 129.086965 -133.014011 
L 129.057212 -135.38783 
L 129.028264 -137.761648 
L 129.006515 -140.135466 
L 128.993534 -142.509284 
L 128.984769 -144.883102 
L 128.974681 -147.25692 
L 128.962557 -149.630739 
L 128.954543 -152.004557 
L 128.961481 -154.378375 
L 128.993923 -156.752193 
L 129.059078 -159.126011 
L 129.157834 -161.49983 
L 129.277727 -163.873648 
L 129.392891 -166.247466 
L 129.47947 -168.621284 
L 129.5315 -170.995102 
L 129.56058 -173.36892 
L 129.582864 -175.742739 
L 129.607755 -178.116557 
L 129.636244 -180.490375 
L 129.66475 -182.864193 
L 129.687733 -185.238011 
L 129.699395 -187.61183 
L 129.696931 -189.985648 
L 129.683216 -192.359466 
L 129.665745 -194.733284 
L 129.652894 -197.107102 
L 129.651375 -199.48092 
L 129.665029 -201.854739 
L 129.691758 -204.228557 
L 129.721147 -206.602375 
L 129.739373 -208.976193 
L 129.739241 -211.350011 
L 129.725118 -213.72383 
L 129.708097 -216.097648 
L 129.697593 -218.471466 
L 129.697664 -220.845284 
L 129.708248 -223.219102 
L 129.726358 -225.59292 
L 129.746714 -227.966739 
L 129.764325 -230.340557 
L 129.777546 -232.714375 
L 129.788302 -235.088193 
L 129.799171 -237.462011 
L 129.809914 -239.83583 
L 129.816762 -242.209648 
L 129.815289 -244.583466 
L 129.803804 -246.957284 
L 129.784061 -249.331102 
L 129.759804 -251.70492 
L 129.735786 -254.078739 
L 129.717342 -256.452557 
L 129.708539 -258.826375 
L 129.710075 -261.200193 
L 129.719758 -263.574011 
L 129.734355 -265.94783 
L 129.750315 -268.321648 
L 129.764319 -270.695466 
L 129.774658 -273.069284 
L 129.782039 -275.443102 
L 129.788825 -277.81692 
L 129.79736 -280.190739 
L 129.808832 -282.564557 
L 129.823255 -284.938375 
L 129.942995 -284.938375 
L 129.942995 -284.938375 
L 129.957418 -282.564557 
L 129.96889 -280.190739 
L 129.977425 -277.81692 
L 129.984211 -275.443102 
L 129.991592 -273.069284 
L 130.001931 -270.695466 
L 130.015935 -268.321648 
L 130.031895 -265.94783 
L 130.046492 -263.574011 
L 130.056175 -261.200193 
L 130.057711 -258.826375 
L 130.048908 -256.452557 
L 130.030464 -254.078739 
L 130.006446 -251.70492 
L 129.982189 -249.331102 
L 129.962446 -246.957284 
L 129.950961 -244.583466 
L 129.949488 -242.209648 
L 129.956336 -239.83583 
L 129.967079 -237.462011 
L 129.977948 -235.088193 
L 129.988704 -232.714375 
L 130.001925 -230.340557 
L 130.019536 -227.966739 
L 130.039892 -225.59292 
L 130.058002 -223.219102 
L 130.068586 -220.845284 
L 130.068657 -218.471466 
L 130.058153 -216.097648 
L 130.041132 -213.72383 
L 130.027009 -211.350011 
L 130.026877 -208.976193 
L 130.045103 -206.602375 
L 130.074492 -204.228557 
L 130.101221 -201.854739 
L 130.114875 -199.48092 
L 130.113356 -197.107102 
L 130.100505 -194.733284 
L 130.083034 -192.359466 
L 130.069319 -189.985648 
L 130.066855 -187.61183 
L 130.078517 -185.238011 
L 130.1015 -182.864193 
L 130.130006 -180.490375 
L 130.158495 -178.116557 
L 130.183386 -175.742739 
L 130.20567 -173.36892 
L 130.23475 -170.995102 
L 130.28678 -168.621284 
L 130.373359 -166.247466 
L 130.488523 -163.873648 
L 130.608416 -161.49983 
L 130.707172 -159.126011 
L 130.772327 -156.752193 
L 130.804769 -154.378375 
L 130.811707 -152.004557 
L 130.803693 -149.630739 
L 130.791569 -147.25692 
L 130.781481 -144.883102 
L 130.772716 -142.509284 
L 130.759735 -140.135466 
L 130.737986 -137.761648 
L 130.709038 -135.38783 
L 130.679285 -133.014011 
L 130.656196 -130.640193 
L 130.646937 -128.266375 
L 130.65639 -125.892557 
L 130.683608 -123.518739 
L 130.720384 -121.14492 
L 130.755406 -118.771102 
L 130.782607 -116.397284 
L 130.804446 -114.023466 
L 130.82608 -111.649648 
L 130.848445 -109.27583 
L 130.866728 -106.902011 
L 130.875961 -104.528193 
L 130.881173 -102.154375 
L 130.900605 -99.780557 
L 130.956888 -97.406739 
L 131.067152 -95.03292 
L 131.241832 -92.659102 
L 131.490558 -90.285284 
L 131.825911 -87.911466 
L 132.257213 -85.537648 
L 132.774436 -83.16383 
L 133.330274 -80.790011 
L 133.850146 -78.416193 
L 134.296015 -76.042375 
L 134.732765 -73.668557 
L 135.319152 -71.294739 
L 136.251796 -68.92092 
L 137.779212 -66.547102 
L 140.383614 -64.173284 
L 145.086885 -61.799466 
L 153.476995 -59.425648 
L 166.692653 -57.05183 
L 183.183388 -54.678011 
L 197.211032 -52.304193 
L 201.307125 -49.930375 
z
" style="stroke: #191919; stroke-opacity: 0.75; stroke-width: 1.25"/>
    </defs>
    <g clip-path="url(#p69aba3d3d6)">
     <use xlink:href="#m86172a2c69" x="0" y="311.146375" style="fill: #377182; fill-opacity: 0.75; stroke: #191919; stroke-opacity: 0.75; stroke-width: 1.25"/>
    </g>
   </g>
   <g id="FillBetweenPolyCollection_2">
    <defs>
     <path id="m2cfc34e6b3" d="M 379.867125 -49.930375 
L 237.019125 -49.930375 
L 238.205246 -52.374011 
L 246.590039 -54.817648 
L 258.857721 -57.261284 
L 271.365666 -59.70492 
L 281.737589 -62.148557 
L 289.25287 -64.592193 
L 294.285588 -67.03583 
L 297.553339 -69.479466 
L 299.67672 -71.923102 
L 301.082131 -74.366739 
L 302.055755 -76.810375 
L 302.797152 -79.254011 
L 303.436645 -81.697648 
L 304.040249 -84.141284 
L 304.622481 -86.58492 
L 305.167252 -89.028557 
L 305.648606 -91.472193 
L 306.045155 -93.91583 
L 306.346309 -96.359466 
L 306.551905 -98.803102 
L 306.669216 -101.246739 
L 306.711158 -103.690375 
L 306.696574 -106.134011 
L 306.650078 -108.577648 
L 306.59844 -111.021284 
L 306.563816 -113.46492 
L 306.558092 -115.908557 
L 306.582583 -118.352193 
L 306.632796 -120.79583 
L 306.703693 -123.239466 
L 306.791346 -125.683102 
L 306.890971 -128.126739 
L 306.994646 -130.570375 
L 307.091666 -133.014011 
L 307.171571 -135.457648 
L 307.227757 -137.901284 
L 307.259435 -140.34492 
L 307.270822 -142.788557 
L 307.267571 -145.232193 
L 307.252005 -147.67583 
L 307.220191 -150.119466 
L 307.163539 -152.563102 
L 307.074626 -155.006739 
L 306.953581 -157.450375 
L 306.81082 -159.894011 
L 306.664319 -162.337648 
L 306.532467 -164.781284 
L 306.425637 -167.22492 
L 306.34132 -169.668557 
L 306.267712 -172.112193 
L 306.195995 -174.55583 
L 306.133642 -176.999466 
L 306.107692 -179.443102 
L 306.153513 -181.886739 
L 306.296045 -184.330375 
L 306.53567 -186.774011 
L 306.846013 -189.217648 
L 307.182863 -191.661284 
L 307.499105 -194.10492 
L 307.759573 -196.548557 
L 307.949724 -198.992193 
L 308.074632 -201.43583 
L 308.150317 -203.879466 
L 308.19375 -206.323102 
L 308.216957 -208.766739 
L 308.226374 -211.210375 
L 308.22524 -213.654011 
L 308.216364 -216.097648 
L 308.203635 -218.541284 
L 308.191778 -220.98492 
L 308.184842 -223.428557 
L 308.184661 -225.872193 
L 308.190485 -228.31583 
L 308.199973 -230.759466 
L 308.210462 -233.203102 
L 308.219404 -235.646739 
L 308.224067 -238.090375 
L 308.221719 -240.534011 
L 308.211173 -242.977648 
L 308.194846 -245.421284 
L 308.179111 -247.86492 
L 308.171647 -250.308557 
L 308.177197 -252.752193 
L 308.194886 -255.19583 
L 308.219079 -257.639466 
L 308.242795 -260.083102 
L 308.261064 -262.526739 
L 308.272415 -264.970375 
L 308.278412 -267.414011 
L 308.282142 -269.857648 
L 308.286573 -272.301284 
L 308.293441 -274.74492 
L 308.302943 -277.188557 
L 308.31418 -279.632193 
L 308.325968 -282.07583 
L 308.337584 -284.519466 
L 308.349137 -286.963102 
L 308.361378 -289.406739 
L 308.375007 -291.850375 
L 308.511243 -291.850375 
L 308.511243 -291.850375 
L 308.524872 -289.406739 
L 308.537113 -286.963102 
L 308.548666 -284.519466 
L 308.560282 -282.07583 
L 308.57207 -279.632193 
L 308.583307 -277.188557 
L 308.592809 -274.74492 
L 308.599677 -272.301284 
L 308.604108 -269.857648 
L 308.607838 -267.414011 
L 308.613835 -264.970375 
L 308.625186 -262.526739 
L 308.643455 -260.083102 
L 308.667171 -257.639466 
L 308.691364 -255.19583 
L 308.709053 -252.752193 
L 308.714603 -250.308557 
L 308.707139 -247.86492 
L 308.691404 -245.421284 
L 308.675077 -242.977648 
L 308.664531 -240.534011 
L 308.662183 -238.090375 
L 308.666846 -235.646739 
L 308.675788 -233.203102 
L 308.686277 -230.759466 
L 308.695765 -228.31583 
L 308.701589 -225.872193 
L 308.701408 -223.428557 
L 308.694472 -220.98492 
L 308.682615 -218.541284 
L 308.669886 -216.097648 
L 308.66101 -213.654011 
L 308.659876 -211.210375 
L 308.669293 -208.766739 
L 308.6925 -206.323102 
L 308.735933 -203.879466 
L 308.811618 -201.43583 
L 308.936526 -198.992193 
L 309.126677 -196.548557 
L 309.387145 -194.10492 
L 309.703387 -191.661284 
L 310.040237 -189.217648 
L 310.35058 -186.774011 
L 310.590205 -184.330375 
L 310.732737 -181.886739 
L 310.778558 -179.443102 
L 310.752608 -176.999466 
L 310.690255 -174.55583 
L 310.618538 -172.112193 
L 310.54493 -169.668557 
L 310.460613 -167.22492 
L 310.353783 -164.781284 
L 310.221931 -162.337648 
L 310.07543 -159.894011 
L 309.932669 -157.450375 
L 309.811624 -155.006739 
L 309.722711 -152.563102 
L 309.666059 -150.119466 
L 309.634245 -147.67583 
L 309.618679 -145.232193 
L 309.615428 -142.788557 
L 309.626815 -140.34492 
L 309.658493 -137.901284 
L 309.714679 -135.457648 
L 309.794584 -133.014011 
L 309.891604 -130.570375 
L 309.995279 -128.126739 
L 310.094904 -125.683102 
L 310.182557 -123.239466 
L 310.253454 -120.79583 
L 310.303667 -118.352193 
L 310.328158 -115.908557 
L 310.322434 -113.46492 
L 310.28781 -111.021284 
L 310.236172 -108.577648 
L 310.189676 -106.134011 
L 310.175092 -103.690375 
L 310.217034 -101.246739 
L 310.334345 -98.803102 
L 310.539941 -96.359466 
L 310.841095 -93.91583 
L 311.237644 -91.472193 
L 311.718998 -89.028557 
L 312.263769 -86.58492 
L 312.846001 -84.141284 
L 313.449605 -81.697648 
L 314.089098 -79.254011 
L 314.830495 -76.810375 
L 315.804119 -74.366739 
L 317.20953 -71.923102 
L 319.332911 -69.479466 
L 322.600662 -67.03583 
L 327.63338 -64.592193 
L 335.148661 -62.148557 
L 345.520584 -59.70492 
L 358.028529 -57.261284 
L 370.296211 -54.817648 
L 378.681004 -52.374011 
L 379.867125 -49.930375 
z
" style="stroke: #191919; stroke-opacity: 0.75; stroke-width: 1.25"/>
    </defs>
    <g clip-path="url(#p69aba3d3d6)">
     <use xlink:href="#m2cfc34e6b3" x="0" y="311.146375" style="fill: #3e0b4a; fill-opacity: 0.75; stroke: #191919; stroke-opacity: 0.75; stroke-width: 1.25"/>
    </g>
   </g>
   <g id="matplotlib.axis_1">
    <g id="xtick_1">
     <g id="text_1">
      <!-- no -->
      <g transform="translate(123.655 287.910437) scale(0.1 -0.1)">
       <defs>
        <path id="DejaVuSans-6e" d="M 3513 2113 
L 3513 0 
L 2938 0 
L 2938 2094 
Q 2938 2591 2744 2837 
Q 2550 3084 2163 3084 
Q 1697 3084 1428 2787 
Q 1159 2491 1159 1978 
L 1159 0 
L 581 0 
L 581 3500 
L 1159 3500 
L 1159 2956 
Q 1366 3272 1645 3428 
Q 1925 3584 2291 3584 
Q 2894 3584 3203 3211 
Q 3513 2838 3513 2113 
z
" transform="scale(0.015625)"/>
        <path id="DejaVuSans-6f" d="M 1959 3097 
Q 1497 3097 1228 2736 
Q 959 2375 959 1747 
Q 959 1119 1226 758 
Q 1494 397 1959 397 
Q 2419 397 2687 759 
Q 2956 1122 2956 1747 
Q 2956 2369 2687 2733 
Q 2419 3097 1959 3097 
z
M 1959 3584 
Q 2709 3584 3137 3096 
Q 3566 2609 3566 1747 
Q 3566 888 3137 398 
Q 2709 -91 1959 -91 
Q 1206 -91 779 398 
Q 353 888 353 1747 
Q 353 2609 779 3096 
Q 1206 3584 1959 3584 
z
" transform="scale(0.015625)"/>
       </defs>
       <use xlink:href="#DejaVuSans-6e"/>
       <use xlink:href="#DejaVuSans-6f" transform="translate(63.378906 0)"/>
      </g>
     </g>
    </g>
    <g id="xtick_2">
     <g id="text_2">
      <!-- yes -->
      <g transform="translate(299.8025 287.910437) scale(0.1 -0.1)">
       <defs>
        <path id="DejaVuSans-79" d="M 2059 -325 
Q 1816 -950 1584 -1140 
Q 1353 -1331 966 -1331 
L 506 -1331 
L 506 -850 
L 844 -850 
Q 1081 -850 1212 -737 
Q 1344 -625 1503 -206 
L 1606 56 
L 191 3500 
L 800 3500 
L 1894 763 
L 2988 3500 
L 3597 3500 
L 2059 -325 
z
" transform="scale(0.015625)"/>
        <path id="DejaVuSans-65" d="M 3597 1894 
L 3597 1613 
L 953 1613 
Q 991 1019 1311 708 
Q 1631 397 2203 397 
Q 2534 397 2845 478 
Q 3156 559 3463 722 
L 3463 178 
Q 3153 47 2828 -22 
Q 2503 -91 2169 -91 
Q 1331 -91 842 396 
Q 353 884 353 1716 
Q 353 2575 817 3079 
Q 1281 3584 2069 3584 
Q 2775 3584 3186 3129 
Q 3597 2675 3597 1894 
z
M 3022 2063 
Q 3016 2534 2758 2815 
Q 2500 3097 2075 3097 
Q 1594 3097 1305 2825 
Q 1016 2553 972 2059 
L 3022 2063 
z
" transform="scale(0.015625)"/>
        <path id="DejaVuSans-73" d="M 2834 3397 
L 2834 2853 
Q 2591 2978 2328 3040 
Q 2066 3103 1784 3103 
Q 1356 3103 1142 2972 
Q 928 2841 928 2578 
Q 928 2378 1081 2264 
Q 1234 2150 1697 2047 
L 1894 2003 
Q 2506 1872 2764 1633 
Q 3022 1394 3022 966 
Q 3022 478 2636 193 
Q 2250 -91 1575 -91 
Q 1294 -91 989 -36 
Q 684 19 347 128 
L 347 722 
Q 666 556 975 473 
Q 1284 391 1588 391 
Q 1994 391 2212 530 
Q 2431 669 2431 922 
Q 2431 1156 2273 1281 
Q 2116 1406 1581 1522 
L 1381 1569 
Q 847 1681 609 1914 
Q 372 2147 372 2553 
Q 372 3047 722 3315 
Q 1072 3584 1716 3584 
Q 2034 3584 2315 3537 
Q 2597 3491 2834 3397 
z
" transform="scale(0.015625)"/>
       </defs>
       <use xlink:href="#DejaVuSans-79"/>
       <use xlink:href="#DejaVuSans-65" transform="translate(59.179688 0)"/>
       <use xlink:href="#DejaVuSans-73" transform="translate(120.703125 0)"/>
      </g>
     </g>
    </g>
    <g id="text_3">
     <!-- matching_structure -->
     <g transform="translate(170.431875 301.588562) scale(0.1 -0.1)">
      <defs>
       <path id="DejaVuSans-6d" d="M 3328 2828 
Q 3544 3216 3844 3400 
Q 4144 3584 4550 3584 
Q 5097 3584 5394 3201 
Q 5691 2819 5691 2113 
L 5691 0 
L 5113 0 
L 5113 2094 
Q 5113 2597 4934 2840 
Q 4756 3084 4391 3084 
Q 3944 3084 3684 2787 
Q 3425 2491 3425 1978 
L 3425 0 
L 2847 0 
L 2847 2094 
Q 2847 2600 2669 2842 
Q 2491 3084 2119 3084 
Q 1678 3084 1418 2786 
Q 1159 2488 1159 1978 
L 1159 0 
L 581 0 
L 581 3500 
L 1159 3500 
L 1159 2956 
Q 1356 3278 1631 3431 
Q 1906 3584 2284 3584 
Q 2666 3584 2933 3390 
Q 3200 3197 3328 2828 
z
" transform="scale(0.015625)"/>
       <path id="DejaVuSans-61" d="M 2194 1759 
Q 1497 1759 1228 1600 
Q 959 1441 959 1056 
Q 959 750 1161 570 
Q 1363 391 1709 391 
Q 2188 391 2477 730 
Q 2766 1069 2766 1631 
L 2766 1759 
L 2194 1759 
z
M 3341 1997 
L 3341 0 
L 2766 0 
L 2766 531 
Q 2569 213 2275 61 
Q 1981 -91 1556 -91 
Q 1019 -91 701 211 
Q 384 513 384 1019 
Q 384 1609 779 1909 
Q 1175 2209 1959 2209 
L 2766 2209 
L 2766 2266 
Q 2766 2663 2505 2880 
Q 2244 3097 1772 3097 
Q 1472 3097 1187 3025 
Q 903 2953 641 2809 
L 641 3341 
Q 956 3463 1253 3523 
Q 1550 3584 1831 3584 
Q 2591 3584 2966 3190 
Q 3341 2797 3341 1997 
z
" transform="scale(0.015625)"/>
       <path id="DejaVuSans-74" d="M 1172 4494 
L 1172 3500 
L 2356 3500 
L 2356 3053 
L 1172 3053 
L 1172 1153 
Q 1172 725 1289 603 
Q 1406 481 1766 481 
L 2356 481 
L 2356 0 
L 1766 0 
Q 1100 0 847 248 
Q 594 497 594 1153 
L 594 3053 
L 172 3053 
L 172 3500 
L 594 3500 
L 594 4494 
L 1172 4494 
z
" transform="scale(0.015625)"/>
       <path id="DejaVuSans-63" d="M 3122 3366 
L 3122 2828 
Q 2878 2963 2633 3030 
Q 2388 3097 2138 3097 
Q 1578 3097 1268 2742 
Q 959 2388 959 1747 
Q 959 1106 1268 751 
Q 1578 397 2138 397 
Q 2388 397 2633 464 
Q 2878 531 3122 666 
L 3122 134 
Q 2881 22 2623 -34 
Q 2366 -91 2075 -91 
Q 1284 -91 818 406 
Q 353 903 353 1747 
Q 353 2603 823 3093 
Q 1294 3584 2113 3584 
Q 2378 3584 2631 3529 
Q 2884 3475 3122 3366 
z
" transform="scale(0.015625)"/>
       <path id="DejaVuSans-68" d="M 3513 2113 
L 3513 0 
L 2938 0 
L 2938 2094 
Q 2938 2591 2744 2837 
Q 2550 3084 2163 3084 
Q 1697 3084 1428 2787 
Q 1159 2491 1159 1978 
L 1159 0 
L 581 0 
L 581 4863 
L 1159 4863 
L 1159 2956 
Q 1366 3272 1645 3428 
Q 1925 3584 2291 3584 
Q 2894 3584 3203 3211 
Q 3513 2838 3513 2113 
z
" transform="scale(0.015625)"/>
       <path id="DejaVuSans-69" d="M 603 3500 
L 1178 3500 
L 1178 0 
L 603 0 
L 603 3500 
z
M 603 4863 
L 1178 4863 
L 1178 4134 
L 603 4134 
L 603 4863 
z
" transform="scale(0.015625)"/>
       <path id="DejaVuSans-67" d="M 2906 1791 
Q 2906 2416 2648 2759 
Q 2391 3103 1925 3103 
Q 1463 3103 1205 2759 
Q 947 2416 947 1791 
Q 947 1169 1205 825 
Q 1463 481 1925 481 
Q 2391 481 2648 825 
Q 2906 1169 2906 1791 
z
M 3481 434 
Q 3481 -459 3084 -895 
Q 2688 -1331 1869 -1331 
Q 1566 -1331 1297 -1286 
Q 1028 -1241 775 -1147 
L 775 -588 
Q 1028 -725 1275 -790 
Q 1522 -856 1778 -856 
Q 2344 -856 2625 -561 
Q 2906 -266 2906 331 
L 2906 616 
Q 2728 306 2450 153 
Q 2172 0 1784 0 
Q 1141 0 747 490 
Q 353 981 353 1791 
Q 353 2603 747 3093 
Q 1141 3584 1784 3584 
Q 2172 3584 2450 3431 
Q 2728 3278 2906 2969 
L 2906 3500 
L 3481 3500 
L 3481 434 
z
" transform="scale(0.015625)"/>
       <path id="DejaVuSans-5f" d="M 3263 -1063 
L 3263 -1509 
L -63 -1509 
L -63 -1063 
L 3263 -1063 
z
" transform="scale(0.015625)"/>
       <path id="DejaVuSans-72" d="M 2631 2963 
Q 2534 3019 2420 3045 
Q 2306 3072 2169 3072 
Q 1681 3072 1420 2755 
Q 1159 2438 1159 1844 
L 1159 0 
L 581 0 
L 581 3500 
L 1159 3500 
L 1159 2956 
Q 1341 3275 1631 3429 
Q 1922 3584 2338 3584 
Q 2397 3584 2469 3576 
Q 2541 3569 2628 3553 
L 2631 2963 
z
" transform="scale(0.015625)"/>
       <path id="DejaVuSans-75" d="M 544 1381 
L 544 3500 
L 1119 3500 
L 1119 1403 
Q 1119 906 1312 657 
Q 1506 409 1894 409 
Q 2359 409 2629 706 
Q 2900 1003 2900 1516 
L 2900 3500 
L 3475 3500 
L 3475 0 
L 2900 0 
L 2900 538 
Q 2691 219 2414 64 
Q 2138 -91 1772 -91 
Q 1169 -91 856 284 
Q 544 659 544 1381 
z
M 1991 3584 
L 1991 3584 
z
" transform="scale(0.015625)"/>
      </defs>
      <use xlink:href="#DejaVuSans-6d"/>
      <use xlink:href="#DejaVuSans-61" transform="translate(97.412109 0)"/>
      <use xlink:href="#DejaVuSans-74" transform="translate(158.691406 0)"/>
      <use xlink:href="#DejaVuSans-63" transform="translate(197.900391 0)"/>
      <use xlink:href="#DejaVuSans-68" transform="translate(252.880859 0)"/>
      <use xlink:href="#DejaVuSans-69" transform="translate(316.259766 0)"/>
      <use xlink:href="#DejaVuSans-6e" transform="translate(344.042969 0)"/>
      <use xlink:href="#DejaVuSans-67" transform="translate(407.421875 0)"/>
      <use xlink:href="#DejaVuSans-5f" transform="translate(470.898438 0)"/>
      <use xlink:href="#DejaVuSans-73" transform="translate(520.898438 0)"/>
      <use xlink:href="#DejaVuSans-74" transform="translate(572.998047 0)"/>
      <use xlink:href="#DejaVuSans-72" transform="translate(612.207031 0)"/>
      <use xlink:href="#DejaVuSans-75" transform="translate(653.320312 0)"/>
      <use xlink:href="#DejaVuSans-63" transform="translate(716.699219 0)"/>
      <use xlink:href="#DejaVuSans-74" transform="translate(771.679688 0)"/>
      <use xlink:href="#DejaVuSans-75" transform="translate(810.888672 0)"/>
      <use xlink:href="#DejaVuSans-72" transform="translate(874.267578 0)"/>
      <use xlink:href="#DejaVuSans-65" transform="translate(913.130859 0)"/>
     </g>
    </g>
   </g>
   <g id="matplotlib.axis_2">
    <g id="ytick_1">
     <g id="line2d_1">
      <defs>
       <path id="m05cabbbe59" d="M 0 0 
L -3.5 0 
" style="stroke: #000000; stroke-width: 0.8"/>
      </defs>
      <g>
       <use xlink:href="#m05cabbbe59" x="40.603125" y="268.128" style="stroke: #000000; stroke-width: 0.8"/>
      </g>
     </g>
     <g id="text_4">
      <!-- 0 -->
      <g transform="translate(27.240625 271.927219) scale(0.1 -0.1)">
       <defs>
        <path id="DejaVuSans-30" d="M 2034 4250 
Q 1547 4250 1301 3770 
Q 1056 3291 1056 2328 
Q 1056 1369 1301 889 
Q 1547 409 2034 409 
Q 2525 409 2770 889 
Q 3016 1369 3016 2328 
Q 3016 3291 2770 3770 
Q 2525 4250 2034 4250 
z
M 2034 4750 
Q 2819 4750 3233 4129 
Q 3647 3509 3647 2328 
Q 3647 1150 3233 529 
Q 2819 -91 2034 -91 
Q 1250 -91 836 529 
Q 422 1150 422 2328 
Q 422 3509 836 4129 
Q 1250 4750 2034 4750 
z
" transform="scale(0.015625)"/>
       </defs>
       <use xlink:href="#DejaVuSans-30"/>
      </g>
     </g>
    </g>
    <g id="ytick_2">
     <g id="line2d_2">
      <g>
       <use xlink:href="#m05cabbbe59" x="40.603125" y="233.568" style="stroke: #000000; stroke-width: 0.8"/>
      </g>
     </g>
     <g id="text_5">
      <!-- 5 -->
      <g transform="translate(27.240625 237.367219) scale(0.1 -0.1)">
       <defs>
        <path id="DejaVuSans-35" d="M 691 4666 
L 3169 4666 
L 3169 4134 
L 1269 4134 
L 1269 2991 
Q 1406 3038 1543 3061 
Q 1681 3084 1819 3084 
Q 2600 3084 3056 2656 
Q 3513 2228 3513 1497 
Q 3513 744 3044 326 
Q 2575 -91 1722 -91 
Q 1428 -91 1123 -41 
Q 819 9 494 109 
L 494 744 
Q 775 591 1075 516 
Q 1375 441 1709 441 
Q 2250 441 2565 725 
Q 2881 1009 2881 1497 
Q 2881 1984 2565 2268 
Q 2250 2553 1709 2553 
Q 1456 2553 1204 2497 
Q 953 2441 691 2322 
L 691 4666 
z
" transform="scale(0.015625)"/>
       </defs>
       <use xlink:href="#DejaVuSans-35"/>
      </g>
     </g>
    </g>
    <g id="ytick_3">
     <g id="line2d_3">
      <g>
       <use xlink:href="#m05cabbbe59" x="40.603125" y="199.008" style="stroke: #000000; stroke-width: 0.8"/>
      </g>
     </g>
     <g id="text_6">
      <!-- 10 -->
      <g transform="translate(20.878125 202.807219) scale(0.1 -0.1)">
       <defs>
        <path id="DejaVuSans-31" d="M 794 531 
L 1825 531 
L 1825 4091 
L 703 3866 
L 703 4441 
L 1819 4666 
L 2450 4666 
L 2450 531 
L 3481 531 
L 3481 0 
L 794 0 
L 794 531 
z
" transform="scale(0.015625)"/>
       </defs>
       <use xlink:href="#DejaVuSans-31"/>
       <use xlink:href="#DejaVuSans-30" transform="translate(63.623047 0)"/>
      </g>
     </g>
    </g>
    <g id="ytick_4">
     <g id="line2d_4">
      <g>
       <use xlink:href="#m05cabbbe59" x="40.603125" y="164.448" style="stroke: #000000; stroke-width: 0.8"/>
      </g>
     </g>
     <g id="text_7">
      <!-- 15 -->
      <g transform="translate(20.878125 168.247219) scale(0.1 -0.1)">
       <use xlink:href="#DejaVuSans-31"/>
       <use xlink:href="#DejaVuSans-35" transform="translate(63.623047 0)"/>
      </g>
     </g>
    </g>
    <g id="ytick_5">
     <g id="line2d_5">
      <g>
       <use xlink:href="#m05cabbbe59" x="40.603125" y="129.888" style="stroke: #000000; stroke-width: 0.8"/>
      </g>
     </g>
     <g id="text_8">
      <!-- 20 -->
      <g transform="translate(20.878125 133.687219) scale(0.1 -0.1)">
       <defs>
        <path id="DejaVuSans-32" d="M 1228 531 
L 3431 531 
L 3431 0 
L 469 0 
L 469 531 
Q 828 903 1448 1529 
Q 2069 2156 2228 2338 
Q 2531 2678 2651 2914 
Q 2772 3150 2772 3378 
Q 2772 3750 2511 3984 
Q 2250 4219 1831 4219 
Q 1534 4219 1204 4116 
Q 875 4013 500 3803 
L 500 4441 
Q 881 4594 1212 4672 
Q 1544 4750 1819 4750 
Q 2544 4750 2975 4387 
Q 3406 4025 3406 3419 
Q 3406 3131 3298 2873 
Q 3191 2616 2906 2266 
Q 2828 2175 2409 1742 
Q 1991 1309 1228 531 
z
" transform="scale(0.015625)"/>
       </defs>
       <use xlink:href="#DejaVuSans-32"/>
       <use xlink:href="#DejaVuSans-30" transform="translate(63.623047 0)"/>
      </g>
     </g>
    </g>
    <g id="ytick_6">
     <g id="line2d_6">
      <g>
       <use xlink:href="#m05cabbbe59" x="40.603125" y="95.328" style="stroke: #000000; stroke-width: 0.8"/>
      </g>
     </g>
     <g id="text_9">
      <!-- 25 -->
      <g transform="translate(20.878125 99.127219) scale(0.1 -0.1)">
       <use xlink:href="#DejaVuSans-32"/>
       <use xlink:href="#DejaVuSans-35" transform="translate(63.623047 0)"/>
      </g>
     </g>
    </g>
    <g id="ytick_7">
     <g id="line2d_7">
      <g>
       <use xlink:href="#m05cabbbe59" x="40.603125" y="60.768" style="stroke: #000000; stroke-width: 0.8"/>
      </g>
     </g>
     <g id="text_10">
      <!-- 30 -->
      <g transform="translate(20.878125 64.567219) scale(0.1 -0.1)">
       <defs>
        <path id="DejaVuSans-33" d="M 2597 2516 
Q 3050 2419 3304 2112 
Q 3559 1806 3559 1356 
Q 3559 666 3084 287 
Q 2609 -91 1734 -91 
Q 1441 -91 1130 -33 
Q 819 25 488 141 
L 488 750 
Q 750 597 1062 519 
Q 1375 441 1716 441 
Q 2309 441 2620 675 
Q 2931 909 2931 1356 
Q 2931 1769 2642 2001 
Q 2353 2234 1838 2234 
L 1294 2234 
L 1294 2753 
L 1863 2753 
Q 2328 2753 2575 2939 
Q 2822 3125 2822 3475 
Q 2822 3834 2567 4026 
Q 2313 4219 1838 4219 
Q 1578 4219 1281 4162 
Q 984 4106 628 3988 
L 628 4550 
Q 988 4650 1302 4700 
Q 1616 4750 1894 4750 
Q 2613 4750 3031 4423 
Q 3450 4097 3450 3541 
Q 3450 3153 3228 2886 
Q 3006 2619 2597 2516 
z
" transform="scale(0.015625)"/>
       </defs>
       <use xlink:href="#DejaVuSans-33"/>
       <use xlink:href="#DejaVuSans-30" transform="translate(63.623047 0)"/>
      </g>
     </g>
    </g>
    <g id="ytick_8">
     <g id="line2d_8">
      <g>
       <use xlink:href="#m05cabbbe59" x="40.603125" y="26.208" style="stroke: #000000; stroke-width: 0.8"/>
      </g>
     </g>
     <g id="text_11">
      <!-- 35 -->
      <g transform="translate(20.878125 30.007219) scale(0.1 -0.1)">
       <use xlink:href="#DejaVuSans-33"/>
       <use xlink:href="#DejaVuSans-35" transform="translate(63.623047 0)"/>
      </g>
     </g>
    </g>
    <g id="text_12">
     <!-- Cluster size -->
     <g transform="translate(14.798438 169.285687) rotate(-90) scale(0.1 -0.1)">
      <defs>
       <path id="DejaVuSans-43" d="M 4122 4306 
L 4122 3641 
Q 3803 3938 3442 4084 
Q 3081 4231 2675 4231 
Q 1875 4231 1450 3742 
Q 1025 3253 1025 2328 
Q 1025 1406 1450 917 
Q 1875 428 2675 428 
Q 3081 428 3442 575 
Q 3803 722 4122 1019 
L 4122 359 
Q 3791 134 3420 21 
Q 3050 -91 2638 -91 
Q 1578 -91 968 557 
Q 359 1206 359 2328 
Q 359 3453 968 4101 
Q 1578 4750 2638 4750 
Q 3056 4750 3426 4639 
Q 3797 4528 4122 4306 
z
" transform="scale(0.015625)"/>
       <path id="DejaVuSans-6c" d="M 603 4863 
L 1178 4863 
L 1178 0 
L 603 0 
L 603 4863 
z
" transform="scale(0.015625)"/>
       <path id="DejaVuSans-20" transform="scale(0.015625)"/>
       <path id="DejaVuSans-7a" d="M 353 3500 
L 3084 3500 
L 3084 2975 
L 922 459 
L 3084 459 
L 3084 0 
L 275 0 
L 275 525 
L 2438 3041 
L 353 3041 
L 353 3500 
z
" transform="scale(0.015625)"/>
      </defs>
      <use xlink:href="#DejaVuSans-43"/>
      <use xlink:href="#DejaVuSans-6c" transform="translate(69.824219 0)"/>
      <use xlink:href="#DejaVuSans-75" transform="translate(97.607422 0)"/>
      <use xlink:href="#DejaVuSans-73" transform="translate(160.986328 0)"/>
      <use xlink:href="#DejaVuSans-74" transform="translate(213.085938 0)"/>
      <use xlink:href="#DejaVuSans-65" transform="translate(252.294922 0)"/>
      <use xlink:href="#DejaVuSans-72" transform="translate(313.818359 0)"/>
      <use xlink:href="#DejaVuSans-20" transform="translate(354.931641 0)"/>
      <use xlink:href="#DejaVuSans-73" transform="translate(386.71875 0)"/>
      <use xlink:href="#DejaVuSans-69" transform="translate(438.818359 0)"/>
      <use xlink:href="#DejaVuSans-7a" transform="translate(466.601562 0)"/>
      <use xlink:href="#DejaVuSans-65" transform="translate(519.091797 0)"/>
     </g>
    </g>
   </g>
   <g id="line2d_9">
    <path d="M 129.883125 261.216 
L 129.883125 247.392 
" clip-path="url(#p69aba3d3d6)" style="fill: none; stroke: #b2b2b2; stroke-width: 1.875; stroke-linecap: square"/>
   </g>
   <g id="line2d_10">
    <path d="M 129.883125 261.216 
L 129.883125 254.304 
" clip-path="url(#p69aba3d3d6)" style="fill: none; stroke: #b2b2b2; stroke-width: 5.625; stroke-linecap: square"/>
   </g>
   <g id="line2d_11">
    <path d="M 129.883125 261.216 
" clip-path="url(#p69aba3d3d6)" style="fill: none; stroke: #191919; stroke-width: 1.5; stroke-linecap: square"/>
    <defs>
     <path id="m8da71a8104" d="M 2.34375 0 
L -2.34375 -0 
" style="stroke: #ffffff; stroke-width: 1.125"/>
    </defs>
    <g clip-path="url(#p69aba3d3d6)">
     <use xlink:href="#m8da71a8104" x="129.883125" y="261.216" style="fill: #ffffff; stroke: #ffffff; stroke-width: 1.125"/>
    </g>
   </g>
   <g id="line2d_12">
    <path d="M 308.443125 261.216 
L 308.443125 226.656 
" clip-path="url(#p69aba3d3d6)" style="fill: none; stroke: #b2b2b2; stroke-width: 1.875; stroke-linecap: square"/>
   </g>
   <g id="line2d_13">
    <path d="M 308.443125 261.216 
L 308.443125 247.392 
" clip-path="url(#p69aba3d3d6)" style="fill: none; stroke: #b2b2b2; stroke-width: 5.625; stroke-linecap: square"/>
   </g>
   <g id="line2d_14">
    <path d="M 308.443125 261.216 
" clip-path="url(#p69aba3d3d6)" style="fill: none; stroke: #191919; stroke-width: 1.5; stroke-linecap: square"/>
    <g clip-path="url(#p69aba3d3d6)">
     <use xlink:href="#m8da71a8104" x="308.443125" y="261.216" style="fill: #ffffff; stroke: #ffffff; stroke-width: 1.125"/>
    </g>
   </g>
   <g id="patch_3">
    <path d="M 40.603125 273.312 
L 40.603125 7.2 
" style="fill: none; stroke: #000000; stroke-width: 0.8; stroke-linejoin: miter; stroke-linecap: square"/>
   </g>
  </g>
 </g>
 <defs>
  <clipPath id="p69aba3d3d6">
   <rect x="40.603125" y="7.2" width="357.12" height="266.112"/>
  </clipPath>
 </defs>
</svg>
