<?xml version="1.0" encoding="utf-8" standalone="no"?>
<!DOCTYPE svg PUBLIC "-//W3C//DTD SVG 1.1//EN"
  "http://www.w3.org/Graphics/SVG/1.1/DTD/svg11.dtd">
<svg xmlns:xlink="http://www.w3.org/1999/xlink" width="409.798125pt" height="311.146375pt" viewBox="0 0 409.798125 311.146375" xmlns="http://www.w3.org/2000/svg" version="1.1">
 <metadata>
  <rdf:RDF xmlns:dc="http://purl.org/dc/elements/1.1/" xmlns:cc="http://creativecommons.org/ns#" xmlns:rdf="http://www.w3.org/1999/02/22-rdf-syntax-ns#">
   <cc:Work>
    <dc:type rdf:resource="http://purl.org/dc/dcmitype/StillImage"/>
    <dc:date>2025-07-17T22:08:45.400890</dc:date>
    <dc:format>image/svg+xml</dc:format>
    <dc:creator>
     <cc:Agent>
      <dc:title>Matplotlib v3.10.3, https://matplotlib.org/</dc:title>
     </cc:Agent>
    </dc:creator>
   </cc:Work>
  </rdf:RDF>
 </metadata>
 <defs>
  <style type="text/css">*{stroke-linejoin: round; stroke-linecap: butt}</style>
 </defs>
 <g id="figure_1">
  <g id="patch_1">
   <path d="M 0 311.146375 
L 409.798125 311.146375 
L 409.798125 0 
L 0 0 
L 0 311.146375 
z
" style="fill: none"/>
  </g>
  <g id="axes_1">
   <g id="patch_2">
    <path d="M 45.478125 273.312 
L 402.598125 273.312 
L 402.598125 7.2 
L 45.478125 7.2 
L 45.478125 273.312 
z
" style="fill: none"/>
   </g>
   <g id="FillBetweenPolyCollection_1">
    <defs>
     <path id="m2948cf6203" d="M 201.316006 -49.930375 
L 68.200244 -49.930375 
L 65.378184 -52.374011 
L 63.772886 -54.817648 
L 63.334125 -57.261284 
L 63.943024 -59.70492 
L 65.438355 -62.148557 
L 67.643503 -64.592193 
L 70.388657 -67.03583 
L 73.524918 -69.479466 
L 76.92955 -71.923102 
L 80.503973 -74.366739 
L 84.167449 -76.810375 
L 87.84972 -79.254011 
L 91.485221 -81.697648 
L 95.010275 -84.141284 
L 98.363422 -86.58492 
L 101.488117 -89.028557 
L 104.336513 -91.472193 
L 106.873066 -93.91583 
L 109.077011 -96.359466 
L 110.943207 -98.803102 
L 112.481304 -101.246739 
L 113.713523 -103.690375 
L 114.671504 -106.134011 
L 115.392756 -108.577648 
L 115.91715 -111.021284 
L 116.283826 -113.46492 
L 116.528731 -115.908557 
L 116.682877 -118.352193 
L 116.771321 -120.79583 
L 116.812768 -123.239466 
L 116.819687 -125.683102 
L 116.79878 -128.126739 
L 116.751696 -130.570375 
L 116.675877 -133.014011 
L 116.565469 -135.457648 
L 116.41225 -137.901284 
L 116.206543 -140.34492 
L 115.938075 -142.788557 
L 115.596736 -145.232193 
L 115.173204 -147.67583 
L 114.659408 -150.119466 
L 114.048821 -152.563102 
L 113.336624 -155.006739 
L 112.519815 -157.450375 
L 111.597324 -159.894011 
L 110.570219 -162.337648 
L 109.442008 -164.781284 
L 108.218983 -167.22492 
L 106.910515 -169.668557 
L 105.529123 -172.112193 
L 104.090194 -174.55583 
L 102.611245 -176.999466 
L 101.110735 -179.443102 
L 99.606549 -181.886739 
L 98.114378 -184.330375 
L 96.646302 -186.774011 
L 95.209887 -189.217648 
L 93.808056 -191.661284 
L 92.439875 -194.10492 
L 91.102223 -196.548557 
L 89.792145 -198.992193 
L 88.509543 -201.43583 
L 87.259737 -203.879466 
L 86.055447 -206.323102 
L 84.917771 -208.766739 
L 83.875917 -211.210375 
L 82.965632 -213.654011 
L 82.226486 -216.097648 
L 81.69838 -218.541284 
L 81.417779 -220.98492 
L 81.414181 -223.428557 
L 81.707313 -225.872193 
L 82.305358 -228.31583 
L 83.20435 -230.759466 
L 84.388684 -233.203102 
L 85.832533 -235.646739 
L 87.501922 -238.090375 
L 89.357193 -240.534011 
L 91.355651 -242.977648 
L 93.454246 -245.421284 
L 95.612151 -247.86492 
L 97.793123 -250.308557 
L 99.967469 -252.752193 
L 102.113417 -255.19583 
L 104.217698 -257.639466 
L 106.275188 -260.083102 
L 108.287587 -262.526739 
L 110.261252 -264.970375 
L 112.204483 -267.414011 
L 114.124639 -269.857648 
L 116.025533 -272.301284 
L 117.905522 -274.74492 
L 119.756566 -277.188557 
L 121.564395 -279.632193 
L 123.309716 -282.07583 
L 124.97024 -284.519466 
L 126.523167 -286.963102 
L 127.947749 -289.406739 
L 129.227519 -291.850375 
L 140.288731 -291.850375 
L 140.288731 -291.850375 
L 141.568501 -289.406739 
L 142.993083 -286.963102 
L 144.54601 -284.519466 
L 146.206534 -282.07583 
L 147.951855 -279.632193 
L 149.759684 -277.188557 
L 151.610728 -274.74492 
L 153.490717 -272.301284 
L 155.391611 -269.857648 
L 157.311767 -267.414011 
L 159.254998 -264.970375 
L 161.228663 -262.526739 
L 163.241062 -260.083102 
L 165.298552 -257.639466 
L 167.402833 -255.19583 
L 169.548781 -252.752193 
L 171.723127 -250.308557 
L 173.904099 -247.86492 
L 176.062004 -245.421284 
L 178.160599 -242.977648 
L 180.159057 -240.534011 
L 182.014328 -238.090375 
L 183.683717 -235.646739 
L 185.127566 -233.203102 
L 186.3119 -230.759466 
L 187.210892 -228.31583 
L 187.808937 -225.872193 
L 188.102069 -223.428557 
L 188.098471 -220.98492 
L 187.81787 -218.541284 
L 187.289764 -216.097648 
L 186.550618 -213.654011 
L 185.640333 -211.210375 
L 184.598479 -208.766739 
L 183.460803 -206.323102 
L 182.256513 -203.879466 
L 181.006707 -201.43583 
L 179.724105 -198.992193 
L 178.414027 -196.548557 
L 177.076375 -194.10492 
L 175.708194 -191.661284 
L 174.306363 -189.217648 
L 172.869948 -186.774011 
L 171.401872 -184.330375 
L 169.909701 -181.886739 
L 168.405515 -179.443102 
L 166.905005 -176.999466 
L 165.426056 -174.55583 
L 163.987127 -172.112193 
L 162.605735 -169.668557 
L 161.297267 -167.22492 
L 160.074242 -164.781284 
L 158.946031 -162.337648 
L 157.918926 -159.894011 
L 156.996435 -157.450375 
L 156.179626 -155.006739 
L 155.467429 -152.563102 
L 154.856842 -150.119466 
L 154.343046 -147.67583 
L 153.919514 -145.232193 
L 153.578175 -142.788557 
L 153.309707 -140.34492 
L 153.104 -137.901284 
L 152.950781 -135.457648 
L 152.840373 -133.014011 
L 152.764554 -130.570375 
L 152.71747 -128.126739 
L 152.696563 -125.683102 
L 152.703482 -123.239466 
L 152.744929 -120.79583 
L 152.833373 -118.352193 
L 152.987519 -115.908557 
L 153.232424 -113.46492 
L 153.5991 -111.021284 
L 154.123494 -108.577648 
L 154.844746 -106.134011 
L 155.802727 -103.690375 
L 157.034946 -101.246739 
L 158.573043 -98.803102 
L 160.439239 -96.359466 
L 162.643184 -93.91583 
L 165.179737 -91.472193 
L 168.028133 -89.028557 
L 171.152828 -86.58492 
L 174.505975 -84.141284 
L 178.031029 -81.697648 
L 181.66653 -79.254011 
L 185.348801 -76.810375 
L 189.012277 -74.366739 
L 192.5867 -71.923102 
L 195.991332 -69.479466 
L 199.127593 -67.03583 
L 201.872747 -64.592193 
L 204.077895 -62.148557 
L 205.573226 -59.70492 
L 206.182125 -57.261284 
L 205.743364 -54.817648 
L 204.138066 -52.374011 
L 201.316006 -49.930375 
z
" style="stroke: #191919; stroke-opacity: 0.75; stroke-width: 1.25"/>
    </defs>
    <g clip-path="url(#pc2b44c57b4)">
     <use xlink:href="#m2948cf6203" x="0" y="311.146375" style="fill: #377182; fill-opacity: 0.75; stroke: #191919; stroke-opacity: 0.75; stroke-width: 1.25"/>
    </g>
   </g>
   <g id="FillBetweenPolyCollection_2">
    <defs>
     <path id="mc415ebdee5" d="M 322.690479 -49.930375 
L 303.945771 -49.930375 
L 302.819758 -52.361852 
L 301.640352 -54.793329 
L 300.286119 -57.224805 
L 298.656331 -59.656282 
L 296.704964 -62.087759 
L 294.449396 -64.519236 
L 291.953809 -66.950713 
L 289.300579 -69.382189 
L 286.566633 -71.813666 
L 283.814488 -74.245143 
L 281.095958 -76.67662 
L 278.458762 -79.108097 
L 275.947085 -81.539573 
L 273.594294 -83.97105 
L 271.413492 -86.402527 
L 269.394059 -88.834004 
L 267.508978 -91.265481 
L 265.731417 -93.696957 
L 264.05398 -96.128434 
L 262.502815 -98.559911 
L 261.141061 -100.991388 
L 260.060157 -103.422865 
L 259.360868 -105.854341 
L 259.127864 -108.285818 
L 259.4026 -110.717295 
L 260.159963 -113.148772 
L 261.294899 -115.580249 
L 262.625033 -118.011725 
L 263.912883 -120.443202 
L 264.906179 -122.874679 
L 265.388188 -125.306156 
L 265.224508 -127.737633 
L 264.391627 -130.169109 
L 262.977102 -132.600586 
L 261.150565 -135.032063 
L 259.115076 -137.46354 
L 257.055141 -139.895017 
L 255.097879 -142.326493 
L 253.297688 -144.75797 
L 251.645513 -147.189447 
L 250.095798 -149.620924 
L 248.600027 -152.052401 
L 247.13579 -154.483877 
L 245.723099 -156.915354 
L 244.423813 -159.346831 
L 243.324835 -161.778308 
L 242.510527 -164.209785 
L 242.033527 -166.641261 
L 241.894125 -169.072738 
L 242.035826 -171.504215 
L 242.359271 -173.935692 
L 242.750335 -176.367169 
L 243.113364 -178.798645 
L 243.398769 -181.230122 
L 243.616177 -183.661599 
L 243.829442 -186.093076 
L 244.136215 -188.524553 
L 244.640058 -190.956029 
L 245.424909 -193.387506 
L 246.539295 -195.818983 
L 247.992504 -198.25046 
L 249.759815 -200.681937 
L 251.79158 -203.113413 
L 254.022139 -205.54489 
L 256.377641 -207.976367 
L 258.78418 -210.407844 
L 261.177533 -212.839321 
L 263.513459 -215.270797 
L 265.774919 -217.702274 
L 267.972035 -220.133751 
L 270.133002 -222.565228 
L 272.288383 -224.996705 
L 274.454882 -227.428181 
L 276.625457 -229.859658 
L 278.769843 -232.291135 
L 280.844658 -234.722612 
L 282.807897 -237.154089 
L 284.631171 -239.585565 
L 286.305082 -242.017042 
L 287.837356 -244.448519 
L 289.247113 -246.879996 
L 290.559892 -249.311473 
L 291.806177 -251.742949 
L 293.022596 -254.174426 
L 294.252203 -256.605903 
L 295.540138 -259.03738 
L 296.923863 -261.468857 
L 298.421071 -263.900333 
L 300.020879 -266.33181 
L 301.683124 -268.763287 
L 303.346946 -271.194764 
L 304.945482 -273.626241 
L 306.420895 -276.057717 
L 307.734495 -278.489194 
L 308.86956 -280.920671 
L 309.827856 -283.352148 
L 310.622956 -285.783625 
L 311.27357 -288.215101 
L 311.798898 -290.646578 
L 314.837352 -290.646578 
L 314.837352 -290.646578 
L 315.36268 -288.215101 
L 316.013294 -285.783625 
L 316.808394 -283.352148 
L 317.76669 -280.920671 
L 318.901755 -278.489194 
L 320.215355 -276.057717 
L 321.690768 -273.626241 
L 323.289304 -271.194764 
L 324.953126 -268.763287 
L 326.615371 -266.33181 
L 328.215179 -263.900333 
L 329.712387 -261.468857 
L 331.096112 -259.03738 
L 332.384047 -256.605903 
L 333.613654 -254.174426 
L 334.830073 -251.742949 
L 336.076358 -249.311473 
L 337.389137 -246.879996 
L 338.798894 -244.448519 
L 340.331168 -242.017042 
L 342.005079 -239.585565 
L 343.828353 -237.154089 
L 345.791592 -234.722612 
L 347.866407 -232.291135 
L 350.010793 -229.859658 
L 352.181368 -227.428181 
L 354.347867 -224.996705 
L 356.503248 -222.565228 
L 358.664215 -220.133751 
L 360.861331 -217.702274 
L 363.122791 -215.270797 
L 365.458717 -212.839321 
L 367.85207 -210.407844 
L 370.258609 -207.976367 
L 372.614111 -205.54489 
L 374.84467 -203.113413 
L 376.876435 -200.681937 
L 378.643746 -198.25046 
L 380.096955 -195.818983 
L 381.211341 -193.387506 
L 381.996192 -190.956029 
L 382.500035 -188.524553 
L 382.806808 -186.093076 
L 383.020073 -183.661599 
L 383.237481 -181.230122 
L 383.522886 -178.798645 
L 383.885915 -176.367169 
L 384.276979 -173.935692 
L 384.600424 -171.504215 
L 384.742125 -169.072738 
L 384.602723 -166.641261 
L 384.125723 -164.209785 
L 383.311415 -161.778308 
L 382.212437 -159.346831 
L 380.913151 -156.915354 
L 379.50046 -154.483877 
L 378.036223 -152.052401 
L 376.540452 -149.620924 
L 374.990737 -147.189447 
L 373.338562 -144.75797 
L 371.538371 -142.326493 
L 369.581109 -139.895017 
L 367.521174 -137.46354 
L 365.485685 -135.032063 
L 363.659148 -132.600586 
L 362.244623 -130.169109 
L 361.411742 -127.737633 
L 361.248062 -125.306156 
L 361.730071 -122.874679 
L 362.723367 -120.443202 
L 364.011217 -118.011725 
L 365.341351 -115.580249 
L 366.476287 -113.148772 
L 367.23365 -110.717295 
L 367.508386 -108.285818 
L 367.275382 -105.854341 
L 366.576093 -103.422865 
L 365.495189 -100.991388 
L 364.133435 -98.559911 
L 362.58227 -96.128434 
L 360.904833 -93.696957 
L 359.127272 -91.265481 
L 357.242191 -88.834004 
L 355.222758 -86.402527 
L 353.041956 -83.97105 
L 350.689165 -81.539573 
L 348.177488 -79.108097 
L 345.540292 -76.67662 
L 342.821762 -74.245143 
L 340.069617 -71.813666 
L 337.335671 -69.382189 
L 334.682441 -66.950713 
L 332.186854 -64.519236 
L 329.931286 -62.087759 
L 327.979919 -59.656282 
L 326.350131 -57.224805 
L 324.995898 -54.793329 
L 323.816492 -52.361852 
L 322.690479 -49.930375 
z
" style="stroke: #191919; stroke-opacity: 0.75; stroke-width: 1.25"/>
    </defs>
    <g clip-path="url(#pc2b44c57b4)">
     <use xlink:href="#mc415ebdee5" x="0" y="311.146375" style="fill: #3e0b4a; fill-opacity: 0.75; stroke: #191919; stroke-opacity: 0.75; stroke-width: 1.25"/>
    </g>
   </g>
   <g id="matplotlib.axis_1">
    <g id="xtick_1">
     <g id="text_1">
      <!-- no -->
      <g transform="translate(128.53 287.910437) scale(0.1 -0.1)">
       <defs>
        <path id="DejaVuSans-6e" d="M 3513 2113 
L 3513 0 
L 2938 0 
L 2938 2094 
Q 2938 2591 2744 2837 
Q 2550 3084 2163 3084 
Q 1697 3084 1428 2787 
Q 1159 2491 1159 1978 
L 1159 0 
L 581 0 
L 581 3500 
L 1159 3500 
L 1159 2956 
Q 1366 3272 1645 3428 
Q 1925 3584 2291 3584 
Q 2894 3584 3203 3211 
Q 3513 2838 3513 2113 
z
" transform="scale(0.015625)"/>
        <path id="DejaVuSans-6f" d="M 1959 3097 
Q 1497 3097 1228 2736 
Q 959 2375 959 1747 
Q 959 1119 1226 758 
Q 1494 397 1959 397 
Q 2419 397 2687 759 
Q 2956 1122 2956 1747 
Q 2956 2369 2687 2733 
Q 2419 3097 1959 3097 
z
M 1959 3584 
Q 2709 3584 3137 3096 
Q 3566 2609 3566 1747 
Q 3566 888 3137 398 
Q 2709 -91 1959 -91 
Q 1206 -91 779 398 
Q 353 888 353 1747 
Q 353 2609 779 3096 
Q 1206 3584 1959 3584 
z
" transform="scale(0.015625)"/>
       </defs>
       <use xlink:href="#DejaVuSans-6e"/>
       <use xlink:href="#DejaVuSans-6f" transform="translate(63.378906 0)"/>
      </g>
     </g>
    </g>
    <g id="xtick_2">
     <g id="text_2">
      <!-- yes -->
      <g transform="translate(304.6775 287.910437) scale(0.1 -0.1)">
       <defs>
        <path id="DejaVuSans-79" d="M 2059 -325 
Q 1816 -950 1584 -1140 
Q 1353 -1331 966 -1331 
L 506 -1331 
L 506 -850 
L 844 -850 
Q 1081 -850 1212 -737 
Q 1344 -625 1503 -206 
L 1606 56 
L 191 3500 
L 800 3500 
L 1894 763 
L 2988 3500 
L 3597 3500 
L 2059 -325 
z
" transform="scale(0.015625)"/>
        <path id="DejaVuSans-65" d="M 3597 1894 
L 3597 1613 
L 953 1613 
Q 991 1019 1311 708 
Q 1631 397 2203 397 
Q 2534 397 2845 478 
Q 3156 559 3463 722 
L 3463 178 
Q 3153 47 2828 -22 
Q 2503 -91 2169 -91 
Q 1331 -91 842 396 
Q 353 884 353 1716 
Q 353 2575 817 3079 
Q 1281 3584 2069 3584 
Q 2775 3584 3186 3129 
Q 3597 2675 3597 1894 
z
M 3022 2063 
Q 3016 2534 2758 2815 
Q 2500 3097 2075 3097 
Q 1594 3097 1305 2825 
Q 1016 2553 972 2059 
L 3022 2063 
z
" transform="scale(0.015625)"/>
        <path id="DejaVuSans-73" d="M 2834 3397 
L 2834 2853 
Q 2591 2978 2328 3040 
Q 2066 3103 1784 3103 
Q 1356 3103 1142 2972 
Q 928 2841 928 2578 
Q 928 2378 1081 2264 
Q 1234 2150 1697 2047 
L 1894 2003 
Q 2506 1872 2764 1633 
Q 3022 1394 3022 966 
Q 3022 478 2636 193 
Q 2250 -91 1575 -91 
Q 1294 -91 989 -36 
Q 684 19 347 128 
L 347 722 
Q 666 556 975 473 
Q 1284 391 1588 391 
Q 1994 391 2212 530 
Q 2431 669 2431 922 
Q 2431 1156 2273 1281 
Q 2116 1406 1581 1522 
L 1381 1569 
Q 847 1681 609 1914 
Q 372 2147 372 2553 
Q 372 3047 722 3315 
Q 1072 3584 1716 3584 
Q 2034 3584 2315 3537 
Q 2597 3491 2834 3397 
z
" transform="scale(0.015625)"/>
       </defs>
       <use xlink:href="#DejaVuSans-79"/>
       <use xlink:href="#DejaVuSans-65" transform="translate(59.179688 0)"/>
       <use xlink:href="#DejaVuSans-73" transform="translate(120.703125 0)"/>
      </g>
     </g>
    </g>
    <g id="text_3">
     <!-- matching_structure -->
     <g transform="translate(175.306875 301.588562) scale(0.1 -0.1)">
      <defs>
       <path id="DejaVuSans-6d" d="M 3328 2828 
Q 3544 3216 3844 3400 
Q 4144 3584 4550 3584 
Q 5097 3584 5394 3201 
Q 5691 2819 5691 2113 
L 5691 0 
L 5113 0 
L 5113 2094 
Q 5113 2597 4934 2840 
Q 4756 3084 4391 3084 
Q 3944 3084 3684 2787 
Q 3425 2491 3425 1978 
L 3425 0 
L 2847 0 
L 2847 2094 
Q 2847 2600 2669 2842 
Q 2491 3084 2119 3084 
Q 1678 3084 1418 2786 
Q 1159 2488 1159 1978 
L 1159 0 
L 581 0 
L 581 3500 
L 1159 3500 
L 1159 2956 
Q 1356 3278 1631 3431 
Q 1906 3584 2284 3584 
Q 2666 3584 2933 3390 
Q 3200 3197 3328 2828 
z
" transform="scale(0.015625)"/>
       <path id="DejaVuSans-61" d="M 2194 1759 
Q 1497 1759 1228 1600 
Q 959 1441 959 1056 
Q 959 750 1161 570 
Q 1363 391 1709 391 
Q 2188 391 2477 730 
Q 2766 1069 2766 1631 
L 2766 1759 
L 2194 1759 
z
M 3341 1997 
L 3341 0 
L 2766 0 
L 2766 531 
Q 2569 213 2275 61 
Q 1981 -91 1556 -91 
Q 1019 -91 701 211 
Q 384 513 384 1019 
Q 384 1609 779 1909 
Q 1175 2209 1959 2209 
L 2766 2209 
L 2766 2266 
Q 2766 2663 2505 2880 
Q 2244 3097 1772 3097 
Q 1472 3097 1187 3025 
Q 903 2953 641 2809 
L 641 3341 
Q 956 3463 1253 3523 
Q 1550 3584 1831 3584 
Q 2591 3584 2966 3190 
Q 3341 2797 3341 1997 
z
" transform="scale(0.015625)"/>
       <path id="DejaVuSans-74" d="M 1172 4494 
L 1172 3500 
L 2356 3500 
L 2356 3053 
L 1172 3053 
L 1172 1153 
Q 1172 725 1289 603 
Q 1406 481 1766 481 
L 2356 481 
L 2356 0 
L 1766 0 
Q 1100 0 847 248 
Q 594 497 594 1153 
L 594 3053 
L 172 3053 
L 172 3500 
L 594 3500 
L 594 4494 
L 1172 4494 
z
" transform="scale(0.015625)"/>
       <path id="DejaVuSans-63" d="M 3122 3366 
L 3122 2828 
Q 2878 2963 2633 3030 
Q 2388 3097 2138 3097 
Q 1578 3097 1268 2742 
Q 959 2388 959 1747 
Q 959 1106 1268 751 
Q 1578 397 2138 397 
Q 2388 397 2633 464 
Q 2878 531 3122 666 
L 3122 134 
Q 2881 22 2623 -34 
Q 2366 -91 2075 -91 
Q 1284 -91 818 406 
Q 353 903 353 1747 
Q 353 2603 823 3093 
Q 1294 3584 2113 3584 
Q 2378 3584 2631 3529 
Q 2884 3475 3122 3366 
z
" transform="scale(0.015625)"/>
       <path id="DejaVuSans-68" d="M 3513 2113 
L 3513 0 
L 2938 0 
L 2938 2094 
Q 2938 2591 2744 2837 
Q 2550 3084 2163 3084 
Q 1697 3084 1428 2787 
Q 1159 2491 1159 1978 
L 1159 0 
L 581 0 
L 581 4863 
L 1159 4863 
L 1159 2956 
Q 1366 3272 1645 3428 
Q 1925 3584 2291 3584 
Q 2894 3584 3203 3211 
Q 3513 2838 3513 2113 
z
" transform="scale(0.015625)"/>
       <path id="DejaVuSans-69" d="M 603 3500 
L 1178 3500 
L 1178 0 
L 603 0 
L 603 3500 
z
M 603 4863 
L 1178 4863 
L 1178 4134 
L 603 4134 
L 603 4863 
z
" transform="scale(0.015625)"/>
       <path id="DejaVuSans-67" d="M 2906 1791 
Q 2906 2416 2648 2759 
Q 2391 3103 1925 3103 
Q 1463 3103 1205 2759 
Q 947 2416 947 1791 
Q 947 1169 1205 825 
Q 1463 481 1925 481 
Q 2391 481 2648 825 
Q 2906 1169 2906 1791 
z
M 3481 434 
Q 3481 -459 3084 -895 
Q 2688 -1331 1869 -1331 
Q 1566 -1331 1297 -1286 
Q 1028 -1241 775 -1147 
L 775 -588 
Q 1028 -725 1275 -790 
Q 1522 -856 1778 -856 
Q 2344 -856 2625 -561 
Q 2906 -266 2906 331 
L 2906 616 
Q 2728 306 2450 153 
Q 2172 0 1784 0 
Q 1141 0 747 490 
Q 353 981 353 1791 
Q 353 2603 747 3093 
Q 1141 3584 1784 3584 
Q 2172 3584 2450 3431 
Q 2728 3278 2906 2969 
L 2906 3500 
L 3481 3500 
L 3481 434 
z
" transform="scale(0.015625)"/>
       <path id="DejaVuSans-5f" d="M 3263 -1063 
L 3263 -1509 
L -63 -1509 
L -63 -1063 
L 3263 -1063 
z
" transform="scale(0.015625)"/>
       <path id="DejaVuSans-72" d="M 2631 2963 
Q 2534 3019 2420 3045 
Q 2306 3072 2169 3072 
Q 1681 3072 1420 2755 
Q 1159 2438 1159 1844 
L 1159 0 
L 581 0 
L 581 3500 
L 1159 3500 
L 1159 2956 
Q 1341 3275 1631 3429 
Q 1922 3584 2338 3584 
Q 2397 3584 2469 3576 
Q 2541 3569 2628 3553 
L 2631 2963 
z
" transform="scale(0.015625)"/>
       <path id="DejaVuSans-75" d="M 544 1381 
L 544 3500 
L 1119 3500 
L 1119 1403 
Q 1119 906 1312 657 
Q 1506 409 1894 409 
Q 2359 409 2629 706 
Q 2900 1003 2900 1516 
L 2900 3500 
L 3475 3500 
L 3475 0 
L 2900 0 
L 2900 538 
Q 2691 219 2414 64 
Q 2138 -91 1772 -91 
Q 1169 -91 856 284 
Q 544 659 544 1381 
z
M 1991 3584 
L 1991 3584 
z
" transform="scale(0.015625)"/>
      </defs>
      <use xlink:href="#DejaVuSans-6d"/>
      <use xlink:href="#DejaVuSans-61" transform="translate(97.412109 0)"/>
      <use xlink:href="#DejaVuSans-74" transform="translate(158.691406 0)"/>
      <use xlink:href="#DejaVuSans-63" transform="translate(197.900391 0)"/>
      <use xlink:href="#DejaVuSans-68" transform="translate(252.880859 0)"/>
      <use xlink:href="#DejaVuSans-69" transform="translate(316.259766 0)"/>
      <use xlink:href="#DejaVuSans-6e" transform="translate(344.042969 0)"/>
      <use xlink:href="#DejaVuSans-67" transform="translate(407.421875 0)"/>
      <use xlink:href="#DejaVuSans-5f" transform="translate(470.898438 0)"/>
      <use xlink:href="#DejaVuSans-73" transform="translate(520.898438 0)"/>
      <use xlink:href="#DejaVuSans-74" transform="translate(572.998047 0)"/>
      <use xlink:href="#DejaVuSans-72" transform="translate(612.207031 0)"/>
      <use xlink:href="#DejaVuSans-75" transform="translate(653.320312 0)"/>
      <use xlink:href="#DejaVuSans-63" transform="translate(716.699219 0)"/>
      <use xlink:href="#DejaVuSans-74" transform="translate(771.679688 0)"/>
      <use xlink:href="#DejaVuSans-75" transform="translate(810.888672 0)"/>
      <use xlink:href="#DejaVuSans-72" transform="translate(874.267578 0)"/>
      <use xlink:href="#DejaVuSans-65" transform="translate(913.130859 0)"/>
     </g>
    </g>
   </g>
   <g id="matplotlib.axis_2">
    <g id="ytick_1">
     <g id="line2d_1">
      <defs>
       <path id="m90251e423b" d="M 0 0 
L -3.5 0 
" style="stroke: #000000; stroke-width: 0.8"/>
      </defs>
      <g>
       <use xlink:href="#m90251e423b" x="45.478125" y="261.216" style="stroke: #000000; stroke-width: 0.8"/>
      </g>
     </g>
     <g id="text_4">
      <!-- $\mathdefault{10^{0}}$ -->
      <g transform="translate(20.878125 265.015219) scale(0.1 -0.1)">
       <defs>
        <path id="DejaVuSans-31" d="M 794 531 
L 1825 531 
L 1825 4091 
L 703 3866 
L 703 4441 
L 1819 4666 
L 2450 4666 
L 2450 531 
L 3481 531 
L 3481 0 
L 794 0 
L 794 531 
z
" transform="scale(0.015625)"/>
        <path id="DejaVuSans-30" d="M 2034 4250 
Q 1547 4250 1301 3770 
Q 1056 3291 1056 2328 
Q 1056 1369 1301 889 
Q 1547 409 2034 409 
Q 2525 409 2770 889 
Q 3016 1369 3016 2328 
Q 3016 3291 2770 3770 
Q 2525 4250 2034 4250 
z
M 2034 4750 
Q 2819 4750 3233 4129 
Q 3647 3509 3647 2328 
Q 3647 1150 3233 529 
Q 2819 -91 2034 -91 
Q 1250 -91 836 529 
Q 422 1150 422 2328 
Q 422 3509 836 4129 
Q 1250 4750 2034 4750 
z
" transform="scale(0.015625)"/>
       </defs>
       <use xlink:href="#DejaVuSans-31" transform="translate(0 0.765625)"/>
       <use xlink:href="#DejaVuSans-30" transform="translate(63.623047 0.765625)"/>
       <use xlink:href="#DejaVuSans-30" transform="translate(128.203125 39.046875) scale(0.7)"/>
      </g>
     </g>
    </g>
    <g id="ytick_2">
     <g id="line2d_2">
      <g>
       <use xlink:href="#m90251e423b" x="45.478125" y="204.710479" style="stroke: #000000; stroke-width: 0.8"/>
      </g>
     </g>
     <g id="text_5">
      <!-- $\mathdefault{10^{1}}$ -->
      <g transform="translate(20.878125 208.509698) scale(0.1 -0.1)">
       <use xlink:href="#DejaVuSans-31" transform="translate(0 0.684375)"/>
       <use xlink:href="#DejaVuSans-30" transform="translate(63.623047 0.684375)"/>
       <use xlink:href="#DejaVuSans-31" transform="translate(128.203125 38.965625) scale(0.7)"/>
      </g>
     </g>
    </g>
    <g id="ytick_3">
     <g id="line2d_3">
      <g>
       <use xlink:href="#m90251e423b" x="45.478125" y="148.204959" style="stroke: #000000; stroke-width: 0.8"/>
      </g>
     </g>
     <g id="text_6">
      <!-- $\mathdefault{10^{2}}$ -->
      <g transform="translate(20.878125 152.004178) scale(0.1 -0.1)">
       <defs>
        <path id="DejaVuSans-32" d="M 1228 531 
L 3431 531 
L 3431 0 
L 469 0 
L 469 531 
Q 828 903 1448 1529 
Q 2069 2156 2228 2338 
Q 2531 2678 2651 2914 
Q 2772 3150 2772 3378 
Q 2772 3750 2511 3984 
Q 2250 4219 1831 4219 
Q 1534 4219 1204 4116 
Q 875 4013 500 3803 
L 500 4441 
Q 881 4594 1212 4672 
Q 1544 4750 1819 4750 
Q 2544 4750 2975 4387 
Q 3406 4025 3406 3419 
Q 3406 3131 3298 2873 
Q 3191 2616 2906 2266 
Q 2828 2175 2409 1742 
Q 1991 1309 1228 531 
z
" transform="scale(0.015625)"/>
       </defs>
       <use xlink:href="#DejaVuSans-31" transform="translate(0 0.765625)"/>
       <use xlink:href="#DejaVuSans-30" transform="translate(63.623047 0.765625)"/>
       <use xlink:href="#DejaVuSans-32" transform="translate(128.203125 39.046875) scale(0.7)"/>
      </g>
     </g>
    </g>
    <g id="ytick_4">
     <g id="line2d_4">
      <g>
       <use xlink:href="#m90251e423b" x="45.478125" y="91.699438" style="stroke: #000000; stroke-width: 0.8"/>
      </g>
     </g>
     <g id="text_7">
      <!-- $\mathdefault{10^{3}}$ -->
      <g transform="translate(20.878125 95.498657) scale(0.1 -0.1)">
       <defs>
        <path id="DejaVuSans-33" d="M 2597 2516 
Q 3050 2419 3304 2112 
Q 3559 1806 3559 1356 
Q 3559 666 3084 287 
Q 2609 -91 1734 -91 
Q 1441 -91 1130 -33 
Q 819 25 488 141 
L 488 750 
Q 750 597 1062 519 
Q 1375 441 1716 441 
Q 2309 441 2620 675 
Q 2931 909 2931 1356 
Q 2931 1769 2642 2001 
Q 2353 2234 1838 2234 
L 1294 2234 
L 1294 2753 
L 1863 2753 
Q 2328 2753 2575 2939 
Q 2822 3125 2822 3475 
Q 2822 3834 2567 4026 
Q 2313 4219 1838 4219 
Q 1578 4219 1281 4162 
Q 984 4106 628 3988 
L 628 4550 
Q 988 4650 1302 4700 
Q 1616 4750 1894 4750 
Q 2613 4750 3031 4423 
Q 3450 4097 3450 3541 
Q 3450 3153 3228 2886 
Q 3006 2619 2597 2516 
z
" transform="scale(0.015625)"/>
       </defs>
       <use xlink:href="#DejaVuSans-31" transform="translate(0 0.765625)"/>
       <use xlink:href="#DejaVuSans-30" transform="translate(63.623047 0.765625)"/>
       <use xlink:href="#DejaVuSans-33" transform="translate(128.203125 39.046875) scale(0.7)"/>
      </g>
     </g>
    </g>
    <g id="ytick_5">
     <g id="line2d_5">
      <g>
       <use xlink:href="#m90251e423b" x="45.478125" y="35.193918" style="stroke: #000000; stroke-width: 0.8"/>
      </g>
     </g>
     <g id="text_8">
      <!-- $\mathdefault{10^{4}}$ -->
      <g transform="translate(20.878125 38.993136) scale(0.1 -0.1)">
       <defs>
        <path id="DejaVuSans-34" d="M 2419 4116 
L 825 1625 
L 2419 1625 
L 2419 4116 
z
M 2253 4666 
L 3047 4666 
L 3047 1625 
L 3713 1625 
L 3713 1100 
L 3047 1100 
L 3047 0 
L 2419 0 
L 2419 1100 
L 313 1100 
L 313 1709 
L 2253 4666 
z
" transform="scale(0.015625)"/>
       </defs>
       <use xlink:href="#DejaVuSans-31" transform="translate(0 0.684375)"/>
       <use xlink:href="#DejaVuSans-30" transform="translate(63.623047 0.684375)"/>
       <use xlink:href="#DejaVuSans-34" transform="translate(128.203125 38.965625) scale(0.7)"/>
      </g>
     </g>
    </g>
    <g id="ytick_6">
     <g id="line2d_6">
      <defs>
       <path id="m2b67b51531" d="M 0 0 
L -2 0 
" style="stroke: #000000; stroke-width: 0.6"/>
      </defs>
      <g>
       <use xlink:href="#m2b67b51531" x="45.478125" y="269.968816" style="stroke: #000000; stroke-width: 0.6"/>
      </g>
     </g>
    </g>
    <g id="ytick_7">
     <g id="line2d_7">
      <g>
       <use xlink:href="#m2b67b51531" x="45.478125" y="266.691951" style="stroke: #000000; stroke-width: 0.6"/>
      </g>
     </g>
    </g>
    <g id="ytick_8">
     <g id="line2d_8">
      <g>
       <use xlink:href="#m2b67b51531" x="45.478125" y="263.801551" style="stroke: #000000; stroke-width: 0.6"/>
      </g>
     </g>
    </g>
    <g id="ytick_9">
     <g id="line2d_9">
      <g>
       <use xlink:href="#m2b67b51531" x="45.478125" y="244.206143" style="stroke: #000000; stroke-width: 0.6"/>
      </g>
     </g>
    </g>
    <g id="ytick_10">
     <g id="line2d_10">
      <g>
       <use xlink:href="#m2b67b51531" x="45.478125" y="234.256015" style="stroke: #000000; stroke-width: 0.6"/>
      </g>
     </g>
    </g>
    <g id="ytick_11">
     <g id="line2d_11">
      <g>
       <use xlink:href="#m2b67b51531" x="45.478125" y="227.196287" style="stroke: #000000; stroke-width: 0.6"/>
      </g>
     </g>
    </g>
    <g id="ytick_12">
     <g id="line2d_12">
      <g>
       <use xlink:href="#m2b67b51531" x="45.478125" y="221.720336" style="stroke: #000000; stroke-width: 0.6"/>
      </g>
     </g>
    </g>
    <g id="ytick_13">
     <g id="line2d_13">
      <g>
       <use xlink:href="#m2b67b51531" x="45.478125" y="217.246158" style="stroke: #000000; stroke-width: 0.6"/>
      </g>
     </g>
    </g>
    <g id="ytick_14">
     <g id="line2d_14">
      <g>
       <use xlink:href="#m2b67b51531" x="45.478125" y="213.463295" style="stroke: #000000; stroke-width: 0.6"/>
      </g>
     </g>
    </g>
    <g id="ytick_15">
     <g id="line2d_15">
      <g>
       <use xlink:href="#m2b67b51531" x="45.478125" y="210.18643" style="stroke: #000000; stroke-width: 0.6"/>
      </g>
     </g>
    </g>
    <g id="ytick_16">
     <g id="line2d_16">
      <g>
       <use xlink:href="#m2b67b51531" x="45.478125" y="207.29603" style="stroke: #000000; stroke-width: 0.6"/>
      </g>
     </g>
    </g>
    <g id="ytick_17">
     <g id="line2d_17">
      <g>
       <use xlink:href="#m2b67b51531" x="45.478125" y="187.700623" style="stroke: #000000; stroke-width: 0.6"/>
      </g>
     </g>
    </g>
    <g id="ytick_18">
     <g id="line2d_18">
      <g>
       <use xlink:href="#m2b67b51531" x="45.478125" y="177.750495" style="stroke: #000000; stroke-width: 0.6"/>
      </g>
     </g>
    </g>
    <g id="ytick_19">
     <g id="line2d_19">
      <g>
       <use xlink:href="#m2b67b51531" x="45.478125" y="170.690766" style="stroke: #000000; stroke-width: 0.6"/>
      </g>
     </g>
    </g>
    <g id="ytick_20">
     <g id="line2d_20">
      <g>
       <use xlink:href="#m2b67b51531" x="45.478125" y="165.214815" style="stroke: #000000; stroke-width: 0.6"/>
      </g>
     </g>
    </g>
    <g id="ytick_21">
     <g id="line2d_21">
      <g>
       <use xlink:href="#m2b67b51531" x="45.478125" y="160.740638" style="stroke: #000000; stroke-width: 0.6"/>
      </g>
     </g>
    </g>
    <g id="ytick_22">
     <g id="line2d_22">
      <g>
       <use xlink:href="#m2b67b51531" x="45.478125" y="156.957775" style="stroke: #000000; stroke-width: 0.6"/>
      </g>
     </g>
    </g>
    <g id="ytick_23">
     <g id="line2d_23">
      <g>
       <use xlink:href="#m2b67b51531" x="45.478125" y="153.68091" style="stroke: #000000; stroke-width: 0.6"/>
      </g>
     </g>
    </g>
    <g id="ytick_24">
     <g id="line2d_24">
      <g>
       <use xlink:href="#m2b67b51531" x="45.478125" y="150.79051" style="stroke: #000000; stroke-width: 0.6"/>
      </g>
     </g>
    </g>
    <g id="ytick_25">
     <g id="line2d_25">
      <g>
       <use xlink:href="#m2b67b51531" x="45.478125" y="131.195102" style="stroke: #000000; stroke-width: 0.6"/>
      </g>
     </g>
    </g>
    <g id="ytick_26">
     <g id="line2d_26">
      <g>
       <use xlink:href="#m2b67b51531" x="45.478125" y="121.244974" style="stroke: #000000; stroke-width: 0.6"/>
      </g>
     </g>
    </g>
    <g id="ytick_27">
     <g id="line2d_27">
      <g>
       <use xlink:href="#m2b67b51531" x="45.478125" y="114.185246" style="stroke: #000000; stroke-width: 0.6"/>
      </g>
     </g>
    </g>
    <g id="ytick_28">
     <g id="line2d_28">
      <g>
       <use xlink:href="#m2b67b51531" x="45.478125" y="108.709295" style="stroke: #000000; stroke-width: 0.6"/>
      </g>
     </g>
    </g>
    <g id="ytick_29">
     <g id="line2d_29">
      <g>
       <use xlink:href="#m2b67b51531" x="45.478125" y="104.235117" style="stroke: #000000; stroke-width: 0.6"/>
      </g>
     </g>
    </g>
    <g id="ytick_30">
     <g id="line2d_30">
      <g>
       <use xlink:href="#m2b67b51531" x="45.478125" y="100.452254" style="stroke: #000000; stroke-width: 0.6"/>
      </g>
     </g>
    </g>
    <g id="ytick_31">
     <g id="line2d_31">
      <g>
       <use xlink:href="#m2b67b51531" x="45.478125" y="97.175389" style="stroke: #000000; stroke-width: 0.6"/>
      </g>
     </g>
    </g>
    <g id="ytick_32">
     <g id="line2d_32">
      <g>
       <use xlink:href="#m2b67b51531" x="45.478125" y="94.284989" style="stroke: #000000; stroke-width: 0.6"/>
      </g>
     </g>
    </g>
    <g id="ytick_33">
     <g id="line2d_33">
      <g>
       <use xlink:href="#m2b67b51531" x="45.478125" y="74.689582" style="stroke: #000000; stroke-width: 0.6"/>
      </g>
     </g>
    </g>
    <g id="ytick_34">
     <g id="line2d_34">
      <g>
       <use xlink:href="#m2b67b51531" x="45.478125" y="64.739453" style="stroke: #000000; stroke-width: 0.6"/>
      </g>
     </g>
    </g>
    <g id="ytick_35">
     <g id="line2d_35">
      <g>
       <use xlink:href="#m2b67b51531" x="45.478125" y="57.679725" style="stroke: #000000; stroke-width: 0.6"/>
      </g>
     </g>
    </g>
    <g id="ytick_36">
     <g id="line2d_36">
      <g>
       <use xlink:href="#m2b67b51531" x="45.478125" y="52.203774" style="stroke: #000000; stroke-width: 0.6"/>
      </g>
     </g>
    </g>
    <g id="ytick_37">
     <g id="line2d_37">
      <g>
       <use xlink:href="#m2b67b51531" x="45.478125" y="47.729597" style="stroke: #000000; stroke-width: 0.6"/>
      </g>
     </g>
    </g>
    <g id="ytick_38">
     <g id="line2d_38">
      <g>
       <use xlink:href="#m2b67b51531" x="45.478125" y="43.946733" style="stroke: #000000; stroke-width: 0.6"/>
      </g>
     </g>
    </g>
    <g id="ytick_39">
     <g id="line2d_39">
      <g>
       <use xlink:href="#m2b67b51531" x="45.478125" y="40.669868" style="stroke: #000000; stroke-width: 0.6"/>
      </g>
     </g>
    </g>
    <g id="ytick_40">
     <g id="line2d_40">
      <g>
       <use xlink:href="#m2b67b51531" x="45.478125" y="37.779468" style="stroke: #000000; stroke-width: 0.6"/>
      </g>
     </g>
    </g>
    <g id="ytick_41">
     <g id="line2d_41">
      <g>
       <use xlink:href="#m2b67b51531" x="45.478125" y="18.184061" style="stroke: #000000; stroke-width: 0.6"/>
      </g>
     </g>
    </g>
    <g id="ytick_42">
     <g id="line2d_42">
      <g>
       <use xlink:href="#m2b67b51531" x="45.478125" y="8.233933" style="stroke: #000000; stroke-width: 0.6"/>
      </g>
     </g>
    </g>
    <g id="text_9">
     <!-- maximum MSA depth (log transformed) -->
     <g transform="translate(14.798438 239.646625) rotate(-90) scale(0.1 -0.1)">
      <defs>
       <path id="DejaVuSans-78" d="M 3513 3500 
L 2247 1797 
L 3578 0 
L 2900 0 
L 1881 1375 
L 863 0 
L 184 0 
L 1544 1831 
L 300 3500 
L 978 3500 
L 1906 2253 
L 2834 3500 
L 3513 3500 
z
" transform="scale(0.015625)"/>
       <path id="DejaVuSans-20" transform="scale(0.015625)"/>
       <path id="DejaVuSans-4d" d="M 628 4666 
L 1569 4666 
L 2759 1491 
L 3956 4666 
L 4897 4666 
L 4897 0 
L 4281 0 
L 4281 4097 
L 3078 897 
L 2444 897 
L 1241 4097 
L 1241 0 
L 628 0 
L 628 4666 
z
" transform="scale(0.015625)"/>
       <path id="DejaVuSans-53" d="M 3425 4513 
L 3425 3897 
Q 3066 4069 2747 4153 
Q 2428 4238 2131 4238 
Q 1616 4238 1336 4038 
Q 1056 3838 1056 3469 
Q 1056 3159 1242 3001 
Q 1428 2844 1947 2747 
L 2328 2669 
Q 3034 2534 3370 2195 
Q 3706 1856 3706 1288 
Q 3706 609 3251 259 
Q 2797 -91 1919 -91 
Q 1588 -91 1214 -16 
Q 841 59 441 206 
L 441 856 
Q 825 641 1194 531 
Q 1563 422 1919 422 
Q 2459 422 2753 634 
Q 3047 847 3047 1241 
Q 3047 1584 2836 1778 
Q 2625 1972 2144 2069 
L 1759 2144 
Q 1053 2284 737 2584 
Q 422 2884 422 3419 
Q 422 4038 858 4394 
Q 1294 4750 2059 4750 
Q 2388 4750 2728 4690 
Q 3069 4631 3425 4513 
z
" transform="scale(0.015625)"/>
       <path id="DejaVuSans-41" d="M 2188 4044 
L 1331 1722 
L 3047 1722 
L 2188 4044 
z
M 1831 4666 
L 2547 4666 
L 4325 0 
L 3669 0 
L 3244 1197 
L 1141 1197 
L 716 0 
L 50 0 
L 1831 4666 
z
" transform="scale(0.015625)"/>
       <path id="DejaVuSans-64" d="M 2906 2969 
L 2906 4863 
L 3481 4863 
L 3481 0 
L 2906 0 
L 2906 525 
Q 2725 213 2448 61 
Q 2172 -91 1784 -91 
Q 1150 -91 751 415 
Q 353 922 353 1747 
Q 353 2572 751 3078 
Q 1150 3584 1784 3584 
Q 2172 3584 2448 3432 
Q 2725 3281 2906 2969 
z
M 947 1747 
Q 947 1113 1208 752 
Q 1469 391 1925 391 
Q 2381 391 2643 752 
Q 2906 1113 2906 1747 
Q 2906 2381 2643 2742 
Q 2381 3103 1925 3103 
Q 1469 3103 1208 2742 
Q 947 2381 947 1747 
z
" transform="scale(0.015625)"/>
       <path id="DejaVuSans-70" d="M 1159 525 
L 1159 -1331 
L 581 -1331 
L 581 3500 
L 1159 3500 
L 1159 2969 
Q 1341 3281 1617 3432 
Q 1894 3584 2278 3584 
Q 2916 3584 3314 3078 
Q 3713 2572 3713 1747 
Q 3713 922 3314 415 
Q 2916 -91 2278 -91 
Q 1894 -91 1617 61 
Q 1341 213 1159 525 
z
M 3116 1747 
Q 3116 2381 2855 2742 
Q 2594 3103 2138 3103 
Q 1681 3103 1420 2742 
Q 1159 2381 1159 1747 
Q 1159 1113 1420 752 
Q 1681 391 2138 391 
Q 2594 391 2855 752 
Q 3116 1113 3116 1747 
z
" transform="scale(0.015625)"/>
       <path id="DejaVuSans-28" d="M 1984 4856 
Q 1566 4138 1362 3434 
Q 1159 2731 1159 2009 
Q 1159 1288 1364 580 
Q 1569 -128 1984 -844 
L 1484 -844 
Q 1016 -109 783 600 
Q 550 1309 550 2009 
Q 550 2706 781 3412 
Q 1013 4119 1484 4856 
L 1984 4856 
z
" transform="scale(0.015625)"/>
       <path id="DejaVuSans-6c" d="M 603 4863 
L 1178 4863 
L 1178 0 
L 603 0 
L 603 4863 
z
" transform="scale(0.015625)"/>
       <path id="DejaVuSans-66" d="M 2375 4863 
L 2375 4384 
L 1825 4384 
Q 1516 4384 1395 4259 
Q 1275 4134 1275 3809 
L 1275 3500 
L 2222 3500 
L 2222 3053 
L 1275 3053 
L 1275 0 
L 697 0 
L 697 3053 
L 147 3053 
L 147 3500 
L 697 3500 
L 697 3744 
Q 697 4328 969 4595 
Q 1241 4863 1831 4863 
L 2375 4863 
z
" transform="scale(0.015625)"/>
       <path id="DejaVuSans-29" d="M 513 4856 
L 1013 4856 
Q 1481 4119 1714 3412 
Q 1947 2706 1947 2009 
Q 1947 1309 1714 600 
Q 1481 -109 1013 -844 
L 513 -844 
Q 928 -128 1133 580 
Q 1338 1288 1338 2009 
Q 1338 2731 1133 3434 
Q 928 4138 513 4856 
z
" transform="scale(0.015625)"/>
      </defs>
      <use xlink:href="#DejaVuSans-6d"/>
      <use xlink:href="#DejaVuSans-61" transform="translate(97.412109 0)"/>
      <use xlink:href="#DejaVuSans-78" transform="translate(158.691406 0)"/>
      <use xlink:href="#DejaVuSans-69" transform="translate(217.871094 0)"/>
      <use xlink:href="#DejaVuSans-6d" transform="translate(245.654297 0)"/>
      <use xlink:href="#DejaVuSans-75" transform="translate(343.066406 0)"/>
      <use xlink:href="#DejaVuSans-6d" transform="translate(406.445312 0)"/>
      <use xlink:href="#DejaVuSans-20" transform="translate(503.857422 0)"/>
      <use xlink:href="#DejaVuSans-4d" transform="translate(535.644531 0)"/>
      <use xlink:href="#DejaVuSans-53" transform="translate(621.923828 0)"/>
      <use xlink:href="#DejaVuSans-41" transform="translate(687.275391 0)"/>
      <use xlink:href="#DejaVuSans-20" transform="translate(755.683594 0)"/>
      <use xlink:href="#DejaVuSans-64" transform="translate(787.470703 0)"/>
      <use xlink:href="#DejaVuSans-65" transform="translate(850.947266 0)"/>
      <use xlink:href="#DejaVuSans-70" transform="translate(912.470703 0)"/>
      <use xlink:href="#DejaVuSans-74" transform="translate(975.947266 0)"/>
      <use xlink:href="#DejaVuSans-68" transform="translate(1015.15625 0)"/>
      <use xlink:href="#DejaVuSans-20" transform="translate(1078.535156 0)"/>
      <use xlink:href="#DejaVuSans-28" transform="translate(1110.322266 0)"/>
      <use xlink:href="#DejaVuSans-6c" transform="translate(1149.335938 0)"/>
      <use xlink:href="#DejaVuSans-6f" transform="translate(1177.119141 0)"/>
      <use xlink:href="#DejaVuSans-67" transform="translate(1238.300781 0)"/>
      <use xlink:href="#DejaVuSans-20" transform="translate(1301.777344 0)"/>
      <use xlink:href="#DejaVuSans-74" transform="translate(1333.564453 0)"/>
      <use xlink:href="#DejaVuSans-72" transform="translate(1372.773438 0)"/>
      <use xlink:href="#DejaVuSans-61" transform="translate(1413.886719 0)"/>
      <use xlink:href="#DejaVuSans-6e" transform="translate(1475.166016 0)"/>
      <use xlink:href="#DejaVuSans-73" transform="translate(1538.544922 0)"/>
      <use xlink:href="#DejaVuSans-66" transform="translate(1590.644531 0)"/>
      <use xlink:href="#DejaVuSans-6f" transform="translate(1625.849609 0)"/>
      <use xlink:href="#DejaVuSans-72" transform="translate(1687.03125 0)"/>
      <use xlink:href="#DejaVuSans-6d" transform="translate(1726.394531 0)"/>
      <use xlink:href="#DejaVuSans-65" transform="translate(1823.806641 0)"/>
      <use xlink:href="#DejaVuSans-64" transform="translate(1885.330078 0)"/>
      <use xlink:href="#DejaVuSans-29" transform="translate(1948.806641 0)"/>
     </g>
    </g>
   </g>
   <g id="line2d_43">
    <path d="M 134.758125 261.216 
L 134.758125 19.296 
" clip-path="url(#pc2b44c57b4)" style="fill: none; stroke: #b2b2b2; stroke-width: 1.875; stroke-linecap: square"/>
   </g>
   <g id="line2d_44">
    <path d="M 134.758125 244.206143 
L 134.758125 91.153434 
" clip-path="url(#pc2b44c57b4)" style="fill: none; stroke: #b2b2b2; stroke-width: 5.625; stroke-linecap: square"/>
   </g>
   <g id="line2d_45">
    <path d="M 134.758125 150.79051 
" clip-path="url(#pc2b44c57b4)" style="fill: none; stroke: #191919; stroke-width: 1.5; stroke-linecap: square"/>
    <defs>
     <path id="m3a09a928b2" d="M 2.34375 0 
L -2.34375 -0 
" style="stroke: #ffffff; stroke-width: 1.125"/>
    </defs>
    <g clip-path="url(#pc2b44c57b4)">
     <use xlink:href="#m3a09a928b2" x="134.758125" y="150.79051" style="fill: #ffffff; stroke: #ffffff; stroke-width: 1.125"/>
    </g>
   </g>
   <g id="line2d_46">
    <path d="M 313.318125 261.216 
L 313.318125 20.499797 
" clip-path="url(#pc2b44c57b4)" style="fill: none; stroke: #b2b2b2; stroke-width: 1.875; stroke-linecap: square"/>
   </g>
   <g id="line2d_47">
    <path d="M 313.318125 194.364407 
L 313.318125 112.140911 
" clip-path="url(#pc2b44c57b4)" style="fill: none; stroke: #b2b2b2; stroke-width: 5.625; stroke-linecap: square"/>
   </g>
   <g id="line2d_48">
    <path d="M 313.318125 147.960777 
" clip-path="url(#pc2b44c57b4)" style="fill: none; stroke: #191919; stroke-width: 1.5; stroke-linecap: square"/>
    <g clip-path="url(#pc2b44c57b4)">
     <use xlink:href="#m3a09a928b2" x="313.318125" y="147.960777" style="fill: #ffffff; stroke: #ffffff; stroke-width: 1.125"/>
    </g>
   </g>
   <g id="patch_3">
    <path d="M 45.478125 273.312 
L 45.478125 7.2 
" style="fill: none; stroke: #000000; stroke-width: 0.8; stroke-linejoin: miter; stroke-linecap: square"/>
   </g>
  </g>
 </g>
 <defs>
  <clipPath id="pc2b44c57b4">
   <rect x="45.478125" y="7.2" width="357.12" height="266.112"/>
  </clipPath>
 </defs>
</svg>
