<?xml version="1.0" encoding="utf-8" standalone="no"?>
<!DOCTYPE svg PUBLIC "-//W3C//DTD SVG 1.1//EN"
  "http://www.w3.org/Graphics/SVG/1.1/DTD/svg11.dtd">
<svg xmlns:xlink="http://www.w3.org/1999/xlink" width="411.285625pt" height="311.146375pt" viewBox="0 0 411.285625 311.146375" xmlns="http://www.w3.org/2000/svg" version="1.1">
 <metadata>
  <rdf:RDF xmlns:dc="http://purl.org/dc/elements/1.1/" xmlns:cc="http://creativecommons.org/ns#" xmlns:rdf="http://www.w3.org/1999/02/22-rdf-syntax-ns#">
   <cc:Work>
    <dc:type rdf:resource="http://purl.org/dc/dcmitype/StillImage"/>
    <dc:date>2025-07-17T22:09:21.763190</dc:date>
    <dc:format>image/svg+xml</dc:format>
    <dc:creator>
     <cc:Agent>
      <dc:title>Matplotlib v3.10.3, https://matplotlib.org/</dc:title>
     </cc:Agent>
    </dc:creator>
   </cc:Work>
  </rdf:RDF>
 </metadata>
 <defs>
  <style type="text/css">*{stroke-linejoin: round; stroke-linecap: butt}</style>
 </defs>
 <g id="figure_1">
  <g id="patch_1">
   <path d="M 0 311.146375 
L 411.285625 311.146375 
L 411.285625 0 
L 0 0 
L 0 311.146375 
z
" style="fill: none"/>
  </g>
  <g id="axes_1">
   <g id="patch_2">
    <path d="M 46.965625 273.312 
L 404.085625 273.312 
L 404.085625 7.2 
L 46.965625 7.2 
L 46.965625 273.312 
z
" style="fill: none"/>
   </g>
   <g id="FillBetweenPolyCollection_1">
    <defs>
     <path id="mf7c1ab1e0f" d="M 138.592784 -50.463679 
L 133.898466 -50.463679 
L 133.124694 -52.894521 
L 132.175613 -55.325364 
L 131.039385 -57.756206 
L 129.712115 -60.187049 
L 128.199521 -62.617891 
L 126.517698 -65.048734 
L 124.69274 -67.479576 
L 122.759204 -69.910419 
L 120.757568 -72.341261 
L 118.73109 -74.772104 
L 116.722528 -77.202946 
L 114.77123 -79.633788 
L 112.911028 -82.064631 
L 111.169182 -84.495473 
L 109.566427 -86.926316 
L 108.117915 -89.357158 
L 106.834693 -91.788001 
L 105.725187 -94.218843 
L 104.796244 -96.649686 
L 104.053375 -99.080528 
L 103.50012 -101.511371 
L 103.136747 -103.942213 
L 102.958745 -106.373055 
L 102.955672 -108.803898 
L 103.110871 -111.23474 
L 103.402326 -113.665583 
L 103.804594 -116.096425 
L 104.291434 -118.527268 
L 104.838525 -120.95811 
L 105.425668 -123.388953 
L 106.037973 -125.819795 
L 106.665863 -128.250638 
L 107.304028 -130.68148 
L 107.94971 -133.112322 
L 108.600882 -135.543165 
L 109.254782 -137.974007 
L 109.907145 -140.40485 
L 110.552201 -142.835692 
L 111.183229 -145.266535 
L 111.793321 -147.697377 
L 112.375962 -150.12822 
L 112.925146 -152.559062 
L 113.434991 -154.989905 
L 113.89904 -157.420747 
L 114.309618 -159.851589 
L 114.65762 -162.282432 
L 114.933007 -164.713274 
L 115.125992 -167.144117 
L 115.228651 -169.574959 
L 115.23651 -172.005802 
L 115.149588 -174.436644 
L 114.97256 -176.867487 
L 114.713954 -179.298329 
L 114.384599 -181.729172 
L 113.995747 -184.160014 
L 113.55734 -186.590856 
L 113.076749 -189.021699 
L 112.558108 -191.452541 
L 112.002092 -193.883384 
L 111.405933 -196.314226 
L 110.76346 -198.745069 
L 110.065111 -201.175911 
L 109.298049 -203.606754 
L 108.446618 -206.037596 
L 107.493344 -208.468439 
L 106.420573 -210.899281 
L 105.212626 -213.330123 
L 103.858163 -215.760966 
L 102.352338 -218.191808 
L 100.698312 -220.622651 
L 98.907743 -223.053493 
L 97.000039 -225.484336 
L 95.000315 -227.915178 
L 92.936267 -230.346021 
L 90.834393 -232.776863 
L 88.716214 -235.207706 
L 86.595276 -237.638548 
L 84.475718 -240.069391 
L 82.35304 -242.500233 
L 80.217392 -244.931075 
L 78.059328 -247.361918 
L 75.877475 -249.79276 
L 73.687183 -252.223603 
L 71.528794 -254.654445 
L 69.473946 -257.085288 
L 67.628277 -259.51613 
L 66.129064 -261.946973 
L 65.136939 -264.377815 
L 64.821625 -266.808658 
L 65.342816 -269.2395 
L 66.828442 -271.670342 
L 69.353538 -274.101185 
L 72.923376 -276.532027 
L 77.46428 -278.96287 
L 82.824498 -281.393712 
L 88.785858 -283.824555 
L 95.084935 -286.255397 
L 101.440568 -288.68624 
L 107.583314 -291.117082 
L 164.907936 -291.117082 
L 164.907936 -291.117082 
L 171.050682 -288.68624 
L 177.406315 -286.255397 
L 183.705392 -283.824555 
L 189.666752 -281.393712 
L 195.02697 -278.96287 
L 199.567874 -276.532027 
L 203.137712 -274.101185 
L 205.662808 -271.670342 
L 207.148434 -269.2395 
L 207.669625 -266.808658 
L 207.354311 -264.377815 
L 206.362186 -261.946973 
L 204.862973 -259.51613 
L 203.017304 -257.085288 
L 200.962456 -254.654445 
L 198.804067 -252.223603 
L 196.613775 -249.79276 
L 194.431922 -247.361918 
L 192.273858 -244.931075 
L 190.13821 -242.500233 
L 188.015532 -240.069391 
L 185.895974 -237.638548 
L 183.775036 -235.207706 
L 181.656857 -232.776863 
L 179.554983 -230.346021 
L 177.490935 -227.915178 
L 175.491211 -225.484336 
L 173.583507 -223.053493 
L 171.792938 -220.622651 
L 170.138912 -218.191808 
L 168.633087 -215.760966 
L 167.278624 -213.330123 
L 166.070677 -210.899281 
L 164.997906 -208.468439 
L 164.044632 -206.037596 
L 163.193201 -203.606754 
L 162.426139 -201.175911 
L 161.72779 -198.745069 
L 161.085317 -196.314226 
L 160.489158 -193.883384 
L 159.933142 -191.452541 
L 159.414501 -189.021699 
L 158.93391 -186.590856 
L 158.495503 -184.160014 
L 158.106651 -181.729172 
L 157.777296 -179.298329 
L 157.51869 -176.867487 
L 157.341662 -174.436644 
L 157.25474 -172.005802 
L 157.262599 -169.574959 
L 157.365258 -167.144117 
L 157.558243 -164.713274 
L 157.83363 -162.282432 
L 158.181632 -159.851589 
L 158.59221 -157.420747 
L 159.056259 -154.989905 
L 159.566104 -152.559062 
L 160.115288 -150.12822 
L 160.697929 -147.697377 
L 161.308021 -145.266535 
L 161.939049 -142.835692 
L 162.584105 -140.40485 
L 163.236468 -137.974007 
L 163.890368 -135.543165 
L 164.54154 -133.112322 
L 165.187222 -130.68148 
L 165.825387 -128.250638 
L 166.453277 -125.819795 
L 167.065582 -123.388953 
L 167.652725 -120.95811 
L 168.199816 -118.527268 
L 168.686656 -116.096425 
L 169.088924 -113.665583 
L 169.380379 -111.23474 
L 169.535578 -108.803898 
L 169.532505 -106.373055 
L 169.354503 -103.942213 
L 168.99113 -101.511371 
L 168.437875 -99.080528 
L 167.695006 -96.649686 
L 166.766063 -94.218843 
L 165.656557 -91.788001 
L 164.373335 -89.357158 
L 162.924823 -86.926316 
L 161.322068 -84.495473 
L 159.580222 -82.064631 
L 157.72002 -79.633788 
L 155.768722 -77.202946 
L 153.76016 -74.772104 
L 151.733682 -72.341261 
L 149.732046 -69.910419 
L 147.79851 -67.479576 
L 145.973552 -65.048734 
L 144.291729 -62.617891 
L 142.779135 -60.187049 
L 141.451865 -57.756206 
L 140.315637 -55.325364 
L 139.366556 -52.894521 
L 138.592784 -50.463679 
z
" style="stroke: #191919; stroke-opacity: 0.75; stroke-width: 1.25"/>
    </defs>
    <g clip-path="url(#p54d4ca2a77)">
     <use xlink:href="#mf7c1ab1e0f" x="0" y="311.146375" style="fill: #377182; fill-opacity: 0.75; stroke: #191919; stroke-opacity: 0.75; stroke-width: 1.25"/>
    </g>
   </g>
   <g id="FillBetweenPolyCollection_2">
    <defs>
     <path id="me5aed8da81" d="M 315.152332 -49.930375 
L 314.458918 -49.930375 
L 314.337871 -52.374011 
L 314.189173 -54.817648 
L 314.008537 -57.261284 
L 313.790292 -59.70492 
L 313.527232 -62.148557 
L 313.211104 -64.592193 
L 312.83382 -67.03583 
L 312.389122 -69.479466 
L 311.874127 -71.923102 
L 311.290186 -74.366739 
L 310.642948 -76.810375 
L 309.941988 -79.254011 
L 309.200639 -81.697648 
L 308.436254 -84.141284 
L 307.670553 -86.58492 
L 306.92924 -89.028557 
L 306.240289 -91.472193 
L 305.631005 -93.91583 
L 305.12475 -96.359466 
L 304.738396 -98.803102 
L 304.48107 -101.246739 
L 304.353804 -103.690375 
L 304.349131 -106.134011 
L 304.449947 -108.577648 
L 304.628119 -111.021284 
L 304.844497 -113.46492 
L 305.052142 -115.908557 
L 305.20329 -118.352193 
L 305.258403 -120.79583 
L 305.19414 -123.239466 
L 305.0073 -125.683102 
L 304.713611 -128.126739 
L 304.342537 -130.570375 
L 303.930441 -133.014011 
L 303.513987 -135.457648 
L 303.124353 -137.901284 
L 302.782003 -140.34492 
L 302.492082 -142.788557 
L 302.241742 -145.232193 
L 302.001354 -147.67583 
L 301.7307 -150.119466 
L 301.388974 -152.563102 
L 300.945089 -155.006739 
L 300.384173 -157.450375 
L 299.707698 -159.894011 
L 298.927727 -162.337648 
L 298.058344 -164.781284 
L 297.108216 -167.22492 
L 296.077146 -169.668557 
L 294.957421 -172.112193 
L 293.738887 -174.55583 
L 292.415561 -176.999466 
L 290.991445 -179.443102 
L 289.483553 -181.886739 
L 287.920992 -184.330375 
L 286.340034 -186.774011 
L 284.776418 -189.217648 
L 283.257212 -191.661284 
L 281.794817 -194.10492 
L 280.384898 -196.548557 
L 279.008472 -198.992193 
L 277.636996 -201.43583 
L 276.238765 -203.879466 
L 274.785283 -206.323102 
L 273.256905 -208.766739 
L 271.647105 -211.210375 
L 269.964411 -213.654011 
L 268.230931 -216.097648 
L 266.477264 -218.541284 
L 264.735076 -220.98492 
L 263.029811 -223.428557 
L 261.375753 -225.872193 
L 259.774435 -228.31583 
L 258.216018 -230.759466 
L 256.682894 -233.203102 
L 255.154987 -235.646739 
L 253.616235 -238.090375 
L 252.061151 -240.534011 
L 250.499803 -242.977648 
L 248.959909 -245.421284 
L 247.485974 -247.86492 
L 246.136328 -250.308557 
L 244.978976 -252.752193 
L 244.086649 -255.19583 
L 243.531605 -257.639466 
L 243.381625 -260.083102 
L 243.69926 -262.526739 
L 244.545246 -264.970375 
L 245.984158 -267.414011 
L 248.087748 -269.857648 
L 250.930805 -272.301284 
L 254.576733 -274.74492 
L 259.054069 -277.188557 
L 264.329368 -279.632193 
L 270.284787 -282.07583 
L 276.709535 -284.519466 
L 283.312273 -286.963102 
L 289.756148 -289.406739 
L 295.710442 -291.850375 
L 333.900808 -291.850375 
L 333.900808 -291.850375 
L 339.855102 -289.406739 
L 346.298977 -286.963102 
L 352.901715 -284.519466 
L 359.326463 -282.07583 
L 365.281882 -279.632193 
L 370.557181 -277.188557 
L 375.034517 -274.74492 
L 378.680445 -272.301284 
L 381.523502 -269.857648 
L 383.627092 -267.414011 
L 385.066004 -264.970375 
L 385.91199 -262.526739 
L 386.229625 -260.083102 
L 386.079645 -257.639466 
L 385.524601 -255.19583 
L 384.632274 -252.752193 
L 383.474922 -250.308557 
L 382.125276 -247.86492 
L 380.651341 -245.421284 
L 379.111447 -242.977648 
L 377.550099 -240.534011 
L 375.995015 -238.090375 
L 374.456263 -235.646739 
L 372.928356 -233.203102 
L 371.395232 -230.759466 
L 369.836815 -228.31583 
L 368.235497 -225.872193 
L 366.581439 -223.428557 
L 364.876174 -220.98492 
L 363.133986 -218.541284 
L 361.380319 -216.097648 
L 359.646839 -213.654011 
L 357.964145 -211.210375 
L 356.354345 -208.766739 
L 354.825967 -206.323102 
L 353.372485 -203.879466 
L 351.974254 -201.43583 
L 350.602778 -198.992193 
L 349.226352 -196.548557 
L 347.816433 -194.10492 
L 346.354038 -191.661284 
L 344.834832 -189.217648 
L 343.271216 -186.774011 
L 341.690258 -184.330375 
L 340.127697 -181.886739 
L 338.619805 -179.443102 
L 337.195689 -176.999466 
L 335.872363 -174.55583 
L 334.653829 -172.112193 
L 333.534104 -169.668557 
L 332.503034 -167.22492 
L 331.552906 -164.781284 
L 330.683523 -162.337648 
L 329.903552 -159.894011 
L 329.227077 -157.450375 
L 328.666161 -155.006739 
L 328.222276 -152.563102 
L 327.88055 -150.119466 
L 327.609896 -147.67583 
L 327.369508 -145.232193 
L 327.119168 -142.788557 
L 326.829247 -140.34492 
L 326.486897 -137.901284 
L 326.097263 -135.457648 
L 325.680809 -133.014011 
L 325.268713 -130.570375 
L 324.897639 -128.126739 
L 324.60395 -125.683102 
L 324.41711 -123.239466 
L 324.352847 -120.79583 
L 324.40796 -118.352193 
L 324.559108 -115.908557 
L 324.766753 -113.46492 
L 324.983131 -111.021284 
L 325.161303 -108.577648 
L 325.262119 -106.134011 
L 325.257446 -103.690375 
L 325.13018 -101.246739 
L 324.872854 -98.803102 
L 324.4865 -96.359466 
L 323.980245 -93.91583 
L 323.370961 -91.472193 
L 322.68201 -89.028557 
L 321.940697 -86.58492 
L 321.174996 -84.141284 
L 320.410611 -81.697648 
L 319.669262 -79.254011 
L 318.968302 -76.810375 
L 318.321064 -74.366739 
L 317.737123 -71.923102 
L 317.222128 -69.479466 
L 316.77743 -67.03583 
L 316.400146 -64.592193 
L 316.084018 -62.148557 
L 315.820958 -59.70492 
L 315.602713 -57.261284 
L 315.422077 -54.817648 
L 315.273379 -52.374011 
L 315.152332 -49.930375 
z
" style="stroke: #191919; stroke-opacity: 0.75; stroke-width: 1.25"/>
    </defs>
    <g clip-path="url(#p54d4ca2a77)">
     <use xlink:href="#me5aed8da81" x="0" y="311.146375" style="fill: #3e0b4a; fill-opacity: 0.75; stroke: #191919; stroke-opacity: 0.75; stroke-width: 1.25"/>
    </g>
   </g>
   <g id="matplotlib.axis_1">
    <g id="xtick_1">
     <g id="text_1">
      <!-- no -->
      <g transform="translate(130.0175 287.910437) scale(0.1 -0.1)">
       <defs>
        <path id="DejaVuSans-6e" d="M 3513 2113 
L 3513 0 
L 2938 0 
L 2938 2094 
Q 2938 2591 2744 2837 
Q 2550 3084 2163 3084 
Q 1697 3084 1428 2787 
Q 1159 2491 1159 1978 
L 1159 0 
L 581 0 
L 581 3500 
L 1159 3500 
L 1159 2956 
Q 1366 3272 1645 3428 
Q 1925 3584 2291 3584 
Q 2894 3584 3203 3211 
Q 3513 2838 3513 2113 
z
" transform="scale(0.015625)"/>
        <path id="DejaVuSans-6f" d="M 1959 3097 
Q 1497 3097 1228 2736 
Q 959 2375 959 1747 
Q 959 1119 1226 758 
Q 1494 397 1959 397 
Q 2419 397 2687 759 
Q 2956 1122 2956 1747 
Q 2956 2369 2687 2733 
Q 2419 3097 1959 3097 
z
M 1959 3584 
Q 2709 3584 3137 3096 
Q 3566 2609 3566 1747 
Q 3566 888 3137 398 
Q 2709 -91 1959 -91 
Q 1206 -91 779 398 
Q 353 888 353 1747 
Q 353 2609 779 3096 
Q 1206 3584 1959 3584 
z
" transform="scale(0.015625)"/>
       </defs>
       <use xlink:href="#DejaVuSans-6e"/>
       <use xlink:href="#DejaVuSans-6f" transform="translate(63.378906 0)"/>
      </g>
     </g>
    </g>
    <g id="xtick_2">
     <g id="text_2">
      <!-- yes -->
      <g transform="translate(306.165 287.910437) scale(0.1 -0.1)">
       <defs>
        <path id="DejaVuSans-79" d="M 2059 -325 
Q 1816 -950 1584 -1140 
Q 1353 -1331 966 -1331 
L 506 -1331 
L 506 -850 
L 844 -850 
Q 1081 -850 1212 -737 
Q 1344 -625 1503 -206 
L 1606 56 
L 191 3500 
L 800 3500 
L 1894 763 
L 2988 3500 
L 3597 3500 
L 2059 -325 
z
" transform="scale(0.015625)"/>
        <path id="DejaVuSans-65" d="M 3597 1894 
L 3597 1613 
L 953 1613 
Q 991 1019 1311 708 
Q 1631 397 2203 397 
Q 2534 397 2845 478 
Q 3156 559 3463 722 
L 3463 178 
Q 3153 47 2828 -22 
Q 2503 -91 2169 -91 
Q 1331 -91 842 396 
Q 353 884 353 1716 
Q 353 2575 817 3079 
Q 1281 3584 2069 3584 
Q 2775 3584 3186 3129 
Q 3597 2675 3597 1894 
z
M 3022 2063 
Q 3016 2534 2758 2815 
Q 2500 3097 2075 3097 
Q 1594 3097 1305 2825 
Q 1016 2553 972 2059 
L 3022 2063 
z
" transform="scale(0.015625)"/>
        <path id="DejaVuSans-73" d="M 2834 3397 
L 2834 2853 
Q 2591 2978 2328 3040 
Q 2066 3103 1784 3103 
Q 1356 3103 1142 2972 
Q 928 2841 928 2578 
Q 928 2378 1081 2264 
Q 1234 2150 1697 2047 
L 1894 2003 
Q 2506 1872 2764 1633 
Q 3022 1394 3022 966 
Q 3022 478 2636 193 
Q 2250 -91 1575 -91 
Q 1294 -91 989 -36 
Q 684 19 347 128 
L 347 722 
Q 666 556 975 473 
Q 1284 391 1588 391 
Q 1994 391 2212 530 
Q 2431 669 2431 922 
Q 2431 1156 2273 1281 
Q 2116 1406 1581 1522 
L 1381 1569 
Q 847 1681 609 1914 
Q 372 2147 372 2553 
Q 372 3047 722 3315 
Q 1072 3584 1716 3584 
Q 2034 3584 2315 3537 
Q 2597 3491 2834 3397 
z
" transform="scale(0.015625)"/>
       </defs>
       <use xlink:href="#DejaVuSans-79"/>
       <use xlink:href="#DejaVuSans-65" transform="translate(59.179688 0)"/>
       <use xlink:href="#DejaVuSans-73" transform="translate(120.703125 0)"/>
      </g>
     </g>
    </g>
    <g id="text_3">
     <!-- matching_structure -->
     <g transform="translate(176.794375 301.588562) scale(0.1 -0.1)">
      <defs>
       <path id="DejaVuSans-6d" d="M 3328 2828 
Q 3544 3216 3844 3400 
Q 4144 3584 4550 3584 
Q 5097 3584 5394 3201 
Q 5691 2819 5691 2113 
L 5691 0 
L 5113 0 
L 5113 2094 
Q 5113 2597 4934 2840 
Q 4756 3084 4391 3084 
Q 3944 3084 3684 2787 
Q 3425 2491 3425 1978 
L 3425 0 
L 2847 0 
L 2847 2094 
Q 2847 2600 2669 2842 
Q 2491 3084 2119 3084 
Q 1678 3084 1418 2786 
Q 1159 2488 1159 1978 
L 1159 0 
L 581 0 
L 581 3500 
L 1159 3500 
L 1159 2956 
Q 1356 3278 1631 3431 
Q 1906 3584 2284 3584 
Q 2666 3584 2933 3390 
Q 3200 3197 3328 2828 
z
" transform="scale(0.015625)"/>
       <path id="DejaVuSans-61" d="M 2194 1759 
Q 1497 1759 1228 1600 
Q 959 1441 959 1056 
Q 959 750 1161 570 
Q 1363 391 1709 391 
Q 2188 391 2477 730 
Q 2766 1069 2766 1631 
L 2766 1759 
L 2194 1759 
z
M 3341 1997 
L 3341 0 
L 2766 0 
L 2766 531 
Q 2569 213 2275 61 
Q 1981 -91 1556 -91 
Q 1019 -91 701 211 
Q 384 513 384 1019 
Q 384 1609 779 1909 
Q 1175 2209 1959 2209 
L 2766 2209 
L 2766 2266 
Q 2766 2663 2505 2880 
Q 2244 3097 1772 3097 
Q 1472 3097 1187 3025 
Q 903 2953 641 2809 
L 641 3341 
Q 956 3463 1253 3523 
Q 1550 3584 1831 3584 
Q 2591 3584 2966 3190 
Q 3341 2797 3341 1997 
z
" transform="scale(0.015625)"/>
       <path id="DejaVuSans-74" d="M 1172 4494 
L 1172 3500 
L 2356 3500 
L 2356 3053 
L 1172 3053 
L 1172 1153 
Q 1172 725 1289 603 
Q 1406 481 1766 481 
L 2356 481 
L 2356 0 
L 1766 0 
Q 1100 0 847 248 
Q 594 497 594 1153 
L 594 3053 
L 172 3053 
L 172 3500 
L 594 3500 
L 594 4494 
L 1172 4494 
z
" transform="scale(0.015625)"/>
       <path id="DejaVuSans-63" d="M 3122 3366 
L 3122 2828 
Q 2878 2963 2633 3030 
Q 2388 3097 2138 3097 
Q 1578 3097 1268 2742 
Q 959 2388 959 1747 
Q 959 1106 1268 751 
Q 1578 397 2138 397 
Q 2388 397 2633 464 
Q 2878 531 3122 666 
L 3122 134 
Q 2881 22 2623 -34 
Q 2366 -91 2075 -91 
Q 1284 -91 818 406 
Q 353 903 353 1747 
Q 353 2603 823 3093 
Q 1294 3584 2113 3584 
Q 2378 3584 2631 3529 
Q 2884 3475 3122 3366 
z
" transform="scale(0.015625)"/>
       <path id="DejaVuSans-68" d="M 3513 2113 
L 3513 0 
L 2938 0 
L 2938 2094 
Q 2938 2591 2744 2837 
Q 2550 3084 2163 3084 
Q 1697 3084 1428 2787 
Q 1159 2491 1159 1978 
L 1159 0 
L 581 0 
L 581 4863 
L 1159 4863 
L 1159 2956 
Q 1366 3272 1645 3428 
Q 1925 3584 2291 3584 
Q 2894 3584 3203 3211 
Q 3513 2838 3513 2113 
z
" transform="scale(0.015625)"/>
       <path id="DejaVuSans-69" d="M 603 3500 
L 1178 3500 
L 1178 0 
L 603 0 
L 603 3500 
z
M 603 4863 
L 1178 4863 
L 1178 4134 
L 603 4134 
L 603 4863 
z
" transform="scale(0.015625)"/>
       <path id="DejaVuSans-67" d="M 2906 1791 
Q 2906 2416 2648 2759 
Q 2391 3103 1925 3103 
Q 1463 3103 1205 2759 
Q 947 2416 947 1791 
Q 947 1169 1205 825 
Q 1463 481 1925 481 
Q 2391 481 2648 825 
Q 2906 1169 2906 1791 
z
M 3481 434 
Q 3481 -459 3084 -895 
Q 2688 -1331 1869 -1331 
Q 1566 -1331 1297 -1286 
Q 1028 -1241 775 -1147 
L 775 -588 
Q 1028 -725 1275 -790 
Q 1522 -856 1778 -856 
Q 2344 -856 2625 -561 
Q 2906 -266 2906 331 
L 2906 616 
Q 2728 306 2450 153 
Q 2172 0 1784 0 
Q 1141 0 747 490 
Q 353 981 353 1791 
Q 353 2603 747 3093 
Q 1141 3584 1784 3584 
Q 2172 3584 2450 3431 
Q 2728 3278 2906 2969 
L 2906 3500 
L 3481 3500 
L 3481 434 
z
" transform="scale(0.015625)"/>
       <path id="DejaVuSans-5f" d="M 3263 -1063 
L 3263 -1509 
L -63 -1509 
L -63 -1063 
L 3263 -1063 
z
" transform="scale(0.015625)"/>
       <path id="DejaVuSans-72" d="M 2631 2963 
Q 2534 3019 2420 3045 
Q 2306 3072 2169 3072 
Q 1681 3072 1420 2755 
Q 1159 2438 1159 1844 
L 1159 0 
L 581 0 
L 581 3500 
L 1159 3500 
L 1159 2956 
Q 1341 3275 1631 3429 
Q 1922 3584 2338 3584 
Q 2397 3584 2469 3576 
Q 2541 3569 2628 3553 
L 2631 2963 
z
" transform="scale(0.015625)"/>
       <path id="DejaVuSans-75" d="M 544 1381 
L 544 3500 
L 1119 3500 
L 1119 1403 
Q 1119 906 1312 657 
Q 1506 409 1894 409 
Q 2359 409 2629 706 
Q 2900 1003 2900 1516 
L 2900 3500 
L 3475 3500 
L 3475 0 
L 2900 0 
L 2900 538 
Q 2691 219 2414 64 
Q 2138 -91 1772 -91 
Q 1169 -91 856 284 
Q 544 659 544 1381 
z
M 1991 3584 
L 1991 3584 
z
" transform="scale(0.015625)"/>
      </defs>
      <use xlink:href="#DejaVuSans-6d"/>
      <use xlink:href="#DejaVuSans-61" transform="translate(97.412109 0)"/>
      <use xlink:href="#DejaVuSans-74" transform="translate(158.691406 0)"/>
      <use xlink:href="#DejaVuSans-63" transform="translate(197.900391 0)"/>
      <use xlink:href="#DejaVuSans-68" transform="translate(252.880859 0)"/>
      <use xlink:href="#DejaVuSans-69" transform="translate(316.259766 0)"/>
      <use xlink:href="#DejaVuSans-6e" transform="translate(344.042969 0)"/>
      <use xlink:href="#DejaVuSans-67" transform="translate(407.421875 0)"/>
      <use xlink:href="#DejaVuSans-5f" transform="translate(470.898438 0)"/>
      <use xlink:href="#DejaVuSans-73" transform="translate(520.898438 0)"/>
      <use xlink:href="#DejaVuSans-74" transform="translate(572.998047 0)"/>
      <use xlink:href="#DejaVuSans-72" transform="translate(612.207031 0)"/>
      <use xlink:href="#DejaVuSans-75" transform="translate(653.320312 0)"/>
      <use xlink:href="#DejaVuSans-63" transform="translate(716.699219 0)"/>
      <use xlink:href="#DejaVuSans-74" transform="translate(771.679688 0)"/>
      <use xlink:href="#DejaVuSans-75" transform="translate(810.888672 0)"/>
      <use xlink:href="#DejaVuSans-72" transform="translate(874.267578 0)"/>
      <use xlink:href="#DejaVuSans-65" transform="translate(913.130859 0)"/>
     </g>
    </g>
   </g>
   <g id="matplotlib.axis_2">
    <g id="ytick_1">
     <g id="line2d_1">
      <defs>
       <path id="ma79ac779ee" d="M 0 0 
L -3.5 0 
" style="stroke: #000000; stroke-width: 0.8"/>
      </defs>
      <g>
       <use xlink:href="#ma79ac779ee" x="46.965625" y="246.350153" style="stroke: #000000; stroke-width: 0.8"/>
      </g>
     </g>
     <g id="text_4">
      <!-- 30 -->
      <g transform="translate(27.240625 250.149371) scale(0.1 -0.1)">
       <defs>
        <path id="DejaVuSans-33" d="M 2597 2516 
Q 3050 2419 3304 2112 
Q 3559 1806 3559 1356 
Q 3559 666 3084 287 
Q 2609 -91 1734 -91 
Q 1441 -91 1130 -33 
Q 819 25 488 141 
L 488 750 
Q 750 597 1062 519 
Q 1375 441 1716 441 
Q 2309 441 2620 675 
Q 2931 909 2931 1356 
Q 2931 1769 2642 2001 
Q 2353 2234 1838 2234 
L 1294 2234 
L 1294 2753 
L 1863 2753 
Q 2328 2753 2575 2939 
Q 2822 3125 2822 3475 
Q 2822 3834 2567 4026 
Q 2313 4219 1838 4219 
Q 1578 4219 1281 4162 
Q 984 4106 628 3988 
L 628 4550 
Q 988 4650 1302 4700 
Q 1616 4750 1894 4750 
Q 2613 4750 3031 4423 
Q 3450 4097 3450 3541 
Q 3450 3153 3228 2886 
Q 3006 2619 2597 2516 
z
" transform="scale(0.015625)"/>
        <path id="DejaVuSans-30" d="M 2034 4250 
Q 1547 4250 1301 3770 
Q 1056 3291 1056 2328 
Q 1056 1369 1301 889 
Q 1547 409 2034 409 
Q 2525 409 2770 889 
Q 3016 1369 3016 2328 
Q 3016 3291 2770 3770 
Q 2525 4250 2034 4250 
z
M 2034 4750 
Q 2819 4750 3233 4129 
Q 3647 3509 3647 2328 
Q 3647 1150 3233 529 
Q 2819 -91 2034 -91 
Q 1250 -91 836 529 
Q 422 1150 422 2328 
Q 422 3509 836 4129 
Q 1250 4750 2034 4750 
z
" transform="scale(0.015625)"/>
       </defs>
       <use xlink:href="#DejaVuSans-33"/>
       <use xlink:href="#DejaVuSans-30" transform="translate(63.623047 0)"/>
      </g>
     </g>
    </g>
    <g id="ytick_2">
     <g id="line2d_2">
      <g>
       <use xlink:href="#ma79ac779ee" x="46.965625" y="213.018656" style="stroke: #000000; stroke-width: 0.8"/>
      </g>
     </g>
     <g id="text_5">
      <!-- 40 -->
      <g transform="translate(27.240625 216.817875) scale(0.1 -0.1)">
       <defs>
        <path id="DejaVuSans-34" d="M 2419 4116 
L 825 1625 
L 2419 1625 
L 2419 4116 
z
M 2253 4666 
L 3047 4666 
L 3047 1625 
L 3713 1625 
L 3713 1100 
L 3047 1100 
L 3047 0 
L 2419 0 
L 2419 1100 
L 313 1100 
L 313 1709 
L 2253 4666 
z
" transform="scale(0.015625)"/>
       </defs>
       <use xlink:href="#DejaVuSans-34"/>
       <use xlink:href="#DejaVuSans-30" transform="translate(63.623047 0)"/>
      </g>
     </g>
    </g>
    <g id="ytick_3">
     <g id="line2d_3">
      <g>
       <use xlink:href="#ma79ac779ee" x="46.965625" y="179.68716" style="stroke: #000000; stroke-width: 0.8"/>
      </g>
     </g>
     <g id="text_6">
      <!-- 50 -->
      <g transform="translate(27.240625 183.486379) scale(0.1 -0.1)">
       <defs>
        <path id="DejaVuSans-35" d="M 691 4666 
L 3169 4666 
L 3169 4134 
L 1269 4134 
L 1269 2991 
Q 1406 3038 1543 3061 
Q 1681 3084 1819 3084 
Q 2600 3084 3056 2656 
Q 3513 2228 3513 1497 
Q 3513 744 3044 326 
Q 2575 -91 1722 -91 
Q 1428 -91 1123 -41 
Q 819 9 494 109 
L 494 744 
Q 775 591 1075 516 
Q 1375 441 1709 441 
Q 2250 441 2565 725 
Q 2881 1009 2881 1497 
Q 2881 1984 2565 2268 
Q 2250 2553 1709 2553 
Q 1456 2553 1204 2497 
Q 953 2441 691 2322 
L 691 4666 
z
" transform="scale(0.015625)"/>
       </defs>
       <use xlink:href="#DejaVuSans-35"/>
       <use xlink:href="#DejaVuSans-30" transform="translate(63.623047 0)"/>
      </g>
     </g>
    </g>
    <g id="ytick_4">
     <g id="line2d_4">
      <g>
       <use xlink:href="#ma79ac779ee" x="46.965625" y="146.355664" style="stroke: #000000; stroke-width: 0.8"/>
      </g>
     </g>
     <g id="text_7">
      <!-- 60 -->
      <g transform="translate(27.240625 150.154883) scale(0.1 -0.1)">
       <defs>
        <path id="DejaVuSans-36" d="M 2113 2584 
Q 1688 2584 1439 2293 
Q 1191 2003 1191 1497 
Q 1191 994 1439 701 
Q 1688 409 2113 409 
Q 2538 409 2786 701 
Q 3034 994 3034 1497 
Q 3034 2003 2786 2293 
Q 2538 2584 2113 2584 
z
M 3366 4563 
L 3366 3988 
Q 3128 4100 2886 4159 
Q 2644 4219 2406 4219 
Q 1781 4219 1451 3797 
Q 1122 3375 1075 2522 
Q 1259 2794 1537 2939 
Q 1816 3084 2150 3084 
Q 2853 3084 3261 2657 
Q 3669 2231 3669 1497 
Q 3669 778 3244 343 
Q 2819 -91 2113 -91 
Q 1303 -91 875 529 
Q 447 1150 447 2328 
Q 447 3434 972 4092 
Q 1497 4750 2381 4750 
Q 2619 4750 2861 4703 
Q 3103 4656 3366 4563 
z
" transform="scale(0.015625)"/>
       </defs>
       <use xlink:href="#DejaVuSans-36"/>
       <use xlink:href="#DejaVuSans-30" transform="translate(63.623047 0)"/>
      </g>
     </g>
    </g>
    <g id="ytick_5">
     <g id="line2d_5">
      <g>
       <use xlink:href="#ma79ac779ee" x="46.965625" y="113.024168" style="stroke: #000000; stroke-width: 0.8"/>
      </g>
     </g>
     <g id="text_8">
      <!-- 70 -->
      <g transform="translate(27.240625 116.823386) scale(0.1 -0.1)">
       <defs>
        <path id="DejaVuSans-37" d="M 525 4666 
L 3525 4666 
L 3525 4397 
L 1831 0 
L 1172 0 
L 2766 4134 
L 525 4134 
L 525 4666 
z
" transform="scale(0.015625)"/>
       </defs>
       <use xlink:href="#DejaVuSans-37"/>
       <use xlink:href="#DejaVuSans-30" transform="translate(63.623047 0)"/>
      </g>
     </g>
    </g>
    <g id="ytick_6">
     <g id="line2d_6">
      <g>
       <use xlink:href="#ma79ac779ee" x="46.965625" y="79.692671" style="stroke: #000000; stroke-width: 0.8"/>
      </g>
     </g>
     <g id="text_9">
      <!-- 80 -->
      <g transform="translate(27.240625 83.49189) scale(0.1 -0.1)">
       <defs>
        <path id="DejaVuSans-38" d="M 2034 2216 
Q 1584 2216 1326 1975 
Q 1069 1734 1069 1313 
Q 1069 891 1326 650 
Q 1584 409 2034 409 
Q 2484 409 2743 651 
Q 3003 894 3003 1313 
Q 3003 1734 2745 1975 
Q 2488 2216 2034 2216 
z
M 1403 2484 
Q 997 2584 770 2862 
Q 544 3141 544 3541 
Q 544 4100 942 4425 
Q 1341 4750 2034 4750 
Q 2731 4750 3128 4425 
Q 3525 4100 3525 3541 
Q 3525 3141 3298 2862 
Q 3072 2584 2669 2484 
Q 3125 2378 3379 2068 
Q 3634 1759 3634 1313 
Q 3634 634 3220 271 
Q 2806 -91 2034 -91 
Q 1263 -91 848 271 
Q 434 634 434 1313 
Q 434 1759 690 2068 
Q 947 2378 1403 2484 
z
M 1172 3481 
Q 1172 3119 1398 2916 
Q 1625 2713 2034 2713 
Q 2441 2713 2670 2916 
Q 2900 3119 2900 3481 
Q 2900 3844 2670 4047 
Q 2441 4250 2034 4250 
Q 1625 4250 1398 4047 
Q 1172 3844 1172 3481 
z
" transform="scale(0.015625)"/>
       </defs>
       <use xlink:href="#DejaVuSans-38"/>
       <use xlink:href="#DejaVuSans-30" transform="translate(63.623047 0)"/>
      </g>
     </g>
    </g>
    <g id="ytick_7">
     <g id="line2d_7">
      <g>
       <use xlink:href="#ma79ac779ee" x="46.965625" y="46.361175" style="stroke: #000000; stroke-width: 0.8"/>
      </g>
     </g>
     <g id="text_10">
      <!-- 90 -->
      <g transform="translate(27.240625 50.160394) scale(0.1 -0.1)">
       <defs>
        <path id="DejaVuSans-39" d="M 703 97 
L 703 672 
Q 941 559 1184 500 
Q 1428 441 1663 441 
Q 2288 441 2617 861 
Q 2947 1281 2994 2138 
Q 2813 1869 2534 1725 
Q 2256 1581 1919 1581 
Q 1219 1581 811 2004 
Q 403 2428 403 3163 
Q 403 3881 828 4315 
Q 1253 4750 1959 4750 
Q 2769 4750 3195 4129 
Q 3622 3509 3622 2328 
Q 3622 1225 3098 567 
Q 2575 -91 1691 -91 
Q 1453 -91 1209 -44 
Q 966 3 703 97 
z
M 1959 2075 
Q 2384 2075 2632 2365 
Q 2881 2656 2881 3163 
Q 2881 3666 2632 3958 
Q 2384 4250 1959 4250 
Q 1534 4250 1286 3958 
Q 1038 3666 1038 3163 
Q 1038 2656 1286 2365 
Q 1534 2075 1959 2075 
z
" transform="scale(0.015625)"/>
       </defs>
       <use xlink:href="#DejaVuSans-39"/>
       <use xlink:href="#DejaVuSans-30" transform="translate(63.623047 0)"/>
      </g>
     </g>
    </g>
    <g id="ytick_8">
     <g id="line2d_8">
      <g>
       <use xlink:href="#ma79ac779ee" x="46.965625" y="13.029679" style="stroke: #000000; stroke-width: 0.8"/>
      </g>
     </g>
     <g id="text_11">
      <!-- 100 -->
      <g transform="translate(20.878125 16.828897) scale(0.1 -0.1)">
       <defs>
        <path id="DejaVuSans-31" d="M 794 531 
L 1825 531 
L 1825 4091 
L 703 3866 
L 703 4441 
L 1819 4666 
L 2450 4666 
L 2450 531 
L 3481 531 
L 3481 0 
L 794 0 
L 794 531 
z
" transform="scale(0.015625)"/>
       </defs>
       <use xlink:href="#DejaVuSans-31"/>
       <use xlink:href="#DejaVuSans-30" transform="translate(63.623047 0)"/>
       <use xlink:href="#DejaVuSans-30" transform="translate(127.246094 0)"/>
      </g>
     </g>
    </g>
    <g id="text_12">
     <!-- pLDDT score (averaged over protein) -->
     <g transform="translate(14.798438 233.227094) rotate(-90) scale(0.1 -0.1)">
      <defs>
       <path id="DejaVuSans-70" d="M 1159 525 
L 1159 -1331 
L 581 -1331 
L 581 3500 
L 1159 3500 
L 1159 2969 
Q 1341 3281 1617 3432 
Q 1894 3584 2278 3584 
Q 2916 3584 3314 3078 
Q 3713 2572 3713 1747 
Q 3713 922 3314 415 
Q 2916 -91 2278 -91 
Q 1894 -91 1617 61 
Q 1341 213 1159 525 
z
M 3116 1747 
Q 3116 2381 2855 2742 
Q 2594 3103 2138 3103 
Q 1681 3103 1420 2742 
Q 1159 2381 1159 1747 
Q 1159 1113 1420 752 
Q 1681 391 2138 391 
Q 2594 391 2855 752 
Q 3116 1113 3116 1747 
z
" transform="scale(0.015625)"/>
       <path id="DejaVuSans-4c" d="M 628 4666 
L 1259 4666 
L 1259 531 
L 3531 531 
L 3531 0 
L 628 0 
L 628 4666 
z
" transform="scale(0.015625)"/>
       <path id="DejaVuSans-44" d="M 1259 4147 
L 1259 519 
L 2022 519 
Q 2988 519 3436 956 
Q 3884 1394 3884 2338 
Q 3884 3275 3436 3711 
Q 2988 4147 2022 4147 
L 1259 4147 
z
M 628 4666 
L 1925 4666 
Q 3281 4666 3915 4102 
Q 4550 3538 4550 2338 
Q 4550 1131 3912 565 
Q 3275 0 1925 0 
L 628 0 
L 628 4666 
z
" transform="scale(0.015625)"/>
       <path id="DejaVuSans-54" d="M -19 4666 
L 3928 4666 
L 3928 4134 
L 2272 4134 
L 2272 0 
L 1638 0 
L 1638 4134 
L -19 4134 
L -19 4666 
z
" transform="scale(0.015625)"/>
       <path id="DejaVuSans-20" transform="scale(0.015625)"/>
       <path id="DejaVuSans-28" d="M 1984 4856 
Q 1566 4138 1362 3434 
Q 1159 2731 1159 2009 
Q 1159 1288 1364 580 
Q 1569 -128 1984 -844 
L 1484 -844 
Q 1016 -109 783 600 
Q 550 1309 550 2009 
Q 550 2706 781 3412 
Q 1013 4119 1484 4856 
L 1984 4856 
z
" transform="scale(0.015625)"/>
       <path id="DejaVuSans-76" d="M 191 3500 
L 800 3500 
L 1894 563 
L 2988 3500 
L 3597 3500 
L 2284 0 
L 1503 0 
L 191 3500 
z
" transform="scale(0.015625)"/>
       <path id="DejaVuSans-64" d="M 2906 2969 
L 2906 4863 
L 3481 4863 
L 3481 0 
L 2906 0 
L 2906 525 
Q 2725 213 2448 61 
Q 2172 -91 1784 -91 
Q 1150 -91 751 415 
Q 353 922 353 1747 
Q 353 2572 751 3078 
Q 1150 3584 1784 3584 
Q 2172 3584 2448 3432 
Q 2725 3281 2906 2969 
z
M 947 1747 
Q 947 1113 1208 752 
Q 1469 391 1925 391 
Q 2381 391 2643 752 
Q 2906 1113 2906 1747 
Q 2906 2381 2643 2742 
Q 2381 3103 1925 3103 
Q 1469 3103 1208 2742 
Q 947 2381 947 1747 
z
" transform="scale(0.015625)"/>
       <path id="DejaVuSans-29" d="M 513 4856 
L 1013 4856 
Q 1481 4119 1714 3412 
Q 1947 2706 1947 2009 
Q 1947 1309 1714 600 
Q 1481 -109 1013 -844 
L 513 -844 
Q 928 -128 1133 580 
Q 1338 1288 1338 2009 
Q 1338 2731 1133 3434 
Q 928 4138 513 4856 
z
" transform="scale(0.015625)"/>
      </defs>
      <use xlink:href="#DejaVuSans-70"/>
      <use xlink:href="#DejaVuSans-4c" transform="translate(63.476562 0)"/>
      <use xlink:href="#DejaVuSans-44" transform="translate(119.189453 0)"/>
      <use xlink:href="#DejaVuSans-44" transform="translate(196.191406 0)"/>
      <use xlink:href="#DejaVuSans-54" transform="translate(273.193359 0)"/>
      <use xlink:href="#DejaVuSans-20" transform="translate(334.277344 0)"/>
      <use xlink:href="#DejaVuSans-73" transform="translate(366.064453 0)"/>
      <use xlink:href="#DejaVuSans-63" transform="translate(418.164062 0)"/>
      <use xlink:href="#DejaVuSans-6f" transform="translate(473.144531 0)"/>
      <use xlink:href="#DejaVuSans-72" transform="translate(534.326172 0)"/>
      <use xlink:href="#DejaVuSans-65" transform="translate(573.189453 0)"/>
      <use xlink:href="#DejaVuSans-20" transform="translate(634.712891 0)"/>
      <use xlink:href="#DejaVuSans-28" transform="translate(666.5 0)"/>
      <use xlink:href="#DejaVuSans-61" transform="translate(705.513672 0)"/>
      <use xlink:href="#DejaVuSans-76" transform="translate(766.792969 0)"/>
      <use xlink:href="#DejaVuSans-65" transform="translate(825.972656 0)"/>
      <use xlink:href="#DejaVuSans-72" transform="translate(887.496094 0)"/>
      <use xlink:href="#DejaVuSans-61" transform="translate(928.609375 0)"/>
      <use xlink:href="#DejaVuSans-67" transform="translate(989.888672 0)"/>
      <use xlink:href="#DejaVuSans-65" transform="translate(1053.365234 0)"/>
      <use xlink:href="#DejaVuSans-64" transform="translate(1114.888672 0)"/>
      <use xlink:href="#DejaVuSans-20" transform="translate(1178.365234 0)"/>
      <use xlink:href="#DejaVuSans-6f" transform="translate(1210.152344 0)"/>
      <use xlink:href="#DejaVuSans-76" transform="translate(1271.333984 0)"/>
      <use xlink:href="#DejaVuSans-65" transform="translate(1330.513672 0)"/>
      <use xlink:href="#DejaVuSans-72" transform="translate(1392.037109 0)"/>
      <use xlink:href="#DejaVuSans-20" transform="translate(1433.150391 0)"/>
      <use xlink:href="#DejaVuSans-70" transform="translate(1464.9375 0)"/>
      <use xlink:href="#DejaVuSans-72" transform="translate(1528.414062 0)"/>
      <use xlink:href="#DejaVuSans-6f" transform="translate(1567.277344 0)"/>
      <use xlink:href="#DejaVuSans-74" transform="translate(1628.458984 0)"/>
      <use xlink:href="#DejaVuSans-65" transform="translate(1667.667969 0)"/>
      <use xlink:href="#DejaVuSans-69" transform="translate(1729.191406 0)"/>
      <use xlink:href="#DejaVuSans-6e" transform="translate(1756.974609 0)"/>
      <use xlink:href="#DejaVuSans-29" transform="translate(1820.353516 0)"/>
     </g>
    </g>
   </g>
   <g id="line2d_9">
    <path d="M 136.245625 260.682696 
L 136.245625 20.029293 
" clip-path="url(#p54d4ca2a77)" style="fill: none; stroke: #b2b2b2; stroke-width: 1.875; stroke-linecap: square"/>
   </g>
   <g id="line2d_10">
    <path d="M 136.245625 174.204129 
L 136.245625 49.844316 
" clip-path="url(#p54d4ca2a77)" style="fill: none; stroke: #b2b2b2; stroke-width: 5.625; stroke-linecap: square"/>
   </g>
   <g id="line2d_11">
    <path d="M 136.245625 88.858833 
" clip-path="url(#p54d4ca2a77)" style="fill: none; stroke: #191919; stroke-width: 1.5; stroke-linecap: square"/>
    <defs>
     <path id="mc871688d40" d="M 2.34375 0 
L -2.34375 -0 
" style="stroke: #ffffff; stroke-width: 1.125"/>
    </defs>
    <g clip-path="url(#p54d4ca2a77)">
     <use xlink:href="#mc871688d40" x="136.245625" y="88.858833" style="fill: #ffffff; stroke: #ffffff; stroke-width: 1.125"/>
    </g>
   </g>
   <g id="line2d_12">
    <path d="M 314.805625 210.118816 
L 314.805625 19.296 
" clip-path="url(#p54d4ca2a77)" style="fill: none; stroke: #b2b2b2; stroke-width: 1.875; stroke-linecap: square"/>
   </g>
   <g id="line2d_13">
    <path d="M 314.805625 114.332429 
L 314.805625 50.402619 
" clip-path="url(#p54d4ca2a77)" style="fill: none; stroke: #b2b2b2; stroke-width: 5.625; stroke-linecap: square"/>
   </g>
   <g id="line2d_14">
    <path d="M 314.805625 76.526179 
" clip-path="url(#p54d4ca2a77)" style="fill: none; stroke: #191919; stroke-width: 1.5; stroke-linecap: square"/>
    <g clip-path="url(#p54d4ca2a77)">
     <use xlink:href="#mc871688d40" x="314.805625" y="76.526179" style="fill: #ffffff; stroke: #ffffff; stroke-width: 1.125"/>
    </g>
   </g>
   <g id="patch_3">
    <path d="M 46.965625 273.312 
L 46.965625 7.2 
" style="fill: none; stroke: #000000; stroke-width: 0.8; stroke-linejoin: miter; stroke-linecap: square"/>
   </g>
  </g>
 </g>
 <defs>
  <clipPath id="p54d4ca2a77">
   <rect x="46.965625" y="7.2" width="357.12" height="266.112"/>
  </clipPath>
 </defs>
</svg>
